SplineFontDB: 3.0
FontName: ManfKana
FullName: ManfKana
FamilyName: ManfKana
Weight: Regular
Copyright: Copyright (c) 2018, Yuki
UComments: "2018-2-18: Created with FontForge (http://fontforge.org)"
Version: 1.0.0
ItalicAngle: 0
UnderlinePosition: -204
UnderlineWidth: 102
Ascent: 1638
Descent: 410
InvalidEm: 0
LayerCount: 2
Layer: 0 0 "Back" 1
Layer: 1 0 "Fore" 0
HasVMetrics: 1
XUID: [1021 774 -60294621 15686681]
FSType: 0
OS2Version: 0
OS2_WeightWidthSlopeOnly: 0
OS2_UseTypoMetrics: 1
CreationTime: 1518955297
ModificationTime: 1519299843
PfmFamily: 17
TTFWeight: 400
TTFWidth: 5
LineGap: 184
VLineGap: 0
OS2TypoAscent: 0
OS2TypoAOffset: 1
OS2TypoDescent: 0
OS2TypoDOffset: 1
OS2TypoLinegap: 184
OS2WinAscent: 0
OS2WinAOffset: 1
OS2WinDescent: 0
OS2WinDOffset: 1
HheadAscent: 0
HheadAOffset: 1
HheadDescent: 0
HheadDOffset: 1
OS2Vendor: 'PfEd'
MarkAttachClasses: 1
DEI: 91125
LangName: 1033
Encoding: UnicodeBmp
Compacted: 1
UnicodeInterp: none
NameList: AGL For New Fonts
DisplaySize: -72
AntiAlias: 1
FitToEm: 0
WinInfo: 20 10 5
BeginPrivate: 0
EndPrivate
TeXData: 1 0 0 346030 173015 115343 0 -1048576 115343 783286 444596 497025 792723 393216 433062 380633 303038 157286 324010 404750 52429 2506097 1059062 262144
BeginChars: 65536 68

StartChar: uni3042
Encoding: 12354 12354 0
Width: 1700
VWidth: 0
Flags: HW
HStem: 0 80<226 524 574 741 791 1044> 160 70<791 906> 180 50<574 731> 1443 62<200 256.301> 1455 66<443.012 512.988>
VStem: 370 50<919.032 1443> 443 70<1455.01 1520.99> 524 50<80 180 230 654.064> 741 50<80 160 230 481.607> 906 50<230 434>
LayerCount: 2
Fore
SplineSet
443 1488 m 4x8fc0
 443 1507 459 1521 478 1521 c 4
 497 1521 513 1507 513 1488 c 4
 513 1469 497 1455 478 1455 c 4
 459 1455 443 1469 443 1488 c 4x8fc0
781 230 m 5xa7c0
 906 230 l 5xc7c0
 906 475 l 5
 858 541 750 644 658 758 c 4
 625 799 521 948 515 1058 c 4
 512 1110 542 1163 576 1176 c 4
 629 1196 702 1195 720 1197 c 5
 653 1244 l 5
 613 1292 629 1265 597 1318 c 4
 572 1360 577 1415 582 1457 c 4
 590 1519 575 1544 552 1547 c 4
 523 1551 442 1522 415 1511 c 4
 355 1486 399 1505 420 1460 c 5
 420 1181 l 5
 413 1147 421 1125 419 1092 c 4
 416 1047 428 968 441 928 c 4
 463 862 509 840 558 782 c 4
 605 726 615 733 660 679 c 4
 709 621 729 581 758 521 c 4
 773 490 780 433 781 395 c 5
 781 230 l 5xa7c0
1366 250 m 5
 1375 320 l 5
 1375 406 1200 744 1112 858 c 4
 1052 936 896 1089 820 1140 c 4
 777 1169 653 1152 606 1133 c 4
 566 1117 564 1087 562 1043 c 4
 560 988 664 842 691 803 c 4
 718 764 944 502 1075 407 c 4
 1126 370 1234 321 1260 310 c 4
 1346 273 1339 258 1366 250 c 5
1434 58 m 5
 1414 109 l 5
 1400 121 1358 210 1190 287 c 4
 1135 312 1021 383 1006 392 c 5
 1015 358 1053 244 1088 216 c 4
 1158 160 1192 146 1240 126 c 4
 1302 100 1413 65 1434 58 c 5
574 230 m 5xa7c0
 731 230 l 5
 732 418 l 5
 736 451 699 522 686 548 c 4
 666 588 610 665 582 683 c 4
 570 691 575 566 574 437 c 5
 574 230 l 5xa7c0
741 80 m 5
 741 180 l 29
 574 180 l 5
 574 80 l 29
 741 80 l 5
201 0 m 5
 226 80 l 5
 524 80 l 5
 524 730 l 5
 507 788 470 786 427 845 c 4
 394 890 363 988 366 1080 c 6
 366 1080 367 1160 370 1187 c 5
 370 1443 l 5
 200 1443 l 5
 200 1505 l 5
 416 1560 l 5
 441 1576 461 1580 488 1588 c 4
 507 1593 543 1601 562 1600 c 4
 581 1599 592 1593 606 1580 c 4
 652 1540 642 1502 629 1470 c 4
 622 1453 625 1373 638 1347 c 4
 650 1324 724 1251 745 1241 c 4
 1020 1110 1260 785 1373 484 c 4
 1419 361 1440 320 1408 224 c 5
 1417 200 1458 156 1476 114 c 4
 1490 81 1493 9 1500 0 c 5
 1474 0 l 6
 1454 0 1264 53 1210 80 c 4
 1166 102 1116 116 1056 174 c 4
 1033 196 1002 238 980 316 c 4
 977 328 952 434 952 434 c 6
 956 160 l 5
 791 160 l 5xd7c0
 791 80 l 5
 1044 80 l 5
 1069 0 l 5
 201 0 l 5
EndSplineSet
Validated: 33
EndChar

StartChar: uni3044
Encoding: 12356 12356 1
Width: 1042
VWidth: 0
Flags: HW
HStem: 0 21G<398 448 792 842>
VStem: 204 58<533.656 1028.89> 398 50<0 400 457 1514> 598 58<533.656 1028.89> 792 50<0 400 457 1514>
LayerCount: 2
Fore
SplineSet
792 457 m 5
 792 1514 l 5
 742 1534 l 5
 724 1452 711 1370 702 1287 c 4
 694 1215 688 1143 682 1071 c 4
 676 999 669 927 665 855 c 4
 663 819 661 783 660 747 c 4
 659 711 657 674 656 638 c 4
 655 603 653 567 651 532 c 5
 792 457 l 5
842 0 m 5
 792 0 l 5
 792 400 l 5
 594 500 l 5
 595 544 596 588 598 632 c 4
 601 703 604 775 609 846 c 4
 615 933 624 1019 633 1106 c 4
 641 1178 649 1250 659 1321 c 4
 672 1415 690 1508 712 1600 c 5
 842 1550 l 5
 842 0 l 5
398 457 m 5
 398 1514 l 5
 348 1534 l 5
 330 1452 317 1370 308 1287 c 4
 300 1215 294 1143 288 1071 c 4
 282 999 275 927 271 855 c 4
 269 819 267 783 266 747 c 4
 265 711 263 674 262 638 c 4
 261 603 259 567 257 532 c 5
 398 457 l 5
448 0 m 5
 398 0 l 5
 398 400 l 5
 200 500 l 5
 201 544 202 588 204 632 c 4
 207 703 210 775 215 846 c 4
 221 933 230 1019 239 1106 c 4
 247 1178 255 1250 265 1321 c 4
 278 1415 296 1508 318 1600 c 5
 448 1550 l 5
 448 0 l 5
EndSplineSet
Validated: 1
EndChar

StartChar: glyph7
Encoding: 12358 12358 2
Width: 1588
VWidth: 0
Flags: HW
LayerCount: 2
Fore
SplineSet
390 1377 m 5
 390 1377 367 1309 384 1146 c 4
 399 1005 412 954 483 784 c 4
 525 684 611 585 622 569 c 4
 671 498 726 468 760 451 c 4
 805 428 986 408 1078 408 c 4
 1153 408 1232 428 1282 446 c 5
 1147 545 1147 547 1029 665 c 4
 942 752 850 861 782 964 c 5
 743 954 713 940 691 917 c 4
 677 902 673 888 677 868 c 4
 683 838 693 821 719 802 c 4
 742 785 752 773 773 754 c 5
 713 730 643 708 584 742 c 4
 538 769 514 811 498 862 c 4
 481 917 467 967 484 1020 c 4
 489 1036 529 1043 529 1027 c 4
 529 930 541 896 563 845 c 4
 598 764 643 769 685 771 c 5
 661 795 648 811 636 844 c 4
 613 907 644 939 661 960 c 4
 685 990 722 992 755 1012 c 5
 698 1117 698 1131 651 1267 c 4
 617 1365 658 1412 617 1496 c 4
 596 1539 561 1551 497 1550 c 4
 413 1549 402 1516 368 1457 c 4
 349 1424 380 1414 390 1377 c 5
661 452 m 13
 615 80 l 29
 750 80 l 29
 838 265 l 29
 798 386 l 29
 772 391 756 398 731 409 c 4
 706 420 683 437 661 452 c 13
422 1434 m 4x8fc0
 422 1457 441 1474 464 1474 c 4
 487 1474 506 1457 506 1434 c 4
 506 1411 487 1394 464 1394 c 4
 441 1394 422 1411 422 1434 c 4x8fc0
200 0 m 29
 225 80 l 29
 555 80 l 5
 608 500 l 5
 541 594 479 681 428 785 c 4
 382 878 372 928 344 1041 c 4
 327 1111 320 1308 340 1377 c 5
 210 1397 l 5
 210 1447 l 5
 315 1462 l 5
 357 1597 440 1610 524 1609 c 4
 595 1608 630 1585 668 1525 c 4
 703 1470 681 1386 698 1313 c 4
 741 1134 771 1071 904 901 c 4
 1000 779 1126 640 1244 540 c 4
 1328 469 1369 443 1388 437 c 5
 1360 416 1230 374 1140 362 c 4
 1042 349 888 373 868 373 c 5
 908 265 l 5
 820 80 l 5
 925 80 l 29
 960 0 l 29
 200 0 l 29
EndSplineSet
Validated: 33
EndChar

StartChar: glyph8
Encoding: 12360 12360 3
Width: 648
VWidth: 0
InSpiro: 1
Flags: W
HStem: 0 21G<398 448>
VStem: 204 58<533.641 1028.73> 398 50<0 400 457 1514>
LayerCount: 2
Fore
SplineSet
398 457 m 1
 398 1514 l 1
 348 1534 l 1
 330 1452 317 1370 308 1287 c 0
 300 1215 294 1143 288 1071 c 0
 282 999 275 927 271 855 c 0
 269 819 267 783 266 747 c 0
 265 711 263 674 262 638 c 0
 261 603 259 567 257 532 c 1
 398 457 l 1
  Spiro
    398 457 v
    398 1514 v
    348 1534 v
    331.644 1452.05 o
    318.359 1369.62 o
    308 1287 o
    300.599 1215.07 o
    294.068 1142.93 o
    288 1071 o
    281.821 999.072 o
    275.846 926.928 o
    271 855 o
    269.039 819.036 o
    267.295 782.964 o
    266 747 o
    264.742 710.777 o
    263.258 674.223 o
    262 638 o
    260.705 602.776 o
    258.961 567.224 o
    257 532 v
    0 0 z
  EndSpiro
448 0 m 1
 398 0 l 1
 398 400 l 1
 200 500 l 1
 201 544 202 588 204 632 c 0
 207 703 210 775 215 846 c 0
 221 933 230 1019 239 1106 c 0
 247 1178 255 1250 265 1321 c 0
 278 1415 296 1508 318 1600 c 1
 448 1550 l 1
 448 0 l 1
  Spiro
    448 0 v
    398 0 v
    398 400 v
    200 500 v
    201.036 543.956 o
    202.298 588.044 o
    204 632 o
    207.071 703.188 o
    210.596 774.812 o
    215 846 o
    221.881 932.654 o
    230.12 1019.35 o
    239 1106 o
    247.066 1177.89 o
    255.601 1249.78 o
    265 1321 o
    279.613 1414.57 o
    297.39 1507.76 o
    318 1600 v
    448 1550 v
    0 0 z
  EndSpiro
EndSplineSet
Validated: 1
EndChar

StartChar: glyph9
Encoding: 12362 12362 4
Width: 1395
VWidth: 0
Flags: HW
HStem: 236 44<436.715 570.905> 650 50<428.992 476.813 526.813 574.376> 695 50<601.871 804.017> 800 50<199.813 476.813> 905 50<602.981 804.016> 1550.06 50.1658<660.51 863.364>
VStem: 309.813 50<357.306 570.624> 476.813 50<700 800 850 1441.32> 643.813 50<360.401 572.227> 839.813 50<774.992 876.449> 995.813 50<176.898 1437.07>
LayerCount: 2
Fore
SplineSet
572 825 m 4
 572 792 607 769 632 758 c 4
 659 746 679 743 709 743 c 4
 738 743 759 747 785 759 c 4
 806 769 840 797 840 825 c 4
 840 856 803 883 785 891 c 4
 759 902 738 907 709 907 c 4
 679 907 659 904 632 892 c 4
 607 881 572 859 572 825 c 4
502 650 m 4
 481 650 459 644 441 633 c 4
 423 622 407 608 395 590 c 4
 371 555 361 511 360 468 c 4
 359 424 361 380 385 343 c 4
 406 312 441 280 502 280 c 4
 569 280 605 311 623 343 c 4
 641 374 645 424 644 468 c 4
 643 511 633 555 609 590 c 4
 597 608 581 622 563 633 c 4
 545 644 523 650 502 650 c 4
1046 1380 m 6
 1046 270 l 6
 1046 267 1046 265 1046 262 c 4
 1046 259 1047 257 1048 255 c 4
 1049 250 1050 246 1051 241 c 4
 1052 236 1053 231 1054 226 c 4
 1055 221 1057 217 1058 212 c 4
 1059 208 1061 203 1062 199 c 4
 1063 195 1065 190 1067 186 c 4
 1069 181 1071 177 1073 172 c 4
 1075 167 1078 163 1080 158 c 4
 1083 153 1085 149 1088 144 c 4
 1091 139 1095 134 1098 129 c 4
 1101 124 1105 119 1108 114 c 4
 1111 109 1115 105 1118 100 c 4
 1121 96 1125 91 1128 87 c 4
 1131 83 1135 79 1139 75 c 4
 1143 71 1147 68 1152 65 c 4
 1155 63 1157 62 1160 60 c 4
 1163 58 1165 57 1168 55 c 4
 1171 53 1174 52 1176 50 c 4
 1177 49 1179 48 1180 47 c 4
 1181 47 1181 46 1182 46 c 4
 1183 46 1183 45 1184 44 c 4
 1185 43 1185 43 1185 42 c 4
 1185 41 1186 41 1187 40 c 4
 1188 39 1189 38 1190 37 c 4
 1191 36 1191 36 1191 35 c 4
 1191 34 1192 33 1192 32 c 4
 1193 31 1193 29 1194 28 c 4
 1195 27 1195 25 1195 24 c 4
 1195 22 1195 21 1195 19 c 4
 1195 18 1194 16 1194 15 c 4
 1194 14 1193 13 1193 12 c 4
 1192 11 1192 10 1191 9 c 4
 1191 8 1190 8 1190 7 c 4
 1190 6 1189 6 1189 6 c 4
 1189 6 1188 5 1187 5 c 4
 1186 5 1187 4 1186 4 c 4
 1185 3 1184 3 1183 2 c 4
 1182 1 1181 1 1180 1 c 4
 1178 1 1177 0 1175 0 c 4
 1173 0 1171 -1 1169 -1 c 4
 1167 -1 1166 -1 1164 0 c 4
 1161 1 1157 2 1154 3 c 4
 1151 4 1148 6 1145 8 c 4
 1142 10 1140 12 1137 14 c 4
 1135 16 1132 19 1130 21 c 4
 1127 24 1125 26 1122 29 c 4
 1120 31 1117 34 1115 36 c 4
 1111 40 1106 45 1102 49 c 4
 1098 53 1093 57 1089 61 c 4
 1085 65 1080 69 1076 74 c 4
 1071 79 1067 84 1063 90 c 4
 1059 96 1056 101 1052 107 c 4
 1048 113 1045 118 1041 124 c 4
 1038 129 1035 135 1032 140 c 4
 1029 145 1027 151 1024 156 c 4
 1021 161 1019 167 1017 172 c 4
 1015 177 1014 182 1012 187 c 4
 1010 192 1008 197 1007 202 c 4
 1006 207 1005 213 1004 218 c 4
 1003 224 1002 229 1001 235 c 4
 1000 241 999 247 998 253 c 4
 997 256 996 258 996 261 c 4
 996 264 996 267 996 270 c 6
 996 1380 l 6
 993 1390 990 1400 986 1410 c 4
 982 1420 977 1430 971 1439 c 4
 965 1448 958 1456 951 1464 c 4
 943 1473 934 1481 924 1489 c 4
 915 1496 904 1503 894 1509 c 4
 884 1515 873 1521 862 1526 c 4
 852 1531 841 1536 830 1539 c 4
 819 1542 807 1545 796 1547 c 4
 785 1549 773 1550 762 1550 c 4
 761 1550 761 1550 760 1550 c 4
 759 1550 l 4
 758 1550 758 1550 757 1550 c 4
 745 1550 733 1549 721 1546 c 4
 709 1543 697 1540 686 1536 c 4
 675 1532 664 1527 653 1522 c 4
 642 1517 631 1511 621 1505 c 4
 611 1499 600 1492 591 1484 c 4
 582 1476 573 1468 565 1459 c 4
 559 1452 553 1443 548 1435 c 4
 543 1426 539 1417 535 1408 c 4
 532 1399 529 1390 527 1380 c 6
 527 850 l 6
 528 852 528 853 529 855 c 4
 532 860 535 865 539 870 c 4
 546 878 553 887 560 895 c 4
 569 905 578 914 589 921 c 4
 603 931 619 939 636 945 c 4
 659 953 684 956 709 955 c 4
 741 954 774 947 802 932 c 4
 826 919 848 901 866 880 c 4
 873 872 879 864 883 855 c 4
 887 846 890 835 890 825 c 4
 890 815 887 804 883 795 c 4
 879 786 873 777 866 769 c 4
 848 748 826 730 802 717 c 4
 774 702 741 695 709 695 c 4
 685 695 661 697 638 704 c 4
 622 709 606 716 592 726 c 4
 580 734 570 744 560 755 c 4
 553 763 546 771 540 779 c 4
 536 784 533 789 530 794 c 4
 529 796 528 798 527 800 c 6
 527 700 l 6
 531 700 534 700 538 699 c 4
 547 698 556 695 565 691 c 4
 577 686 588 678 599 670 c 4
 614 659 627 646 639 632 c 4
 655 614 668 593 677 570 c 4
 690 538 694 503 694 468 c 4
 694 433 692 398 683 364 c 4
 674 329 655 296 627 274 c 4
 610 260 589 250 568 244 c 4
 547 238 524 236 502 236 c 4
 459 236 416 247 382 273 c 4
 354 295 335 327 324 361 c 4
 313 395 309 432 310 468 c 4
 311 502 315 536 326 568 c 4
 334 591 345 612 361 631 c 4
 374 646 389 659 405 670 c 4
 417 678 429 685 442 691 c 4
 450 695 458 698 467 699 c 4
 470 700 474 700 477 700 c 6
 477 800 l 5
 200 800 l 5
 200 850 l 5
 477 850 l 5
 477 1380 l 6
 479 1392 481 1404 485 1415 c 4
 489 1426 494 1437 499 1448 c 4
 505 1459 511 1469 518 1479 c 4
 527 1491 538 1503 549 1513 c 4
 560 1523 572 1533 585 1541 c 4
 598 1549 611 1557 625 1564 c 4
 639 1571 653 1577 667 1582 c 4
 682 1587 697 1590 712 1594 c 4
 727 1598 742 1600 757 1600 c 4
 758 1600 760 1600 761 1600 c 4
 762 1600 763 1600 764 1600 c 4
 765 1600 767 1600 768 1600 c 4
 782 1600 795 1599 809 1597 c 4
 823 1595 836 1592 849 1588 c 4
 862 1584 875 1579 887 1574 c 4
 900 1568 913 1562 925 1554 c 4
 937 1546 949 1537 960 1528 c 4
 971 1519 981 1509 990 1498 c 4
 999 1487 1008 1475 1015 1462 c 4
 1022 1449 1029 1436 1034 1422 c 4
 1039 1408 1043 1394 1046 1380 c 6
EndSplineSet
Validated: 33
EndChar

StartChar: uni306D
Encoding: 12397 12397 5
Width: 1600
VWidth: 0
Flags: W
HStem: 0 21G<829 874>
VStem: 654 52<473.286 936.5> 829 45<0 360 411 1363>
LayerCount: 2
Fore
SplineSet
200 1548 m 1
 300 1638 l 25
 400 1548 l 25
 500 1638 l 25
 600 1548 l 25
 700 1638 l 25
 800 1548 l 25
 900 1638 l 25
 1000 1548 l 25
 1100 1638 l 25
 1200 1548 l 25
 1300 1638 l 1
 1400 1548 l 1
 1400 1488 l 1
 1300 1578 l 1
 1200 1488 l 1
 1100 1578 l 25
 1000 1488 l 25
 900 1578 l 25
 800 1488 l 1
 700 1578 l 25
 600 1488 l 1
 500 1578 l 25
 400 1488 l 1
 300 1578 l 1
 200 1488 l 1
 200 1548 l 1
829 411 m 5
 829 1363 l 5
 784 1381 l 5
 768 1307 756 1233 748 1158 c 4
 741 1093 735 1029 730 964 c 4
 725 899 718 835 714 770 c 4
 712 738 711 704 710 672 c 4
 709 640 707 606 706 574 c 4
 705 542 704 511 702 479 c 5
 829 411 l 5
874 0 m 5
 829 0 l 5
 829 360 l 5
 650 450 l 5
 651 490 652 529 654 569 c 4
 657 633 660 697 664 761 c 4
 669 839 678 917 686 995 c 4
 693 1060 700 1125 709 1189 c 4
 721 1274 737 1357 757 1440 c 5
 874 1395 l 5
 874 0 l 5
EndSplineSet
Validated: 1
EndChar

StartChar: uni3093
Encoding: 12435 12435 6
Width: 1600
VWidth: 0
Flags: HW
HStem: 700 150
LayerCount: 2
Fore
SplineSet
200 760 m 5
 300 850 l 29
 400 760 l 29
 500 850 l 29
 600 760 l 29
 700 850 l 29
 800 760 l 29
 900 850 l 29
 1000 760 l 29
 1100 850 l 29
 1200 760 l 29
 1300 850 l 5
 1400 760 l 5
 1400 700 l 5
 1300 790 l 5
 1200 700 l 5
 1100 790 l 29
 1000 700 l 29
 900 790 l 29
 800 700 l 5
 700 790 l 29
 600 700 l 5
 500 790 l 29
 400 700 l 5
 300 790 l 5
 200 700 l 5
 200 760 l 5
EndSplineSet
Validated: 1
EndChar

StartChar: uni306A
Encoding: 12394 12394 7
Width: 1600
VWidth: 0
Flags: HW
LayerCount: 2
Fore
SplineSet
447 1339 m 0x8fc0
 447 1356 461 1369 478 1369 c 0
 495 1369 510 1356 510 1339 c 0
 510 1322 495 1310 478 1310 c 0
 461 1310 447 1322 447 1339 c 0x8fc0
751 207 m 1xa7c0
 863 207 l 1xc7c0
 863 428 l 1
 820 487 723 579 640 682 c 0
 610 719 516 853 511 952 c 0
 508 999 535 1046 566 1058 c 0
 614 1076 680 1075 696 1077 c 1
 636 1120 l 1
 600 1163 614 1138 585 1186 c 0
 563 1224 568 1273 572 1311 c 0
 579 1367 566 1389 545 1392 c 0
 519 1396 445 1370 421 1360 c 0
 367 1338 407 1354 426 1314 c 1
 426 1063 l 1
 420 1032 427 1013 425 983 c 0
 422 943 433 871 445 835 c 0
 465 776 506 756 550 704 c 0
 592 654 602 660 642 611 c 0
 686 559 704 523 730 469 c 0
 744 441 750 390 751 356 c 1
 751 207 l 1xa7c0
1277 225 m 1
 1285 288 l 1
 1285 365 1128 669 1049 772 c 0
 995 842 854 980 786 1026 c 0
 747 1052 635 1037 593 1020 c 0
 557 1006 556 979 554 939 c 0
 552 889 646 758 670 723 c 0
 694 688 897 452 1015 366 c 0
 1061 333 1159 289 1182 279 c 0
 1259 246 1253 232 1277 225 c 1
1339 52 m 1
 1321 98 l 1
 1308 109 1270 189 1119 258 c 0
 1069 280 967 345 953 353 c 1
 961 322 995 219 1027 194 c 0
 1090 144 1121 131 1164 113 c 0
 1220 90 1320 58 1339 52 c 1
565 207 m 1xa7c0
 706 207 l 1
 707 376 l 1
 711 406 677 470 665 493 c 0
 647 529 597 599 572 615 c 0
 561 622 566 509 565 393 c 1
 565 207 l 1xa7c0
715 72 m 1
 715 162 l 25
 565 162 l 1
 565 72 l 25
 715 72 l 1
229 0 m 1
 251 72 l 1
 520 72 l 1
 520 657 l 1
 505 709 471 707 432 760 c 0
 402 800 374 889 377 972 c 2
 377 972 378 1044 381 1068 c 1
 381 1299 l 1
 228 1299 l 1
 228 1354 l 1
 422 1404 l 1
 444 1418 463 1422 487 1429 c 0
 504 1433 537 1441 554 1440 c 0
 571 1439 580 1434 593 1422 c 0
 634 1386 626 1352 614 1323 c 0
 608 1308 610 1235 622 1212 c 0
 633 1191 700 1126 719 1117 c 0
 967 999 1182 707 1284 436 c 0
 1325 325 1344 288 1315 202 c 1
 1323 180 1360 141 1376 103 c 0
 1389 73 1392 8 1398 0 c 1
 1375 0 l 2
 1357 0 1186 48 1137 72 c 0
 1097 92 1052 105 998 157 c 0
 977 177 950 214 930 284 c 0
 927 295 905 391 905 391 c 2
 908 144 l 1
 760 144 l 1xd7c0
 760 72 l 1
 988 72 l 1
 1010 0 l 1
 229 0 l 1
200 1548 m 1
 300 1638 l 25
 400 1548 l 25
 500 1638 l 25
 600 1548 l 25
 700 1638 l 25
 800 1548 l 25
 900 1638 l 25
 1000 1548 l 25
 1100 1638 l 25
 1200 1548 l 25
 1300 1638 l 1
 1400 1548 l 1
 1400 1488 l 1
 1300 1578 l 1
 1200 1488 l 1
 1100 1578 l 25
 1000 1488 l 25
 900 1578 l 25
 800 1488 l 1
 700 1578 l 25
 600 1488 l 1
 500 1578 l 25
 400 1488 l 1
 300 1578 l 1
 200 1488 l 1
 200 1548 l 1
EndSplineSet
Validated: 33
EndChar

StartChar: uni304B
Encoding: 12363 12363 8
Width: 2679
VWidth: 0
Flags: HW
LayerCount: 2
Fore
SplineSet
1422 1488 m 0x8fc0
 1422 1507 1438 1521 1457 1521 c 0
 1476 1521 1492 1507 1492 1488 c 0
 1492 1469 1476 1455 1457 1455 c 0
 1438 1455 1422 1469 1422 1488 c 0x8fc0
1760 230 m 1xa7c0
 1885 230 l 1xc7c0
 1885 475 l 1
 1837 541 1729 644 1637 758 c 0
 1604 799 1500 948 1494 1058 c 0
 1491 1110 1521 1163 1555 1176 c 0
 1608 1196 1681 1195 1699 1197 c 1
 1632 1244 l 1
 1592 1292 1608 1265 1576 1318 c 0
 1551 1360 1556 1415 1561 1457 c 0
 1569 1519 1554 1544 1531 1547 c 0
 1502 1551 1421 1522 1394 1511 c 0
 1334 1486 1378 1505 1399 1460 c 1
 1399 1181 l 1
 1392 1147 1400 1125 1398 1092 c 0
 1395 1047 1407 968 1420 928 c 0
 1442 862 1488 840 1537 782 c 0
 1584 726 1594 733 1639 679 c 0
 1688 621 1708 581 1737 521 c 0
 1752 490 1759 433 1760 395 c 1
 1760 230 l 1xa7c0
2345 250 m 1
 2354 320 l 1
 2354 406 2179 744 2091 858 c 0
 2031 936 1875 1089 1799 1140 c 0
 1756 1169 1632 1152 1585 1133 c 0
 1545 1117 1543 1087 1541 1043 c 0
 1539 988 1643 842 1670 803 c 0
 1697 764 1923 502 2054 407 c 0
 2105 370 2213 321 2239 310 c 0
 2325 273 2318 258 2345 250 c 1
2413 58 m 1
 2393 109 l 1
 2379 121 2337 210 2169 287 c 0
 2114 312 2000 383 1985 392 c 1
 1994 358 2032 244 2067 216 c 0
 2137 160 2171 146 2219 126 c 0
 2281 100 2392 65 2413 58 c 1
1553 230 m 1xa7c0
 1710 230 l 1
 1711 418 l 1
 1715 451 1678 522 1665 548 c 0
 1645 588 1589 665 1561 683 c 0
 1549 691 1554 566 1553 437 c 1
 1553 230 l 1xa7c0
1720 80 m 1
 1720 180 l 25
 1553 180 l 1
 1553 80 l 25
 1720 80 l 1
1180 0 m 1
 1205 80 l 1
 1503 80 l 1
 1503 730 l 1
 1486 788 1449 786 1406 845 c 0
 1373 890 1342 988 1345 1080 c 2
 1345 1080 1346 1160 1349 1187 c 1
 1349 1443 l 1
 1179 1443 l 1
 1179 1505 l 1
 1395 1560 l 1
 1420 1576 1440 1580 1467 1588 c 0
 1486 1593 1522 1601 1541 1600 c 0
 1560 1599 1571 1593 1585 1580 c 0
 1631 1540 1621 1502 1608 1470 c 0
 1601 1453 1604 1373 1617 1347 c 0
 1629 1324 1703 1251 1724 1241 c 0
 1999 1110 2239 785 2352 484 c 0
 2398 361 2419 320 2387 224 c 1
 2396 200 2437 156 2455 114 c 0
 2469 81 2472 9 2479 0 c 1
 2453 0 l 2
 2433 0 2243 53 2189 80 c 0
 2145 102 2095 116 2035 174 c 0
 2012 196 1981 238 1959 316 c 0
 1956 328 1931 434 1931 434 c 2
 1935 160 l 1
 1770 160 l 1xd7c0
 1770 80 l 1
 2023 80 l 1
 2048 0 l 1
 1180 0 l 1
1180 838 m 4
 1166 852 1118 901 1102 902 c 4
 1095 902 1084 880 1087 874 c 4
 1091 865 1141 802 1151 802 c 4
 1165 802 1187 831 1180 838 c 4
1020 900 m 5
 280 900 l 5
 361 731 584 704 650 700 c 4
 778 692 979 797 1020 900 c 5
200 950 m 5
 1100 950 l 5
 1126 937 1226 859 1224 832 c 4
 1223 819 1167 752 1155 752 c 4
 1135 752 1074 833 1063 849 c 5
 1011 803 910 653 650 650 c 4
 352 647 232 842 200 950 c 5
EndSplineSet
Validated: 33
EndChar

StartChar: uni304D
Encoding: 12365 12365 9
Width: 1424
VWidth: 0
Flags: HW
LayerCount: 2
Fore
SplineSet
610 700 m 29
 680 700 l 29
 1080 0 l 29
 1010 0 l 29
 610 700 l 29
350 700 m 29
 420 700 l 29
 820 0 l 29
 750 0 l 29
 350 700 l 29
1180 1488 m 0
 1166 1502 1118 1551 1102 1552 c 0
 1095 1552 1084 1530 1087 1524 c 0
 1091 1515 1141 1452 1151 1452 c 0
 1165 1452 1187 1481 1180 1488 c 0
1020 1550 m 1
 280 1550 l 1
 361 1381 584 1354 650 1350 c 0
 778 1342 979 1447 1020 1550 c 1
200 1600 m 1
 1100 1600 l 1
 1126 1587 1226 1509 1224 1482 c 0
 1223 1469 1167 1402 1155 1402 c 0
 1135 1402 1074 1483 1063 1499 c 1
 1011 1453 910 1303 650 1300 c 0
 352 1297 232 1492 200 1600 c 1
EndSplineSet
Validated: 33
EndChar

StartChar: uni304F
Encoding: 12367 12367 10
Width: 2588
VWidth: 0
Flags: HW
LayerCount: 2
Fore
SplineSet
1390 1377 m 5
 1390 1377 1367 1309 1384 1146 c 4
 1399 1005 1412 954 1483 784 c 4
 1525 684 1611 585 1622 569 c 4
 1671 498 1726 468 1760 451 c 4
 1805 428 1986 408 2078 408 c 4
 2153 408 2232 428 2282 446 c 5
 2147 545 2147 547 2029 665 c 4
 1942 752 1850 861 1782 964 c 5
 1743 954 1713 940 1691 917 c 4
 1677 902 1673 888 1677 868 c 4
 1683 838 1693 821 1719 802 c 4
 1742 785 1752 773 1773 754 c 5
 1713 730 1643 708 1584 742 c 4
 1538 769 1514 811 1498 862 c 4
 1481 917 1467 967 1484 1020 c 4
 1489 1036 1529 1043 1529 1027 c 4
 1529 930 1541 896 1563 845 c 4
 1598 764 1643 769 1685 771 c 5
 1661 795 1648 811 1636 844 c 4
 1613 907 1644 939 1661 960 c 4
 1685 990 1722 992 1755 1012 c 5
 1698 1117 1698 1131 1651 1267 c 4
 1617 1365 1658 1412 1617 1496 c 4
 1596 1539 1561 1551 1497 1550 c 4
 1413 1549 1402 1516 1368 1457 c 4
 1349 1424 1380 1414 1390 1377 c 5
1661 452 m 13
 1615 80 l 29
 1750 80 l 29
 1838 265 l 29
 1798 386 l 29
 1772 391 1756 398 1731 409 c 4
 1706 420 1683 437 1661 452 c 13
1422 1434 m 4x8fc0
 1422 1457 1441 1474 1464 1474 c 4
 1487 1474 1506 1457 1506 1434 c 4
 1506 1411 1487 1394 1464 1394 c 4
 1441 1394 1422 1411 1422 1434 c 4x8fc0
1200 0 m 29
 1225 80 l 29
 1555 80 l 5
 1608 500 l 5
 1541 594 1479 681 1428 785 c 4
 1382 878 1372 928 1344 1041 c 4
 1327 1111 1320 1308 1340 1377 c 5
 1210 1397 l 5
 1210 1447 l 5
 1315 1462 l 5
 1357 1597 1440 1610 1524 1609 c 4
 1595 1608 1630 1585 1668 1525 c 4
 1703 1470 1681 1386 1698 1313 c 4
 1741 1134 1771 1071 1904 901 c 4
 2000 779 2126 640 2244 540 c 4
 2328 469 2369 443 2388 437 c 5
 2360 416 2230 374 2140 362 c 4
 2042 349 1888 373 1868 373 c 5
 1908 265 l 5
 1820 80 l 5
 1925 80 l 29
 1960 0 l 29
 1200 0 l 29
1180 838 m 4
 1166 852 1118 901 1102 902 c 4
 1095 902 1084 880 1087 874 c 4
 1091 865 1141 802 1151 802 c 4
 1165 802 1187 831 1180 838 c 4
1020 900 m 5
 280 900 l 5
 361 731 584 704 650 700 c 4
 778 692 979 797 1020 900 c 5
200 950 m 5
 1100 950 l 5
 1126 937 1226 859 1224 832 c 4
 1223 819 1167 752 1155 752 c 4
 1135 752 1074 833 1063 849 c 5
 1011 803 910 653 650 650 c 4
 352 647 232 842 200 950 c 5
EndSplineSet
Validated: 33
EndChar

StartChar: uni3051
Encoding: 12369 12369 11
Width: 1754
VWidth: 0
Flags: HW
LayerCount: 2
Fore
SplineSet
1504 457 m 1
 1504 1514 l 1
 1454 1534 l 1
 1436 1452 1423 1370 1414 1287 c 0
 1406 1215 1400 1143 1394 1071 c 0
 1388 999 1381 927 1377 855 c 0
 1375 819 1373 783 1372 747 c 0
 1371 711 1369 674 1368 638 c 0
 1367 603 1365 567 1363 532 c 1
 1504 457 l 1
1554 0 m 1
 1504 0 l 1
 1504 400 l 1
 1306 500 l 1
 1307 544 1308 588 1310 632 c 0
 1313 703 1316 775 1321 846 c 0
 1327 933 1336 1019 1345 1106 c 0
 1353 1178 1361 1250 1371 1321 c 0
 1384 1415 1402 1508 1424 1600 c 1
 1554 1550 l 1
 1554 0 l 1
1180 838 m 0
 1166 852 1118 901 1102 902 c 0
 1095 902 1084 880 1087 874 c 0
 1091 865 1141 802 1151 802 c 0
 1165 802 1187 831 1180 838 c 0
1020 900 m 1
 280 900 l 1
 361 731 584 704 650 700 c 0
 778 692 979 797 1020 900 c 1
200 950 m 1
 1100 950 l 1
 1126 937 1226 859 1224 832 c 0
 1223 819 1167 752 1155 752 c 0
 1135 752 1074 833 1063 849 c 1
 1011 803 910 653 650 650 c 0
 352 647 232 842 200 950 c 1
EndSplineSet
Validated: 33
EndChar

StartChar: uni3053
Encoding: 12371 12371 12
Width: 2519
VWidth: 0
Flags: HW
LayerCount: 2
Fore
SplineSet
1696 825 m 0
 1696 792 1731 769 1756 758 c 0
 1783 746 1803 743 1833 743 c 0
 1862 743 1883 747 1909 759 c 0
 1930 769 1964 797 1964 825 c 0
 1964 856 1927 883 1909 891 c 0
 1883 902 1862 907 1833 907 c 0
 1803 907 1783 904 1756 892 c 0
 1731 881 1696 859 1696 825 c 0
1626 650 m 0
 1605 650 1583 644 1565 633 c 0
 1547 622 1531 608 1519 590 c 0
 1495 555 1485 511 1484 468 c 0
 1483 424 1485 380 1509 343 c 0
 1530 312 1565 280 1626 280 c 0
 1693 280 1729 311 1747 343 c 0
 1765 374 1769 424 1768 468 c 0
 1767 511 1757 555 1733 590 c 0
 1721 608 1705 622 1687 633 c 0
 1669 644 1647 650 1626 650 c 0
2170 1380 m 2
 2170 270 l 2
 2170 267 2170 265 2170 262 c 0
 2170 259 2171 257 2172 255 c 0
 2173 250 2174 246 2175 241 c 0
 2176 236 2177 231 2178 226 c 0
 2179 221 2181 217 2182 212 c 0
 2183 208 2185 203 2186 199 c 0
 2187 195 2189 190 2191 186 c 0
 2193 181 2195 177 2197 172 c 0
 2199 167 2202 163 2204 158 c 0
 2207 153 2209 149 2212 144 c 0
 2215 139 2219 134 2222 129 c 0
 2225 124 2229 119 2232 114 c 0
 2235 109 2239 105 2242 100 c 0
 2245 96 2249 91 2252 87 c 0
 2255 83 2259 79 2263 75 c 0
 2267 71 2271 68 2276 65 c 0
 2279 63 2281 62 2284 60 c 0
 2287 58 2289 57 2292 55 c 0
 2295 53 2298 52 2300 50 c 0
 2301 49 2303 48 2304 47 c 0
 2305 47 2305 46 2306 46 c 0
 2307 46 2307 45 2308 44 c 0
 2309 43 2309 43 2309 42 c 0
 2309 41 2310 41 2311 40 c 0
 2312 39 2313 38 2314 37 c 0
 2315 36 2315 36 2315 35 c 0
 2315 34 2316 33 2316 32 c 0
 2317 31 2317 29 2318 28 c 0
 2319 27 2319 25 2319 24 c 0
 2319 22 2319 21 2319 19 c 0
 2319 18 2318 16 2318 15 c 0
 2318 14 2317 13 2317 12 c 0
 2316 11 2316 10 2315 9 c 0
 2315 8 2314 8 2314 7 c 0
 2314 6 2313 6 2313 6 c 0
 2313 6 2312 5 2311 5 c 0
 2310 5 2311 4 2310 4 c 0
 2309 3 2308 3 2307 2 c 0
 2306 1 2305 1 2304 1 c 0
 2302 1 2301 0 2299 0 c 0
 2297 0 2295 -1 2293 -1 c 0
 2291 -1 2290 -1 2288 0 c 0
 2285 1 2281 2 2278 3 c 0
 2275 4 2272 6 2269 8 c 0
 2266 10 2264 12 2261 14 c 0
 2259 16 2256 19 2254 21 c 0
 2251 24 2249 26 2246 29 c 0
 2244 31 2241 34 2239 36 c 0
 2235 40 2230 45 2226 49 c 0
 2222 53 2217 57 2213 61 c 0
 2209 65 2204 69 2200 74 c 0
 2195 79 2191 84 2187 90 c 0
 2183 96 2180 101 2176 107 c 0
 2172 113 2169 118 2165 124 c 0
 2162 129 2159 135 2156 140 c 0
 2153 145 2151 151 2148 156 c 0
 2145 161 2143 167 2141 172 c 0
 2139 177 2138 182 2136 187 c 0
 2134 192 2132 197 2131 202 c 0
 2130 207 2129 213 2128 218 c 0
 2127 224 2126 229 2125 235 c 0
 2124 241 2123 247 2122 253 c 0
 2121 256 2120 258 2120 261 c 0
 2120 264 2120 267 2120 270 c 2
 2120 1380 l 2
 2117 1390 2114 1400 2110 1410 c 0
 2106 1420 2101 1430 2095 1439 c 0
 2089 1448 2082 1456 2075 1464 c 0
 2067 1473 2058 1481 2048 1489 c 0
 2039 1496 2028 1503 2018 1509 c 0
 2008 1515 1997 1521 1986 1526 c 0
 1976 1531 1965 1536 1954 1539 c 0
 1943 1542 1931 1545 1920 1547 c 0
 1909 1549 1897 1550 1886 1550 c 0
 1885 1550 1885 1550 1884 1550 c 0
 1883 1550 l 0
 1882 1550 1882 1550 1881 1550 c 0
 1869 1550 1857 1549 1845 1546 c 0
 1833 1543 1821 1540 1810 1536 c 0
 1799 1532 1788 1527 1777 1522 c 0
 1766 1517 1755 1511 1745 1505 c 0
 1735 1499 1724 1492 1715 1484 c 0
 1706 1476 1697 1468 1689 1459 c 0
 1683 1452 1677 1443 1672 1435 c 0
 1667 1426 1663 1417 1659 1408 c 0
 1656 1399 1653 1390 1651 1380 c 2
 1651 850 l 2
 1652 852 1652 853 1653 855 c 0
 1656 860 1659 865 1663 870 c 0
 1670 878 1677 887 1684 895 c 0
 1693 905 1702 914 1713 921 c 0
 1727 931 1743 939 1760 945 c 0
 1783 953 1808 956 1833 955 c 0
 1865 954 1898 947 1926 932 c 0
 1950 919 1972 901 1990 880 c 0
 1997 872 2003 864 2007 855 c 0
 2011 846 2014 835 2014 825 c 0
 2014 815 2011 804 2007 795 c 0
 2003 786 1997 777 1990 769 c 0
 1972 748 1950 730 1926 717 c 0
 1898 702 1865 695 1833 695 c 0
 1809 695 1785 697 1762 704 c 0
 1746 709 1730 716 1716 726 c 0
 1704 734 1694 744 1684 755 c 0
 1677 763 1670 771 1664 779 c 0
 1660 784 1657 789 1654 794 c 0
 1653 796 1652 798 1651 800 c 2
 1651 700 l 2
 1655 700 1658 700 1662 699 c 0
 1671 698 1680 695 1689 691 c 0
 1701 686 1712 678 1723 670 c 0
 1738 659 1751 646 1763 632 c 0
 1779 614 1792 593 1801 570 c 0
 1814 538 1818 503 1818 468 c 0
 1818 433 1816 398 1807 364 c 0
 1798 329 1779 296 1751 274 c 0
 1734 260 1713 250 1692 244 c 0
 1671 238 1648 236 1626 236 c 0
 1583 236 1540 247 1506 273 c 0
 1478 295 1459 327 1448 361 c 0
 1437 395 1433 432 1434 468 c 0
 1435 502 1439 536 1450 568 c 0
 1458 591 1469 612 1485 631 c 0
 1498 646 1513 659 1529 670 c 0
 1541 678 1553 685 1566 691 c 0
 1574 695 1582 698 1591 699 c 0
 1594 700 1598 700 1601 700 c 2
 1601 800 l 1
 1324 800 l 1
 1324 850 l 1
 1601 850 l 1
 1601 1380 l 2
 1603 1392 1605 1404 1609 1415 c 0
 1613 1426 1618 1437 1623 1448 c 0
 1629 1459 1635 1469 1642 1479 c 0
 1651 1491 1662 1503 1673 1513 c 0
 1684 1523 1696 1533 1709 1541 c 0
 1722 1549 1735 1557 1749 1564 c 0
 1763 1571 1777 1577 1791 1582 c 0
 1806 1587 1821 1590 1836 1594 c 0
 1851 1598 1866 1600 1881 1600 c 0
 1882 1600 1884 1600 1885 1600 c 0
 1886 1600 1887 1600 1888 1600 c 0
 1889 1600 1891 1600 1892 1600 c 0
 1906 1600 1919 1599 1933 1597 c 0
 1947 1595 1960 1592 1973 1588 c 0
 1986 1584 1999 1579 2011 1574 c 0
 2024 1568 2037 1562 2049 1554 c 0
 2061 1546 2073 1537 2084 1528 c 0
 2095 1519 2105 1509 2114 1498 c 0
 2123 1487 2132 1475 2139 1462 c 0
 2146 1449 2153 1436 2158 1422 c 0
 2163 1408 2167 1394 2170 1380 c 2
1180 838 m 0
 1166 852 1118 901 1102 902 c 0
 1095 902 1084 880 1087 874 c 0
 1091 865 1141 802 1151 802 c 0
 1165 802 1187 831 1180 838 c 0
1020 900 m 1
 280 900 l 1
 361 731 584 704 650 700 c 0
 778 692 979 797 1020 900 c 1
200 950 m 1
 1100 950 l 1
 1126 937 1226 859 1224 832 c 0
 1223 819 1167 752 1155 752 c 0
 1135 752 1074 833 1063 849 c 1
 1011 803 910 653 650 650 c 0
 352 647 232 842 200 950 c 1
EndSplineSet
Validated: 33
EndChar

StartChar: uni3084
Encoding: 12420 12420 13
Width: 2492
VWidth: 0
Flags: HW
LayerCount: 2
Fore
SplineSet
1235 1488 m 4x8fc0
 1235 1507 1251 1521 1270 1521 c 4
 1289 1521 1305 1507 1305 1488 c 4
 1305 1469 1289 1455 1270 1455 c 4
 1251 1455 1235 1469 1235 1488 c 4x8fc0
1573 230 m 5xa7c0
 1698 230 l 5xc7c0
 1698 475 l 5
 1650 541 1542 644 1450 758 c 4
 1417 799 1313 948 1307 1058 c 4
 1304 1110 1334 1163 1368 1176 c 4
 1421 1196 1494 1195 1512 1197 c 5
 1445 1244 l 5
 1405 1292 1421 1265 1389 1318 c 4
 1364 1360 1369 1415 1374 1457 c 4
 1382 1519 1367 1544 1344 1547 c 4
 1315 1551 1234 1522 1207 1511 c 4
 1147 1486 1191 1505 1212 1460 c 5
 1212 1181 l 5
 1205 1147 1213 1125 1211 1092 c 4
 1208 1047 1220 968 1233 928 c 4
 1255 862 1301 840 1350 782 c 4
 1397 726 1407 733 1452 679 c 4
 1501 621 1521 581 1550 521 c 4
 1565 490 1572 433 1573 395 c 5
 1573 230 l 5xa7c0
2158 250 m 5
 2167 320 l 5
 2167 406 1992 744 1904 858 c 4
 1844 936 1688 1089 1612 1140 c 4
 1569 1169 1445 1152 1398 1133 c 4
 1358 1117 1356 1087 1354 1043 c 4
 1352 988 1456 842 1483 803 c 4
 1510 764 1736 502 1867 407 c 4
 1918 370 2026 321 2052 310 c 4
 2138 273 2131 258 2158 250 c 5
2226 58 m 5
 2206 109 l 5
 2192 121 2150 210 1982 287 c 4
 1927 312 1813 383 1798 392 c 5
 1807 358 1845 244 1880 216 c 4
 1950 160 1984 146 2032 126 c 4
 2094 100 2205 65 2226 58 c 5
1366 230 m 5xa7c0
 1523 230 l 5
 1524 418 l 5
 1528 451 1491 522 1478 548 c 4
 1458 588 1402 665 1374 683 c 4
 1362 691 1367 566 1366 437 c 5
 1366 230 l 5xa7c0
1533 80 m 5
 1533 180 l 29
 1366 180 l 5
 1366 80 l 29
 1533 80 l 5
993 0 m 5
 1018 80 l 5
 1316 80 l 5
 1316 730 l 5
 1299 788 1262 786 1219 845 c 4
 1186 890 1155 988 1158 1080 c 6
 1158 1080 1159 1160 1162 1187 c 5
 1162 1443 l 5
 992 1443 l 5
 992 1505 l 5
 1208 1560 l 5
 1233 1576 1253 1580 1280 1588 c 4
 1299 1593 1335 1601 1354 1600 c 4
 1373 1599 1384 1593 1398 1580 c 4
 1444 1540 1434 1502 1421 1470 c 4
 1414 1453 1417 1373 1430 1347 c 4
 1442 1324 1516 1251 1537 1241 c 4
 1812 1110 2052 785 2165 484 c 4
 2211 361 2232 320 2200 224 c 5
 2209 200 2250 156 2268 114 c 4
 2282 81 2285 9 2292 0 c 5
 2266 0 l 6
 2246 0 2056 53 2002 80 c 4
 1958 102 1908 116 1848 174 c 4
 1825 196 1794 238 1772 316 c 4
 1769 328 1744 434 1744 434 c 6
 1748 160 l 5
 1583 160 l 5xd7c0
 1583 80 l 5
 1836 80 l 5
 1861 0 l 5
 993 0 l 5
792 457 m 5
 792 1514 l 5
 742 1534 l 5
 724 1452 711 1370 702 1287 c 4
 694 1215 688 1143 682 1071 c 4
 676 999 669 927 665 855 c 4
 663 819 661 783 660 747 c 4
 659 711 657 674 656 638 c 4
 655 603 653 567 651 532 c 5
 792 457 l 5
842 0 m 5
 792 0 l 5
 792 400 l 5
 594 500 l 5
 595 544 596 588 598 632 c 4
 601 703 604 775 609 846 c 4
 615 933 624 1019 633 1106 c 4
 641 1178 649 1250 659 1321 c 4
 672 1415 690 1508 712 1600 c 5
 842 1550 l 5
 842 0 l 5
398 457 m 5
 398 1514 l 5
 348 1534 l 5
 330 1452 317 1370 308 1287 c 4
 300 1215 294 1143 288 1071 c 4
 282 999 275 927 271 855 c 4
 269 819 267 783 266 747 c 4
 265 711 263 674 262 638 c 4
 261 603 259 567 257 532 c 5
 398 457 l 5
448 0 m 5
 398 0 l 5
 398 400 l 5
 200 500 l 5
 201 544 202 588 204 632 c 4
 207 703 210 775 215 846 c 4
 221 933 230 1019 239 1106 c 4
 247 1178 255 1250 265 1321 c 4
 278 1415 296 1508 318 1600 c 5
 448 1550 l 5
 448 0 l 5
EndSplineSet
Validated: 33
EndChar

StartChar: uni3086
Encoding: 12422 12422 14
Width: 2370
VWidth: 0
Flags: HW
LayerCount: 2
Fore
SplineSet
1172 1377 m 5
 1172 1377 1149 1309 1166 1146 c 4
 1181 1005 1194 954 1265 784 c 4
 1307 684 1393 585 1404 569 c 4
 1453 498 1508 468 1542 451 c 4
 1587 428 1768 408 1860 408 c 4
 1935 408 2014 428 2064 446 c 5
 1929 545 1929 547 1811 665 c 4
 1724 752 1632 861 1564 964 c 5
 1525 954 1495 940 1473 917 c 4
 1459 902 1455 888 1459 868 c 4
 1465 838 1475 821 1501 802 c 4
 1524 785 1534 773 1555 754 c 5
 1495 730 1425 708 1366 742 c 4
 1320 769 1296 811 1280 862 c 4
 1263 917 1249 967 1266 1020 c 4
 1271 1036 1311 1043 1311 1027 c 4
 1311 930 1323 896 1345 845 c 4
 1380 764 1425 769 1467 771 c 5
 1443 795 1430 811 1418 844 c 4
 1395 907 1426 939 1443 960 c 4
 1467 990 1504 992 1537 1012 c 5
 1480 1117 1480 1131 1433 1267 c 4
 1399 1365 1440 1412 1399 1496 c 4
 1378 1539 1343 1551 1279 1550 c 4
 1195 1549 1184 1516 1150 1457 c 4
 1131 1424 1162 1414 1172 1377 c 5
1443 452 m 13
 1397 80 l 29
 1532 80 l 29
 1620 265 l 29
 1580 386 l 29
 1554 391 1538 398 1513 409 c 4
 1488 420 1465 437 1443 452 c 13
1204 1434 m 4x8fc0
 1204 1457 1223 1474 1246 1474 c 4
 1269 1474 1288 1457 1288 1434 c 4
 1288 1411 1269 1394 1246 1394 c 4
 1223 1394 1204 1411 1204 1434 c 4x8fc0
982 0 m 29
 1007 80 l 29
 1337 80 l 5
 1390 500 l 5
 1323 594 1261 681 1210 785 c 4
 1164 878 1154 928 1126 1041 c 4
 1109 1111 1102 1308 1122 1377 c 5
 992 1397 l 5
 992 1447 l 5
 1097 1462 l 5
 1139 1597 1222 1610 1306 1609 c 4
 1377 1608 1412 1585 1450 1525 c 4
 1485 1470 1463 1386 1480 1313 c 4
 1523 1134 1553 1071 1686 901 c 4
 1782 779 1908 640 2026 540 c 4
 2110 469 2151 443 2170 437 c 5
 2142 416 2012 374 1922 362 c 4
 1824 349 1670 373 1650 373 c 5
 1690 265 l 5
 1602 80 l 5
 1707 80 l 29
 1742 0 l 29
 982 0 l 29
792 457 m 5
 792 1514 l 5
 742 1534 l 5
 724 1452 711 1370 702 1287 c 4
 694 1215 688 1143 682 1071 c 4
 676 999 669 927 665 855 c 4
 663 819 661 783 660 747 c 4
 659 711 657 674 656 638 c 4
 655 603 653 567 651 532 c 5
 792 457 l 5
842 0 m 5
 792 0 l 5
 792 400 l 5
 594 500 l 5
 595 544 596 588 598 632 c 4
 601 703 604 775 609 846 c 4
 615 933 624 1019 633 1106 c 4
 641 1178 649 1250 659 1321 c 4
 672 1415 690 1508 712 1600 c 5
 842 1550 l 5
 842 0 l 5
398 457 m 5
 398 1514 l 5
 348 1534 l 5
 330 1452 317 1370 308 1287 c 4
 300 1215 294 1143 288 1071 c 4
 282 999 275 927 271 855 c 4
 269 819 267 783 266 747 c 4
 265 711 263 674 262 638 c 4
 261 603 259 567 257 532 c 5
 398 457 l 5
448 0 m 5
 398 0 l 5
 398 400 l 5
 200 500 l 5
 201 544 202 588 204 632 c 4
 207 703 210 775 215 846 c 4
 221 933 230 1019 239 1106 c 4
 247 1178 255 1250 265 1321 c 4
 278 1415 296 1508 318 1600 c 5
 448 1550 l 5
 448 0 l 5
EndSplineSet
Validated: 33
EndChar

StartChar: uni3088
Encoding: 12424 12424 15
Width: 2187
VWidth: 0
Flags: HW
LayerCount: 2
Fore
SplineSet
1364 825 m 4
 1364 792 1399 769 1424 758 c 4
 1451 746 1471 743 1501 743 c 4
 1530 743 1551 747 1577 759 c 4
 1598 769 1632 797 1632 825 c 4
 1632 856 1595 883 1577 891 c 4
 1551 902 1530 907 1501 907 c 4
 1471 907 1451 904 1424 892 c 4
 1399 881 1364 859 1364 825 c 4
1294 650 m 4
 1273 650 1251 644 1233 633 c 4
 1215 622 1199 608 1187 590 c 4
 1163 555 1153 511 1152 468 c 4
 1151 424 1153 380 1177 343 c 4
 1198 312 1233 280 1294 280 c 4
 1361 280 1397 311 1415 343 c 4
 1433 374 1437 424 1436 468 c 4
 1435 511 1425 555 1401 590 c 4
 1389 608 1373 622 1355 633 c 4
 1337 644 1315 650 1294 650 c 4
1838 1380 m 6
 1838 270 l 6
 1838 267 1838 265 1838 262 c 4
 1838 259 1839 257 1840 255 c 4
 1841 250 1842 246 1843 241 c 4
 1844 236 1845 231 1846 226 c 4
 1847 221 1849 217 1850 212 c 4
 1851 208 1853 203 1854 199 c 4
 1855 195 1857 190 1859 186 c 4
 1861 181 1863 177 1865 172 c 4
 1867 167 1870 163 1872 158 c 4
 1875 153 1877 149 1880 144 c 4
 1883 139 1887 134 1890 129 c 4
 1893 124 1897 119 1900 114 c 4
 1903 109 1907 105 1910 100 c 4
 1913 96 1917 91 1920 87 c 4
 1923 83 1927 79 1931 75 c 4
 1935 71 1939 68 1944 65 c 4
 1947 63 1949 62 1952 60 c 4
 1955 58 1957 57 1960 55 c 4
 1963 53 1966 52 1968 50 c 4
 1969 49 1971 48 1972 47 c 4
 1973 47 1973 46 1974 46 c 4
 1975 46 1975 45 1976 44 c 4
 1977 43 1977 43 1977 42 c 4
 1977 41 1978 41 1979 40 c 4
 1980 39 1981 38 1982 37 c 4
 1983 36 1983 36 1983 35 c 4
 1983 34 1984 33 1984 32 c 4
 1985 31 1985 29 1986 28 c 4
 1987 27 1987 25 1987 24 c 4
 1987 22 1987 21 1987 19 c 4
 1987 18 1986 16 1986 15 c 4
 1986 14 1985 13 1985 12 c 4
 1984 11 1984 10 1983 9 c 4
 1983 8 1982 8 1982 7 c 4
 1982 6 1981 6 1981 6 c 4
 1981 6 1980 5 1979 5 c 4
 1978 5 1979 4 1978 4 c 4
 1977 3 1976 3 1975 2 c 4
 1974 1 1973 1 1972 1 c 4
 1970 1 1969 0 1967 0 c 4
 1965 0 1963 -1 1961 -1 c 4
 1959 -1 1958 -1 1956 0 c 4
 1953 1 1949 2 1946 3 c 4
 1943 4 1940 6 1937 8 c 4
 1934 10 1932 12 1929 14 c 4
 1927 16 1924 19 1922 21 c 4
 1919 24 1917 26 1914 29 c 4
 1912 31 1909 34 1907 36 c 4
 1903 40 1898 45 1894 49 c 4
 1890 53 1885 57 1881 61 c 4
 1877 65 1872 69 1868 74 c 4
 1863 79 1859 84 1855 90 c 4
 1851 96 1848 101 1844 107 c 4
 1840 113 1837 118 1833 124 c 4
 1830 129 1827 135 1824 140 c 4
 1821 145 1819 151 1816 156 c 4
 1813 161 1811 167 1809 172 c 4
 1807 177 1806 182 1804 187 c 4
 1802 192 1800 197 1799 202 c 4
 1798 207 1797 213 1796 218 c 4
 1795 224 1794 229 1793 235 c 4
 1792 241 1791 247 1790 253 c 4
 1789 256 1788 258 1788 261 c 4
 1788 264 1788 267 1788 270 c 6
 1788 1380 l 6
 1785 1390 1782 1400 1778 1410 c 4
 1774 1420 1769 1430 1763 1439 c 4
 1757 1448 1750 1456 1743 1464 c 4
 1735 1473 1726 1481 1716 1489 c 4
 1707 1496 1696 1503 1686 1509 c 4
 1676 1515 1665 1521 1654 1526 c 4
 1644 1531 1633 1536 1622 1539 c 4
 1611 1542 1599 1545 1588 1547 c 4
 1577 1549 1565 1550 1554 1550 c 4
 1553 1550 1553 1550 1552 1550 c 4
 1551 1550 l 4
 1550 1550 1550 1550 1549 1550 c 4
 1537 1550 1525 1549 1513 1546 c 4
 1501 1543 1489 1540 1478 1536 c 4
 1467 1532 1456 1527 1445 1522 c 4
 1434 1517 1423 1511 1413 1505 c 4
 1403 1499 1392 1492 1383 1484 c 4
 1374 1476 1365 1468 1357 1459 c 4
 1351 1452 1345 1443 1340 1435 c 4
 1335 1426 1331 1417 1327 1408 c 4
 1324 1399 1321 1390 1319 1380 c 6
 1319 850 l 6
 1320 852 1320 853 1321 855 c 4
 1324 860 1327 865 1331 870 c 4
 1338 878 1345 887 1352 895 c 4
 1361 905 1370 914 1381 921 c 4
 1395 931 1411 939 1428 945 c 4
 1451 953 1476 956 1501 955 c 4
 1533 954 1566 947 1594 932 c 4
 1618 919 1640 901 1658 880 c 4
 1665 872 1671 864 1675 855 c 4
 1679 846 1682 835 1682 825 c 4
 1682 815 1679 804 1675 795 c 4
 1671 786 1665 777 1658 769 c 4
 1640 748 1618 730 1594 717 c 4
 1566 702 1533 695 1501 695 c 4
 1477 695 1453 697 1430 704 c 4
 1414 709 1398 716 1384 726 c 4
 1372 734 1362 744 1352 755 c 4
 1345 763 1338 771 1332 779 c 4
 1328 784 1325 789 1322 794 c 4
 1321 796 1320 798 1319 800 c 6
 1319 700 l 6
 1323 700 1326 700 1330 699 c 4
 1339 698 1348 695 1357 691 c 4
 1369 686 1380 678 1391 670 c 4
 1406 659 1419 646 1431 632 c 4
 1447 614 1460 593 1469 570 c 4
 1482 538 1486 503 1486 468 c 4
 1486 433 1484 398 1475 364 c 4
 1466 329 1447 296 1419 274 c 4
 1402 260 1381 250 1360 244 c 4
 1339 238 1316 236 1294 236 c 4
 1251 236 1208 247 1174 273 c 4
 1146 295 1127 327 1116 361 c 4
 1105 395 1101 432 1102 468 c 4
 1103 502 1107 536 1118 568 c 4
 1126 591 1137 612 1153 631 c 4
 1166 646 1181 659 1197 670 c 4
 1209 678 1221 685 1234 691 c 4
 1242 695 1250 698 1259 699 c 4
 1262 700 1266 700 1269 700 c 6
 1269 800 l 5
 992 800 l 5
 992 850 l 5
 1269 850 l 5
 1269 1380 l 6
 1271 1392 1273 1404 1277 1415 c 4
 1281 1426 1286 1437 1291 1448 c 4
 1297 1459 1303 1469 1310 1479 c 4
 1319 1491 1330 1503 1341 1513 c 4
 1352 1523 1364 1533 1377 1541 c 4
 1390 1549 1403 1557 1417 1564 c 4
 1431 1571 1445 1577 1459 1582 c 4
 1474 1587 1489 1590 1504 1594 c 4
 1519 1598 1534 1600 1549 1600 c 4
 1550 1600 1552 1600 1553 1600 c 4
 1554 1600 1555 1600 1556 1600 c 4
 1557 1600 1559 1600 1560 1600 c 4
 1574 1600 1587 1599 1601 1597 c 4
 1615 1595 1628 1592 1641 1588 c 4
 1654 1584 1667 1579 1679 1574 c 4
 1692 1568 1705 1562 1717 1554 c 4
 1729 1546 1741 1537 1752 1528 c 4
 1763 1519 1773 1509 1782 1498 c 4
 1791 1487 1800 1475 1807 1462 c 4
 1814 1449 1821 1436 1826 1422 c 4
 1831 1408 1835 1394 1838 1380 c 6
792 457 m 5
 792 1514 l 5
 742 1534 l 5
 724 1452 711 1370 702 1287 c 4
 694 1215 688 1143 682 1071 c 4
 676 999 669 927 665 855 c 4
 663 819 661 783 660 747 c 4
 659 711 657 674 656 638 c 4
 655 603 653 567 651 532 c 5
 792 457 l 5
842 0 m 5
 792 0 l 5
 792 400 l 5
 594 500 l 5
 595 544 596 588 598 632 c 4
 601 703 604 775 609 846 c 4
 615 933 624 1019 633 1106 c 4
 641 1178 649 1250 659 1321 c 4
 672 1415 690 1508 712 1600 c 5
 842 1550 l 5
 842 0 l 5
398 457 m 5
 398 1514 l 5
 348 1534 l 5
 330 1452 317 1370 308 1287 c 4
 300 1215 294 1143 288 1071 c 4
 282 999 275 927 271 855 c 4
 269 819 267 783 266 747 c 4
 265 711 263 674 262 638 c 4
 261 603 259 567 257 532 c 5
 398 457 l 5
448 0 m 5
 398 0 l 5
 398 400 l 5
 200 500 l 5
 201 544 202 588 204 632 c 4
 207 703 210 775 215 846 c 4
 221 933 230 1019 239 1106 c 4
 247 1178 255 1250 265 1321 c 4
 278 1415 296 1508 318 1600 c 5
 448 1550 l 5
 448 0 l 5
EndSplineSet
Validated: 33
EndChar

StartChar: uni3055
Encoding: 12373 12373 16
Width: 2100
VWidth: 0
Flags: HW
HStem: 0 80<326 624 674 841 891 1144> 160 70<891 1006> 180 50<674 831> 1443 62<300 356.301> 1455 66<543.012 612.988>
VStem: 470 50<919.032 1443> 543 70<1455.01 1520.99> 624 50<80 180 230 654.064> 841 50<80 160 230 481.607> 1006 50<230 434>
LayerCount: 2
Fore
SplineSet
843 1488 m 4x8fc0
 843 1507 859 1521 878 1521 c 4
 897 1521 913 1507 913 1488 c 4
 913 1469 897 1455 878 1455 c 4
 859 1455 843 1469 843 1488 c 4x8fc0
1181 230 m 5xa7c0
 1306 230 l 5xc7c0
 1306 475 l 5
 1258 541 1150 644 1058 758 c 4
 1025 799 921 948 915 1058 c 4
 912 1110 942 1163 976 1176 c 4
 1029 1196 1102 1195 1120 1197 c 5
 1053 1244 l 5
 1013 1292 1029 1265 997 1318 c 4
 972 1360 977 1415 982 1457 c 4
 990 1519 975 1544 952 1547 c 4
 923 1551 842 1522 815 1511 c 4
 755 1486 799 1505 820 1460 c 5
 820 1181 l 5
 813 1147 821 1125 819 1092 c 4
 816 1047 828 968 841 928 c 4
 863 862 909 840 958 782 c 4
 1005 726 1015 733 1060 679 c 4
 1109 621 1129 581 1158 521 c 4
 1173 490 1180 433 1181 395 c 5
 1181 230 l 5xa7c0
1766 250 m 5
 1775 320 l 5
 1775 406 1600 744 1512 858 c 4
 1452 936 1296 1089 1220 1140 c 4
 1177 1169 1053 1152 1006 1133 c 4
 966 1117 964 1087 962 1043 c 4
 960 988 1064 842 1091 803 c 4
 1118 764 1344 502 1475 407 c 4
 1526 370 1634 321 1660 310 c 4
 1746 273 1739 258 1766 250 c 5
1834 58 m 5
 1814 109 l 5
 1800 121 1758 210 1590 287 c 4
 1535 312 1421 383 1406 392 c 5
 1415 358 1453 244 1488 216 c 4
 1558 160 1592 146 1640 126 c 4
 1702 100 1813 65 1834 58 c 5
974 230 m 5xa7c0
 1131 230 l 5
 1132 418 l 5
 1136 451 1099 522 1086 548 c 4
 1066 588 1010 665 982 683 c 4
 970 691 975 566 974 437 c 5
 974 230 l 5xa7c0
1141 80 m 5
 1141 180 l 29
 974 180 l 5
 974 80 l 29
 1141 80 l 5
601 0 m 5
 626 80 l 5
 924 80 l 5
 924 730 l 5
 907 788 870 786 827 845 c 4
 794 890 763 988 766 1080 c 6
 766 1080 767 1160 770 1187 c 5
 770 1443 l 5
 600 1443 l 5
 600 1505 l 5
 816 1560 l 5
 841 1576 861 1580 888 1588 c 4
 907 1593 943 1601 962 1600 c 4
 981 1599 992 1593 1006 1580 c 4
 1052 1540 1042 1502 1029 1470 c 4
 1022 1453 1025 1373 1038 1347 c 4
 1050 1324 1124 1251 1145 1241 c 4
 1420 1110 1660 785 1773 484 c 4
 1819 361 1840 320 1808 224 c 5
 1817 200 1858 156 1876 114 c 4
 1890 81 1893 9 1900 0 c 5
 1874 0 l 6
 1854 0 1664 53 1610 80 c 4
 1566 102 1516 116 1456 174 c 4
 1433 196 1402 238 1380 316 c 4
 1377 328 1352 434 1352 434 c 6
 1356 160 l 5
 1191 160 l 5xd7c0
 1191 80 l 5
 1444 80 l 5
 1469 0 l 5
 601 0 l 5
200 0 m 29
 200 1400 l 5
 202 1477 224 1600 325 1600 c 28
 411 1600 452 1469 450 1400 c 5
 450 500 l 29
 400 500 l 29
 400 1400 l 5
 398 1431 385 1550 325 1550 c 4
 258 1550 250 1428 250 1400 c 5
 250 0 l 29
 200 0 l 29
EndSplineSet
Validated: 33
EndChar

StartChar: uni3059
Encoding: 12377 12377 17
Width: 1988
VWidth: 0
Flags: HW
LayerCount: 2
Fore
SplineSet
790 1377 m 5
 790 1377 767 1309 784 1146 c 4
 799 1005 812 954 883 784 c 4
 925 684 1011 585 1022 569 c 4
 1071 498 1126 468 1160 451 c 4
 1205 428 1386 408 1478 408 c 4
 1553 408 1632 428 1682 446 c 5
 1547 545 1547 547 1429 665 c 4
 1342 752 1250 861 1182 964 c 5
 1143 954 1113 940 1091 917 c 4
 1077 902 1073 888 1077 868 c 4
 1083 838 1093 821 1119 802 c 4
 1142 785 1152 773 1173 754 c 5
 1113 730 1043 708 984 742 c 4
 938 769 914 811 898 862 c 4
 881 917 867 967 884 1020 c 4
 889 1036 929 1043 929 1027 c 4
 929 930 941 896 963 845 c 4
 998 764 1043 769 1085 771 c 5
 1061 795 1048 811 1036 844 c 4
 1013 907 1044 939 1061 960 c 4
 1085 990 1122 992 1155 1012 c 5
 1098 1117 1098 1131 1051 1267 c 4
 1017 1365 1058 1412 1017 1496 c 4
 996 1539 961 1551 897 1550 c 4
 813 1549 802 1516 768 1457 c 4
 749 1424 780 1414 790 1377 c 5
1061 452 m 13
 1015 80 l 29
 1150 80 l 29
 1238 265 l 29
 1198 386 l 29
 1172 391 1156 398 1131 409 c 4
 1106 420 1083 437 1061 452 c 13
822 1434 m 4x8fc0
 822 1457 841 1474 864 1474 c 4
 887 1474 906 1457 906 1434 c 4
 906 1411 887 1394 864 1394 c 4
 841 1394 822 1411 822 1434 c 4x8fc0
600 0 m 29
 625 80 l 29
 955 80 l 5
 1008 500 l 5
 941 594 879 681 828 785 c 4
 782 878 772 928 744 1041 c 4
 727 1111 720 1308 740 1377 c 5
 610 1397 l 5
 610 1447 l 5
 715 1462 l 5
 757 1597 840 1610 924 1609 c 4
 995 1608 1030 1585 1068 1525 c 4
 1103 1470 1081 1386 1098 1313 c 4
 1141 1134 1171 1071 1304 901 c 4
 1400 779 1526 640 1644 540 c 4
 1728 469 1769 443 1788 437 c 5
 1760 416 1630 374 1540 362 c 4
 1442 349 1288 373 1268 373 c 5
 1308 265 l 5
 1220 80 l 5
 1325 80 l 29
 1360 0 l 29
 600 0 l 29
200 0 m 29
 200 1400 l 5
 202 1477 224 1600 325 1600 c 28
 411 1600 452 1469 450 1400 c 5
 450 500 l 29
 400 500 l 29
 400 1400 l 5
 398 1431 385 1550 325 1550 c 4
 258 1550 250 1428 250 1400 c 5
 250 0 l 29
 200 0 l 29
EndSplineSet
Validated: 33
EndChar

StartChar: uni305B
Encoding: 12379 12379 18
Width: 1048
VWidth: 0
Flags: HW
LayerCount: 2
Fore
SplineSet
798 457 m 5
 798 1514 l 5
 748 1534 l 5
 730 1452 717 1370 708 1287 c 4
 700 1215 694 1143 688 1071 c 4
 682 999 675 927 671 855 c 4
 669 819 667 783 666 747 c 4
 665 711 663 674 662 638 c 4
 661 603 659 567 657 532 c 5
 798 457 l 5
848 0 m 5
 798 0 l 5
 798 400 l 5
 600 500 l 5
 601 544 602 588 604 632 c 4
 607 703 610 775 615 846 c 4
 621 933 630 1019 639 1106 c 4
 647 1178 655 1250 665 1321 c 4
 678 1415 696 1508 718 1600 c 5
 848 1550 l 5
 848 0 l 5
200 0 m 29
 200 1400 l 5
 202 1477 224 1600 325 1600 c 28
 411 1600 452 1469 450 1400 c 5
 450 500 l 29
 400 500 l 29
 400 1400 l 5
 398 1431 385 1550 325 1550 c 4
 258 1550 250 1428 250 1400 c 5
 250 0 l 29
 200 0 l 29
EndSplineSet
Validated: 33
EndChar

StartChar: uni305D
Encoding: 12381 12381 19
Width: 1795
VWidth: 0
Flags: HW
HStem: 1 46<1544.73 1589> 236 44<826.08 984.571> 650 50<829.496 877 927 974.504> 695 48<1014.8 1197.95> 800 50<600 877> 907 48<1014.63 1198.03> 1550 50<282.276 365.319 1059.78 1263.57>
VStem: 200 50<0 1513.32> 400 50<500 1505.94> 710 50<344.739 572.973> 877 50<700 800 850 1440.78> 1044 50<344.467 572.973> 1240 50<780.472 870.191> 1396 50<176.922 1438.63>
LayerCount: 2
Fore
SplineSet
972 825 m 4xdffc
 972 792 1007 769 1032 758 c 4
 1059 746 1079 743 1109 743 c 4
 1138 743 1159 747 1185 759 c 4
 1206 769 1240 797 1240 825 c 4
 1240 856 1203 883 1185 891 c 4
 1159 902 1138 907 1109 907 c 4
 1079 907 1059 904 1032 892 c 4
 1007 881 972 859 972 825 c 4xdffc
902 650 m 4xeffc
 881 650 859 644 841 633 c 4
 823 622 807 608 795 590 c 4
 771 555 761 511 760 468 c 4
 759 424 761 380 785 343 c 4
 806 312 841 280 902 280 c 4
 969 280 1005 311 1023 343 c 4
 1041 374 1045 424 1044 468 c 4
 1043 511 1033 555 1009 590 c 4
 997 608 981 622 963 633 c 4
 945 644 923 650 902 650 c 4xeffc
1446 1380 m 6
 1446 270 l 6
 1446 267 1446 265 1446 262 c 4
 1446 259 1447 257 1448 255 c 4
 1449 250 1450 246 1451 241 c 4
 1452 236 1453 231 1454 226 c 4
 1455 221 1457 217 1458 212 c 4
 1459 208 1461 203 1462 199 c 4
 1463 195 1465 190 1467 186 c 4
 1469 181 1471 177 1473 172 c 4
 1475 167 1478 163 1480 158 c 4
 1483 153 1485 149 1488 144 c 4
 1491 139 1495 134 1498 129 c 4
 1501 124 1505 119 1508 114 c 4
 1511 109 1515 105 1518 100 c 4
 1521 96 1525 91 1528 87 c 4
 1531 83 1535 79 1539 75 c 4
 1543 71 1547 68 1552 65 c 4
 1555 63 1557 62 1560 60 c 4
 1563 58 1565 57 1568 55 c 4
 1571 53 1574 52 1576 50 c 4
 1577 49 1579 48 1580 47 c 4
 1581 47 1581 46 1582 46 c 4
 1583 46 1583 45 1584 44 c 4
 1585 43 1585 43 1585 42 c 4
 1585 41 1586 41 1587 40 c 4
 1588 39 1589 38 1590 37 c 4
 1591 36 1591 36 1591 35 c 4
 1591 34 1592 33 1592 32 c 4
 1593 31 1593 29 1594 28 c 4
 1595 27 1595 25 1595 24 c 4
 1595 22 1595 21 1595 19 c 4
 1595 18 1594 16 1594 15 c 4
 1594 14 1593 13 1593 12 c 4
 1592 11 1592 10 1591 9 c 4
 1591 8 1590 8 1590 7 c 4
 1590 6 1589 6 1589 6 c 4
 1589 6 1588 5 1587 5 c 4
 1586 5 1587 4 1586 4 c 4
 1585 3 1584 3 1583 2 c 4
 1582 1 1581 1 1580 1 c 4
 1578 1 1577 0 1575 0 c 4
 1573 0 1571 -1 1569 -1 c 4
 1567 -1 1566 -1 1564 0 c 4
 1561 1 1557 2 1554 3 c 4
 1551 4 1548 6 1545 8 c 4
 1542 10 1540 12 1537 14 c 4
 1535 16 1532 19 1530 21 c 4
 1527 24 1525 26 1522 29 c 4
 1520 31 1517 34 1515 36 c 4
 1511 40 1506 45 1502 49 c 4
 1498 53 1493 57 1489 61 c 4
 1485 65 1480 69 1476 74 c 4
 1471 79 1467 84 1463 90 c 4
 1459 96 1456 101 1452 107 c 4
 1448 113 1445 118 1441 124 c 4
 1438 129 1435 135 1432 140 c 4
 1429 145 1427 151 1424 156 c 4
 1421 161 1419 167 1417 172 c 4
 1415 177 1414 182 1412 187 c 4
 1410 192 1408 197 1407 202 c 4
 1406 207 1405 213 1404 218 c 4
 1403 224 1402 229 1401 235 c 4
 1400 241 1399 247 1398 253 c 4
 1397 256 1396 258 1396 261 c 4
 1396 264 1396 267 1396 270 c 6
 1396 1380 l 6
 1393 1390 1390 1400 1386 1410 c 4
 1382 1420 1377 1430 1371 1439 c 4
 1365 1448 1358 1456 1351 1464 c 4
 1343 1473 1334 1481 1324 1489 c 4
 1315 1496 1304 1503 1294 1509 c 4
 1284 1515 1273 1521 1262 1526 c 4
 1252 1531 1241 1536 1230 1539 c 4
 1219 1542 1207 1545 1196 1547 c 4
 1185 1549 1173 1550 1162 1550 c 4
 1161 1550 1161 1550 1160 1550 c 4
 1159 1550 l 4
 1158 1550 1158 1550 1157 1550 c 4
 1145 1550 1133 1549 1121 1546 c 4
 1109 1543 1097 1540 1086 1536 c 4
 1075 1532 1064 1527 1053 1522 c 4
 1042 1517 1031 1511 1021 1505 c 4
 1011 1499 1000 1492 991 1484 c 4
 982 1476 973 1468 965 1459 c 4
 959 1452 953 1443 948 1435 c 4
 943 1426 939 1417 935 1408 c 4
 932 1399 929 1390 927 1380 c 6
 927 850 l 6
 928 852 928 853 929 855 c 4
 932 860 935 865 939 870 c 4
 946 878 953 887 960 895 c 4
 969 905 978 914 989 921 c 4
 1003 931 1019 939 1036 945 c 4
 1059 953 1084 956 1109 955 c 4
 1141 954 1174 947 1202 932 c 4
 1226 919 1248 901 1266 880 c 4
 1273 872 1279 864 1283 855 c 4
 1287 846 1290 835 1290 825 c 4
 1290 815 1287 804 1283 795 c 4
 1279 786 1273 777 1266 769 c 4
 1248 748 1226 730 1202 717 c 4
 1174 702 1141 695 1109 695 c 4xdffc
 1085 695 1061 697 1038 704 c 4
 1022 709 1006 716 992 726 c 4
 980 734 970 744 960 755 c 4
 953 763 946 771 940 779 c 4
 936 784 933 789 930 794 c 4
 929 796 928 798 927 800 c 6
 927 700 l 6
 931 700 934 700 938 699 c 4
 947 698 956 695 965 691 c 4
 977 686 988 678 999 670 c 4
 1014 659 1027 646 1039 632 c 4
 1055 614 1068 593 1077 570 c 4
 1090 538 1094 503 1094 468 c 4
 1094 433 1092 398 1083 364 c 4
 1074 329 1055 296 1027 274 c 4
 1010 260 989 250 968 244 c 4
 947 238 924 236 902 236 c 4
 859 236 816 247 782 273 c 4
 754 295 735 327 724 361 c 4
 713 395 709 432 710 468 c 4
 711 502 715 536 726 568 c 4
 734 591 745 612 761 631 c 4
 774 646 789 659 805 670 c 4
 817 678 829 685 842 691 c 4
 850 695 858 698 867 699 c 4
 870 700 874 700 877 700 c 6
 877 800 l 5
 600 800 l 5
 600 850 l 5
 877 850 l 5
 877 1380 l 6
 879 1392 881 1404 885 1415 c 4
 889 1426 894 1437 899 1448 c 4
 905 1459 911 1469 918 1479 c 4
 927 1491 938 1503 949 1513 c 4
 960 1523 972 1533 985 1541 c 4
 998 1549 1011 1557 1025 1564 c 4
 1039 1571 1053 1577 1067 1582 c 4
 1082 1587 1097 1590 1112 1594 c 4
 1127 1598 1142 1600 1157 1600 c 4
 1158 1600 1160 1600 1161 1600 c 4
 1162 1600 1163 1600 1164 1600 c 4
 1165 1600 1167 1600 1168 1600 c 4
 1182 1600 1195 1599 1209 1597 c 4
 1223 1595 1236 1592 1249 1588 c 4
 1262 1584 1275 1579 1287 1574 c 4
 1300 1568 1313 1562 1325 1554 c 4
 1337 1546 1349 1537 1360 1528 c 4
 1371 1519 1381 1509 1390 1498 c 4
 1399 1487 1408 1475 1415 1462 c 4
 1422 1449 1429 1436 1434 1422 c 4
 1439 1408 1443 1394 1446 1380 c 6
200 0 m 25
 200 1400 l 1
 202 1477 224 1600 325 1600 c 24
 411 1600 452 1469 450 1400 c 1
 450 500 l 25
 400 500 l 25
 400 1400 l 1
 398 1431 385 1550 325 1550 c 0
 258 1550 250 1428 250 1400 c 1
 250 0 l 25
 200 0 l 25
EndSplineSet
Validated: 33
EndChar

StartChar: uni3057
Encoding: 12375 12375 20
Width: 1500
VWidth: 0
Flags: HW
LayerCount: 2
Fore
SplineSet
1250 900 m 29
 250 900 l 29
 250 700 l 29
 1250 700 l 29
 1250 900 l 29
200 650 m 29
 200 950 l 29
 1300 950 l 29
 1300 650 l 29
 200 650 l 29
EndSplineSet
Validated: 1
EndChar

StartChar: uni305F
Encoding: 12383 12383 21
Width: 2581
VWidth: 0
Flags: HW
LayerCount: 2
Fore
SplineSet
1324 1488 m 0x8fc0
 1324 1507 1340 1521 1359 1521 c 0
 1378 1521 1394 1507 1394 1488 c 0
 1394 1469 1378 1455 1359 1455 c 0
 1340 1455 1324 1469 1324 1488 c 0x8fc0
1662 230 m 1xa7c0
 1787 230 l 1xc7c0
 1787 475 l 1
 1739 541 1631 644 1539 758 c 0
 1506 799 1402 948 1396 1058 c 0
 1393 1110 1423 1163 1457 1176 c 0
 1510 1196 1583 1195 1601 1197 c 1
 1534 1244 l 1
 1494 1292 1510 1265 1478 1318 c 0
 1453 1360 1458 1415 1463 1457 c 0
 1471 1519 1456 1544 1433 1547 c 0
 1404 1551 1323 1522 1296 1511 c 0
 1236 1486 1280 1505 1301 1460 c 1
 1301 1181 l 1
 1294 1147 1302 1125 1300 1092 c 0
 1297 1047 1309 968 1322 928 c 0
 1344 862 1390 840 1439 782 c 0
 1486 726 1496 733 1541 679 c 0
 1590 621 1610 581 1639 521 c 0
 1654 490 1661 433 1662 395 c 1
 1662 230 l 1xa7c0
2247 250 m 1
 2256 320 l 1
 2256 406 2081 744 1993 858 c 0
 1933 936 1777 1089 1701 1140 c 0
 1658 1169 1534 1152 1487 1133 c 0
 1447 1117 1445 1087 1443 1043 c 0
 1441 988 1545 842 1572 803 c 0
 1599 764 1825 502 1956 407 c 0
 2007 370 2115 321 2141 310 c 0
 2227 273 2220 258 2247 250 c 1
2315 58 m 1
 2295 109 l 1
 2281 121 2239 210 2071 287 c 0
 2016 312 1902 383 1887 392 c 1
 1896 358 1934 244 1969 216 c 0
 2039 160 2073 146 2121 126 c 0
 2183 100 2294 65 2315 58 c 1
1455 230 m 1xa7c0
 1612 230 l 1
 1613 418 l 1
 1617 451 1580 522 1567 548 c 0
 1547 588 1491 665 1463 683 c 0
 1451 691 1456 566 1455 437 c 1
 1455 230 l 1xa7c0
1622 80 m 1
 1622 180 l 25
 1455 180 l 1
 1455 80 l 25
 1622 80 l 1
1082 0 m 1
 1107 80 l 1
 1405 80 l 1
 1405 730 l 1
 1388 788 1351 786 1308 845 c 0
 1275 890 1244 988 1247 1080 c 2
 1247 1080 1248 1160 1251 1187 c 1
 1251 1443 l 1
 1081 1443 l 1
 1081 1505 l 1
 1297 1560 l 1
 1322 1576 1342 1580 1369 1588 c 0
 1388 1593 1424 1601 1443 1600 c 0
 1462 1599 1473 1593 1487 1580 c 0
 1533 1540 1523 1502 1510 1470 c 0
 1503 1453 1506 1373 1519 1347 c 0
 1531 1324 1605 1251 1626 1241 c 0
 1901 1110 2141 785 2254 484 c 0
 2300 361 2321 320 2289 224 c 1
 2298 200 2339 156 2357 114 c 0
 2371 81 2374 9 2381 0 c 1
 2355 0 l 2
 2335 0 2145 53 2091 80 c 0
 2047 102 1997 116 1937 174 c 0
 1914 196 1883 238 1861 316 c 0
 1858 328 1833 434 1833 434 c 2
 1837 160 l 1
 1672 160 l 1xd7c0
 1672 80 l 1
 1925 80 l 1
 1950 0 l 1
 1082 0 l 1
270 650 m 13
 930 650 l 21
 906 798 802 952 610 950 c 4
 422 948 306 790 270 650 c 13
1000 600 m 13
 200 600 l 21
 242 750 338 1000 610 1000 c 4
 912 1000 966 742 1000 600 c 13
EndSplineSet
Validated: 33
EndChar

StartChar: uni3064
Encoding: 12388 12388 22
Width: 2434
VWidth: 0
Flags: W
HStem: 0 80<1071 1401 1461 1596 1666 1771> 373 35<1718.67 2058.1> 600 50<270 930> 950 50<494.925 730.601> 1394 80<1268.01 1351.99> 1397 50<1056 1149.18> 1550 59<1256.65 1445.73>
VStem: 1268 84<1394.01 1473.99> 1330 45<874.803 1032.35>
LayerCount: 2
Fore
SplineSet
1236 1377 m 5xf280
 1236 1377 1213 1309 1230 1146 c 4
 1245 1005 1258 954 1329 784 c 4
 1371 684 1457 585 1468 569 c 4
 1517 498 1572 468 1606 451 c 4
 1651 428 1832 408 1924 408 c 4
 1999 408 2078 428 2128 446 c 5
 1993 545 1993 547 1875 665 c 4
 1788 752 1696 861 1628 964 c 5
 1589 954 1559 940 1537 917 c 4
 1523 902 1519 888 1523 868 c 4
 1529 838 1539 821 1565 802 c 4
 1588 785 1598 773 1619 754 c 5
 1559 730 1489 708 1430 742 c 4
 1384 769 1360 811 1344 862 c 4
 1327 917 1313 967 1330 1020 c 4
 1335 1036 1375 1043 1375 1027 c 4
 1375 930 1387 896 1409 845 c 4
 1444 764 1489 769 1531 771 c 5
 1507 795 1494 811 1482 844 c 4
 1459 907 1490 939 1507 960 c 4
 1531 990 1568 992 1601 1012 c 5
 1544 1117 1544 1131 1497 1267 c 4
 1463 1365 1504 1412 1463 1496 c 4
 1442 1539 1407 1551 1343 1550 c 4
 1259 1549 1248 1516 1214 1457 c 4
 1195 1424 1226 1414 1236 1377 c 5xf280
1507 452 m 13
 1461 80 l 29
 1596 80 l 29
 1684 265 l 29
 1644 386 l 29
 1618 391 1602 398 1577 409 c 4
 1552 420 1529 437 1507 452 c 13
1268 1434 m 4xfb
 1268 1457 1287 1474 1310 1474 c 4
 1333 1474 1352 1457 1352 1434 c 4
 1352 1411 1333 1394 1310 1394 c 4
 1287 1394 1268 1411 1268 1434 c 4xfb
1046 0 m 29
 1071 80 l 29
 1401 80 l 5
 1454 500 l 5
 1387 594 1325 681 1274 785 c 4
 1228 878 1218 928 1190 1041 c 4
 1173 1111 1166 1308 1186 1377 c 5
 1056 1397 l 5
 1056 1447 l 5xf6
 1161 1462 l 5
 1203 1597 1286 1610 1370 1609 c 4
 1441 1608 1476 1585 1514 1525 c 4
 1549 1470 1527 1386 1544 1313 c 4
 1587 1134 1617 1071 1750 901 c 4
 1846 779 1972 640 2090 540 c 4
 2174 469 2215 443 2234 437 c 5
 2206 416 2076 374 1986 362 c 4
 1888 349 1734 373 1714 373 c 5
 1754 265 l 5
 1666 80 l 5
 1771 80 l 29
 1806 0 l 29
 1046 0 l 29
270 650 m 13
 930 650 l 21
 906 798 802 952 610 950 c 4
 422 948 306 790 270 650 c 13
1000 600 m 13
 200 600 l 21
 242 750 338 1000 610 1000 c 4
 912 1000 966 742 1000 600 c 13
EndSplineSet
Validated: 33
EndChar

StartChar: uni3066
Encoding: 12390 12390 23
Width: 1548
VWidth: 0
Flags: HW
HStem: 0 21G<398 448>
VStem: 204 58<533.641 1028.73> 398 50<0 400 457 1514>
LayerCount: 2
Fore
SplineSet
1298 457 m 5
 1298 1514 l 5
 1248 1534 l 5
 1230 1452 1217 1370 1208 1287 c 4
 1200 1215 1194 1143 1188 1071 c 4
 1182 999 1175 927 1171 855 c 4
 1169 819 1167 783 1166 747 c 4
 1165 711 1163 674 1162 638 c 4
 1161 603 1159 567 1157 532 c 5
 1298 457 l 5
1348 0 m 5
 1298 0 l 5
 1298 400 l 5
 1100 500 l 5
 1101 544 1102 588 1104 632 c 4
 1107 703 1110 775 1115 846 c 4
 1121 933 1130 1019 1139 1106 c 4
 1147 1178 1155 1250 1165 1321 c 4
 1178 1415 1196 1508 1218 1600 c 5
 1348 1550 l 5
 1348 0 l 5
270 650 m 13
 930 650 l 21
 906 798 802 952 610 950 c 4
 422 948 306 790 270 650 c 13
1000 600 m 13
 200 600 l 21
 242 750 338 1000 610 1000 c 4
 912 1000 966 742 1000 600 c 13
EndSplineSet
Validated: 33
EndChar

StartChar: uni3068
Encoding: 12392 12392 24
Width: 2295
VWidth: 0
Flags: HW
HStem: 236 44<436.715 570.905> 650 50<428.992 476.813 526.813 574.376> 695 50<601.871 804.017> 800 50<199.813 476.813> 905 50<602.981 804.016> 1550.06 50.1658<660.51 863.364>
VStem: 309.813 50<357.306 570.624> 476.813 50<700 800 850 1441.32> 643.813 50<360.401 572.227> 839.813 50<774.992 876.449> 995.813 50<176.898 1437.07>
LayerCount: 2
Fore
SplineSet
1472 825 m 4
 1472 792 1507 769 1532 758 c 4
 1559 746 1579 743 1609 743 c 4
 1638 743 1659 747 1685 759 c 4
 1706 769 1740 797 1740 825 c 4
 1740 856 1703 883 1685 891 c 4
 1659 902 1638 907 1609 907 c 4
 1579 907 1559 904 1532 892 c 4
 1507 881 1472 859 1472 825 c 4
1402 650 m 4
 1381 650 1359 644 1341 633 c 4
 1323 622 1307 608 1295 590 c 4
 1271 555 1261 511 1260 468 c 4
 1259 424 1261 380 1285 343 c 4
 1306 312 1341 280 1402 280 c 4
 1469 280 1505 311 1523 343 c 4
 1541 374 1545 424 1544 468 c 4
 1543 511 1533 555 1509 590 c 4
 1497 608 1481 622 1463 633 c 4
 1445 644 1423 650 1402 650 c 4
1946 1380 m 6
 1946 270 l 6
 1946 267 1946 265 1946 262 c 4
 1946 259 1947 257 1948 255 c 4
 1949 250 1950 246 1951 241 c 4
 1952 236 1953 231 1954 226 c 4
 1955 221 1957 217 1958 212 c 4
 1959 208 1961 203 1962 199 c 4
 1963 195 1965 190 1967 186 c 4
 1969 181 1971 177 1973 172 c 4
 1975 167 1978 163 1980 158 c 4
 1983 153 1985 149 1988 144 c 4
 1991 139 1995 134 1998 129 c 4
 2001 124 2005 119 2008 114 c 4
 2011 109 2015 105 2018 100 c 4
 2021 96 2025 91 2028 87 c 4
 2031 83 2035 79 2039 75 c 4
 2043 71 2047 68 2052 65 c 4
 2055 63 2057 62 2060 60 c 4
 2063 58 2065 57 2068 55 c 4
 2071 53 2074 52 2076 50 c 4
 2077 49 2079 48 2080 47 c 4
 2081 47 2081 46 2082 46 c 4
 2083 46 2083 45 2084 44 c 4
 2085 43 2085 43 2085 42 c 4
 2085 41 2086 41 2087 40 c 4
 2088 39 2089 38 2090 37 c 4
 2091 36 2091 36 2091 35 c 4
 2091 34 2092 33 2092 32 c 4
 2093 31 2093 29 2094 28 c 4
 2095 27 2095 25 2095 24 c 4
 2095 22 2095 21 2095 19 c 4
 2095 18 2094 16 2094 15 c 4
 2094 14 2093 13 2093 12 c 4
 2092 11 2092 10 2091 9 c 4
 2091 8 2090 8 2090 7 c 4
 2090 6 2089 6 2089 6 c 4
 2089 6 2088 5 2087 5 c 4
 2086 5 2087 4 2086 4 c 4
 2085 3 2084 3 2083 2 c 4
 2082 1 2081 1 2080 1 c 4
 2078 1 2077 0 2075 0 c 4
 2073 0 2071 -1 2069 -1 c 4
 2067 -1 2066 -1 2064 0 c 4
 2061 1 2057 2 2054 3 c 4
 2051 4 2048 6 2045 8 c 4
 2042 10 2040 12 2037 14 c 4
 2035 16 2032 19 2030 21 c 4
 2027 24 2025 26 2022 29 c 4
 2020 31 2017 34 2015 36 c 4
 2011 40 2006 45 2002 49 c 4
 1998 53 1993 57 1989 61 c 4
 1985 65 1980 69 1976 74 c 4
 1971 79 1967 84 1963 90 c 4
 1959 96 1956 101 1952 107 c 4
 1948 113 1945 118 1941 124 c 4
 1938 129 1935 135 1932 140 c 4
 1929 145 1927 151 1924 156 c 4
 1921 161 1919 167 1917 172 c 4
 1915 177 1914 182 1912 187 c 4
 1910 192 1908 197 1907 202 c 4
 1906 207 1905 213 1904 218 c 4
 1903 224 1902 229 1901 235 c 4
 1900 241 1899 247 1898 253 c 4
 1897 256 1896 258 1896 261 c 4
 1896 264 1896 267 1896 270 c 6
 1896 1380 l 6
 1893 1390 1890 1400 1886 1410 c 4
 1882 1420 1877 1430 1871 1439 c 4
 1865 1448 1858 1456 1851 1464 c 4
 1843 1473 1834 1481 1824 1489 c 4
 1815 1496 1804 1503 1794 1509 c 4
 1784 1515 1773 1521 1762 1526 c 4
 1752 1531 1741 1536 1730 1539 c 4
 1719 1542 1707 1545 1696 1547 c 4
 1685 1549 1673 1550 1662 1550 c 4
 1661 1550 1661 1550 1660 1550 c 4
 1659 1550 l 4
 1658 1550 1658 1550 1657 1550 c 4
 1645 1550 1633 1549 1621 1546 c 4
 1609 1543 1597 1540 1586 1536 c 4
 1575 1532 1564 1527 1553 1522 c 4
 1542 1517 1531 1511 1521 1505 c 4
 1511 1499 1500 1492 1491 1484 c 4
 1482 1476 1473 1468 1465 1459 c 4
 1459 1452 1453 1443 1448 1435 c 4
 1443 1426 1439 1417 1435 1408 c 4
 1432 1399 1429 1390 1427 1380 c 6
 1427 850 l 6
 1428 852 1428 853 1429 855 c 4
 1432 860 1435 865 1439 870 c 4
 1446 878 1453 887 1460 895 c 4
 1469 905 1478 914 1489 921 c 4
 1503 931 1519 939 1536 945 c 4
 1559 953 1584 956 1609 955 c 4
 1641 954 1674 947 1702 932 c 4
 1726 919 1748 901 1766 880 c 4
 1773 872 1779 864 1783 855 c 4
 1787 846 1790 835 1790 825 c 4
 1790 815 1787 804 1783 795 c 4
 1779 786 1773 777 1766 769 c 4
 1748 748 1726 730 1702 717 c 4
 1674 702 1641 695 1609 695 c 4
 1585 695 1561 697 1538 704 c 4
 1522 709 1506 716 1492 726 c 4
 1480 734 1470 744 1460 755 c 4
 1453 763 1446 771 1440 779 c 4
 1436 784 1433 789 1430 794 c 4
 1429 796 1428 798 1427 800 c 6
 1427 700 l 6
 1431 700 1434 700 1438 699 c 4
 1447 698 1456 695 1465 691 c 4
 1477 686 1488 678 1499 670 c 4
 1514 659 1527 646 1539 632 c 4
 1555 614 1568 593 1577 570 c 4
 1590 538 1594 503 1594 468 c 4
 1594 433 1592 398 1583 364 c 4
 1574 329 1555 296 1527 274 c 4
 1510 260 1489 250 1468 244 c 4
 1447 238 1424 236 1402 236 c 4
 1359 236 1316 247 1282 273 c 4
 1254 295 1235 327 1224 361 c 4
 1213 395 1209 432 1210 468 c 4
 1211 502 1215 536 1226 568 c 4
 1234 591 1245 612 1261 631 c 4
 1274 646 1289 659 1305 670 c 4
 1317 678 1329 685 1342 691 c 4
 1350 695 1358 698 1367 699 c 4
 1370 700 1374 700 1377 700 c 6
 1377 800 l 5
 1100 800 l 5
 1100 850 l 5
 1377 850 l 5
 1377 1380 l 6
 1379 1392 1381 1404 1385 1415 c 4
 1389 1426 1394 1437 1399 1448 c 4
 1405 1459 1411 1469 1418 1479 c 4
 1427 1491 1438 1503 1449 1513 c 4
 1460 1523 1472 1533 1485 1541 c 4
 1498 1549 1511 1557 1525 1564 c 4
 1539 1571 1553 1577 1567 1582 c 4
 1582 1587 1597 1590 1612 1594 c 4
 1627 1598 1642 1600 1657 1600 c 4
 1658 1600 1660 1600 1661 1600 c 4
 1662 1600 1663 1600 1664 1600 c 4
 1665 1600 1667 1600 1668 1600 c 4
 1682 1600 1695 1599 1709 1597 c 4
 1723 1595 1736 1592 1749 1588 c 4
 1762 1584 1775 1579 1787 1574 c 4
 1800 1568 1813 1562 1825 1554 c 4
 1837 1546 1849 1537 1860 1528 c 4
 1871 1519 1881 1509 1890 1498 c 4
 1899 1487 1908 1475 1915 1462 c 4
 1922 1449 1929 1436 1934 1422 c 4
 1939 1408 1943 1394 1946 1380 c 6
270 650 m 13
 930 650 l 21
 906 798 802 952 610 950 c 4
 422 948 306 790 270 650 c 13
1000 600 m 13
 200 600 l 21
 242 750 338 1000 610 1000 c 4
 912 1000 966 742 1000 600 c 13
EndSplineSet
Validated: 33
EndChar

StartChar: uni3061
Encoding: 12385 12385 25
Width: 1500
VWidth: 0
Flags: HW
LayerCount: 2
Fore
SplineSet
350 675 m 4
 350 704 329 710 300 710 c 28
 269 710 250 706 250 675 c 4
 250 646 271 640 300 640 c 28
 330 640 350 645 350 675 c 4
350 925 m 28
 350 954 329 960 300 960 c 4
 269 960 250 955 250 925 c 28
 250 895 270 890 300 890 c 4
 327 890 350 898 350 925 c 28
400 950 m 5
 1150 950 l 5
 1212 944 1294 960 1300 800 c 4
 1307 624 1218 656 1150 650 c 5
 400 650 l 5
 370 628 388 590 300 590 c 4
 239 590 200 612 200 675 c 4
 200 741 233 760 300 760 c 4
 384 760 367 717 400 700 c 5
 1150 700 l 5
 1226 700 1248 693 1250 800 c 4
 1252 900 1208 896 1150 900 c 5
 400 900 l 5
 364 875 388 840 300 840 c 4
 242 840 200 859 200 925 c 4
 200 992 233 1010 300 1010 c 4
 370 1010 367 978 400 950 c 5
EndSplineSet
Validated: 33
EndChar

StartChar: uni306B
Encoding: 12395 12395 26
Width: 1600
VWidth: 0
Flags: HW
LayerCount: 2
Fore
SplineSet
730 700 m 29
 800 700 l 29
 1200 0 l 29
 1130 0 l 29
 730 700 l 29
470 700 m 29
 540 700 l 29
 940 0 l 29
 870 0 l 29
 470 700 l 29
200 1548 m 1
 300 1638 l 25
 400 1548 l 25
 500 1638 l 25
 600 1548 l 25
 700 1638 l 25
 800 1548 l 25
 900 1638 l 25
 1000 1548 l 25
 1100 1638 l 25
 1200 1548 l 25
 1300 1638 l 1
 1400 1548 l 1
 1400 1488 l 1
 1300 1578 l 1
 1200 1488 l 1
 1100 1578 l 25
 1000 1488 l 25
 900 1578 l 25
 800 1488 l 1
 700 1578 l 25
 600 1488 l 1
 500 1578 l 25
 400 1488 l 1
 300 1578 l 1
 200 1488 l 1
 200 1548 l 1
EndSplineSet
Validated: 1
EndChar

StartChar: uni306C
Encoding: 12396 12396 27
Width: 1600
VWidth: 0
Flags: HW
LayerCount: 2
Fore
SplineSet
444 1240 m 5
 444 1240 424 1179 439 1032 c 4
 453 905 464 859 528 706 c 4
 566 616 643 527 653 513 c 4
 697 449 746 421 777 406 c 4
 817 385 981 368 1064 368 c 4
 1132 368 1202 386 1247 402 c 5
 1125 491 1126 493 1020 599 c 4
 942 677 858 775 797 868 c 5
 762 859 735 847 715 826 c 4
 702 812 699 800 703 782 c 4
 708 755 717 739 740 722 c 4
 761 707 770 696 789 679 c 5
 735 657 672 637 619 668 c 4
 578 692 556 730 542 776 c 4
 527 826 514 870 529 918 c 4
 533 932 570 939 570 925 c 4
 570 838 580 807 600 761 c 4
 632 688 672 692 710 694 c 5
 688 716 677 730 666 760 c 4
 645 817 673 845 688 864 c 4
 710 891 743 893 773 911 c 5
 722 1005 721 1019 679 1141 c 4
 648 1229 686 1271 649 1347 c 4
 630 1386 599 1396 541 1395 c 4
 465 1394 456 1365 425 1312 c 4
 408 1282 435 1273 444 1240 c 5
688 407 m 13
 647 72 l 29
 768 72 l 29
 848 239 l 29
 812 348 l 29
 789 352 773 359 751 369 c 4
 729 379 708 393 688 407 c 13
473 1291 m 4x8fc0
 473 1312 490 1327 511 1327 c 4
 532 1327 549 1312 549 1291 c 4
 549 1270 532 1255 511 1255 c 4
 490 1255 473 1270 473 1291 c 4x8fc0
273 0 m 29
 296 72 l 29
 593 72 l 5
 641 450 l 5
 581 535 525 613 479 707 c 4
 438 791 428 835 403 937 c 4
 388 1000 381 1178 399 1240 c 5
 282 1258 l 5
 282 1303 l 5
 377 1316 l 5
 415 1438 489 1450 565 1449 c 4
 629 1448 661 1427 695 1373 c 4
 727 1323 707 1248 722 1182 c 4
 761 1021 787 964 907 811 c 4
 993 701 1107 576 1213 486 c 4
 1289 422 1326 399 1343 394 c 5
 1318 375 1200 337 1119 326 c 4
 1031 314 893 336 875 336 c 5
 911 239 l 5
 831 72 l 5
 926 72 l 29
 957 0 l 29
 273 0 l 29
200 1548 m 1
 300 1638 l 25
 400 1548 l 25
 500 1638 l 25
 600 1548 l 25
 700 1638 l 25
 800 1548 l 25
 900 1638 l 25
 1000 1548 l 25
 1100 1638 l 25
 1200 1548 l 25
 1300 1638 l 1
 1400 1548 l 1
 1400 1488 l 1
 1300 1578 l 1
 1200 1488 l 1
 1100 1578 l 25
 1000 1488 l 25
 900 1578 l 25
 800 1488 l 1
 700 1578 l 25
 600 1488 l 1
 500 1578 l 25
 400 1488 l 1
 300 1578 l 1
 200 1488 l 1
 200 1548 l 1
EndSplineSet
Validated: 33
EndChar

StartChar: uni306E
Encoding: 12398 12398 28
Width: 1600
VWidth: 0
Flags: HW
LayerCount: 2
Fore
SplineSet
634 742 m 4
 634 712 666 692 688 682 c 4
 712 671 730 669 757 669 c 4
 783 669 802 672 825 683 c 4
 844 692 875 717 875 742 c 4
 875 770 841 795 825 802 c 4
 802 812 783 816 757 816 c 4
 730 816 712 814 688 803 c 4
 666 793 634 773 634 742 c 4
571 585 m 4
 552 585 532 580 516 570 c 4
 500 560 485 547 474 531 c 4
 452 499 444 460 443 421 c 4
 442 381 443 342 465 309 c 4
 484 281 516 252 571 252 c 4
 631 252 663 280 679 309 c 4
 695 337 699 381 698 421 c 4
 697 460 689 499 667 531 c 4
 656 547 641 560 625 570 c 4
 609 580 590 585 571 585 c 4
1060 1242 m 6
 1060 243 l 6
 1060 240 1060 239 1060 236 c 4
 1060 233 1061 231 1062 229 c 4
 1063 225 1064 221 1065 217 c 4
 1066 213 1066 207 1067 203 c 4
 1068 199 1070 195 1071 191 c 4
 1072 187 1074 183 1075 179 c 4
 1076 175 1077 171 1079 167 c 4
 1081 163 1082 159 1084 155 c 4
 1086 151 1089 146 1091 142 c 4
 1094 138 1095 134 1098 130 c 4
 1101 126 1104 120 1107 116 c 4
 1110 112 1113 107 1116 103 c 4
 1119 99 1122 94 1125 90 c 4
 1128 86 1131 82 1134 78 c 4
 1137 74 1140 71 1144 67 c 4
 1148 63 1152 61 1156 58 c 4
 1159 56 1160 56 1163 54 c 4
 1166 52 1167 51 1170 49 c 4
 1173 47 1175 47 1177 45 c 4
 1178 44 1180 43 1181 42 c 4
 1182 42 1182 41 1183 41 c 4
 1184 41 1183 41 1184 40 c 4
 1185 39 1185 39 1185 38 c 4
 1185 37 1186 37 1187 36 c 4
 1188 35 1189 34 1190 33 c 4
 1191 32 1191 32 1191 31 c 4
 1191 30 1192 30 1192 29 c 4
 1193 28 1192 26 1193 25 c 4
 1194 24 1194 23 1194 22 c 4
 1194 20 1194 19 1194 17 c 4
 1194 16 1193 14 1193 13 c 4
 1193 12 1192 12 1192 11 c 4
 1191 10 1192 9 1191 8 c 4
 1191 7 1190 7 1190 6 c 4
 1190 5 1189 5 1189 5 c 4
 1189 5 1188 4 1187 4 c 4
 1186 4 1187 4 1186 4 c 4
 1185 3 1184 3 1183 2 c 4
 1182 1 1182 1 1181 1 c 4
 1179 1 1178 0 1176 0 c 4
 1174 0 1173 0 1171 0 c 4
 1169 0 1168 -1 1166 0 c 4
 1163 1 1160 2 1157 3 c 4
 1154 4 1152 5 1149 7 c 4
 1146 9 1145 11 1142 13 c 4
 1140 15 1138 17 1136 19 c 4
 1133 22 1132 23 1129 26 c 4
 1127 28 1124 30 1122 32 c 4
 1118 36 1115 40 1111 44 c 4
 1107 48 1103 51 1099 55 c 4
 1095 59 1091 63 1087 67 c 4
 1083 71 1079 76 1075 81 c 4
 1071 86 1070 91 1066 96 c 4
 1062 101 1060 107 1056 112 c 4
 1053 116 1051 122 1048 126 c 4
 1045 130 1043 136 1040 140 c 4
 1037 144 1036 151 1034 155 c 4
 1032 159 1032 164 1030 168 c 4
 1028 172 1026 178 1025 182 c 4
 1024 186 1023 192 1022 196 c 4
 1021 201 1021 206 1020 211 c 4
 1019 216 1018 223 1017 228 c 4
 1016 231 1015 232 1015 235 c 4
 1015 238 1015 240 1015 243 c 6
 1015 1242 l 6
 1012 1251 1010 1260 1006 1269 c 4
 1002 1278 998 1287 993 1295 c 4
 988 1303 981 1311 975 1318 c 4
 968 1326 959 1333 950 1340 c 4
 942 1346 932 1353 923 1358 c 4
 914 1363 905 1369 895 1373 c 4
 886 1377 876 1382 866 1385 c 4
 856 1388 845 1390 835 1392 c 4
 825 1394 815 1395 805 1395 c 4
 804 1395 804 1395 803 1395 c 4
 802 1395 l 4
 801 1395 801 1395 800 1395 c 4
 789 1395 779 1394 768 1391 c 4
 757 1388 746 1386 736 1382 c 4
 726 1378 716 1374 706 1370 c 4
 696 1366 687 1359 678 1354 c 4
 669 1349 659 1343 651 1336 c 4
 643 1329 634 1321 627 1313 c 4
 622 1307 616 1298 612 1291 c 4
 608 1283 604 1275 600 1267 c 4
 597 1259 595 1251 593 1242 c 6
 593 765 l 6
 594 767 594 767 595 769 c 4
 598 773 600 779 604 783 c 4
 610 790 617 798 623 805 c 4
 631 814 639 823 649 829 c 4
 662 838 676 845 691 850 c 4
 712 857 735 860 757 859 c 4
 786 858 816 853 841 839 c 4
 863 827 882 811 898 792 c 4
 904 785 909 777 913 769 c 4
 917 761 920 751 920 742 c 4
 920 733 917 723 913 715 c 4
 909 707 904 699 898 692 c 4
 882 673 863 657 841 645 c 4
 816 631 786 625 757 625 c 4
 735 625 714 628 693 634 c 4
 679 638 665 644 652 653 c 4
 641 660 632 669 623 679 c 4
 617 686 610 694 605 701 c 4
 601 705 599 711 596 715 c 4
 595 717 594 718 593 720 c 6
 593 630 l 6
 597 630 599 630 603 629 c 4
 611 628 619 626 627 622 c 4
 638 618 648 610 658 603 c 4
 672 593 683 582 694 569 c 4
 708 553 720 534 728 513 c 4
 740 484 743 453 743 421 c 4
 743 389 741 359 733 328 c 4
 725 296 708 267 683 247 c 4
 668 234 649 225 630 220 c 4
 611 215 591 212 571 212 c 4
 532 212 494 223 463 246 c 4
 438 266 420 294 410 325 c 4
 400 356 397 389 398 421 c 4
 399 452 402 482 412 511 c 4
 419 532 430 551 444 568 c 4
 456 582 469 593 483 603 c 4
 494 610 505 617 517 622 c 4
 524 626 531 628 539 629 c 4
 542 630 545 630 548 630 c 6
 548 720 l 5
 299 720 l 5
 299 765 l 5
 548 765 l 5
 548 1242 l 6
 550 1253 551 1263 555 1273 c 4
 559 1283 564 1293 568 1303 c 4
 573 1313 579 1322 585 1331 c 4
 593 1342 603 1353 613 1362 c 4
 623 1371 633 1380 645 1387 c 4
 657 1394 668 1402 681 1408 c 4
 694 1414 706 1420 719 1424 c 4
 733 1428 746 1431 760 1435 c 4
 774 1439 786 1440 800 1440 c 4
 801 1440 803 1440 804 1440 c 4
 805 1440 805 1440 806 1440 c 4
 807 1440 809 1440 810 1440 c 4
 823 1440 834 1439 847 1437 c 4
 860 1435 871 1433 883 1429 c 4
 895 1425 906 1421 917 1417 c 4
 929 1412 940 1406 951 1399 c 4
 962 1392 973 1383 983 1375 c 4
 993 1367 1002 1358 1010 1348 c 4
 1018 1338 1026 1328 1032 1316 c 4
 1038 1304 1045 1293 1049 1280 c 4
 1053 1267 1057 1255 1060 1242 c 6
200 1548 m 1
 300 1638 l 25
 400 1548 l 25
 500 1638 l 25
 600 1548 l 25
 700 1638 l 25
 800 1548 l 25
 900 1638 l 25
 1000 1548 l 25
 1100 1638 l 25
 1200 1548 l 25
 1300 1638 l 1
 1400 1548 l 1
 1400 1488 l 1
 1300 1578 l 1
 1200 1488 l 1
 1100 1578 l 25
 1000 1488 l 25
 900 1578 l 25
 800 1488 l 1
 700 1578 l 25
 600 1488 l 1
 500 1578 l 25
 400 1488 l 1
 300 1578 l 1
 200 1488 l 1
 200 1548 l 1
EndSplineSet
Validated: 33
EndChar

StartChar: uni306F
Encoding: 12399 12399 29
Width: 2600
VWidth: 0
Flags: W
HStem: 0 80<1126 1424 1474 1641 1691 1944> 160 70<1691 1806> 180 50<1474 1631> 450 50<675 1050> 1100 50<250 1050> 1443 62<1100 1156.3> 1455 66<1343.01 1412.99>
VStem: 200 50<450 1100> 625 50<500 900> 1050 50<500 1100> 1270 50<919.001 1443> 1343 70<1455.01 1520.99> 1424 50<80 180 230 647.422> 1641 50<80 160 230 483.267> 1806 50<230 434>
LayerCount: 2
Fore
SplineSet
1343 1488 m 0x9bfe
 1343 1507 1359 1521 1378 1521 c 0
 1397 1521 1413 1507 1413 1488 c 0
 1413 1469 1397 1455 1378 1455 c 0
 1359 1455 1343 1469 1343 1488 c 0x9bfe
1681 230 m 1xb9fe
 1806 230 l 1xd9fe
 1806 475 l 1
 1758 541 1650 644 1558 758 c 0
 1525 799 1421 948 1415 1058 c 0
 1412 1110 1442 1163 1476 1176 c 0
 1529 1196 1602 1195 1620 1197 c 1
 1553 1244 l 1
 1513 1292 1529 1265 1497 1318 c 0
 1472 1360 1477 1415 1482 1457 c 0
 1490 1519 1475 1544 1452 1547 c 0
 1423 1551 1342 1522 1315 1511 c 0
 1255 1486 1299 1505 1320 1460 c 1
 1320 1181 l 1
 1313 1147 1321 1125 1319 1092 c 0
 1316 1047 1328 968 1341 928 c 0
 1363 862 1409 840 1458 782 c 0
 1505 726 1515 733 1560 679 c 0
 1609 621 1629 581 1658 521 c 0
 1673 490 1680 433 1681 395 c 1
 1681 230 l 1xb9fe
2266 250 m 1
 2275 320 l 1
 2275 406 2100 744 2012 858 c 0
 1952 936 1796 1089 1720 1140 c 0
 1677 1169 1553 1152 1506 1133 c 0
 1466 1117 1464 1087 1462 1043 c 0
 1460 988 1564 842 1591 803 c 0
 1618 764 1844 502 1975 407 c 0
 2026 370 2134 321 2160 310 c 0
 2246 273 2239 258 2266 250 c 1
2334 58 m 1
 2314 109 l 1
 2300 121 2258 210 2090 287 c 0
 2035 312 1921 383 1906 392 c 1
 1915 358 1953 244 1988 216 c 0
 2058 160 2092 146 2140 126 c 0
 2202 100 2313 65 2334 58 c 1
1474 230 m 1xb9fe
 1631 230 l 1
 1632 418 l 1
 1636 451 1599 522 1586 548 c 0
 1566 588 1510 665 1482 683 c 0
 1470 691 1475 566 1474 437 c 1
 1474 230 l 1xb9fe
1641 80 m 1
 1641 180 l 25
 1474 180 l 1
 1474 80 l 25
 1641 80 l 1
1101 0 m 1
 1126 80 l 1
 1424 80 l 1
 1424 730 l 1
 1407 788 1370 786 1327 845 c 0
 1294 890 1263 988 1266 1080 c 2
 1266 1080 1267 1160 1270 1187 c 1
 1270 1443 l 1
 1100 1443 l 1
 1100 1505 l 1
 1316 1560 l 1
 1341 1576 1361 1580 1388 1588 c 0
 1407 1593 1443 1601 1462 1600 c 0
 1481 1599 1492 1593 1506 1580 c 0
 1552 1540 1542 1502 1529 1470 c 0
 1522 1453 1525 1373 1538 1347 c 0
 1550 1324 1624 1251 1645 1241 c 0
 1920 1110 2160 785 2273 484 c 0
 2319 361 2340 320 2308 224 c 1
 2317 200 2358 156 2376 114 c 0
 2390 81 2393 9 2400 0 c 1
 2374 0 l 2
 2354 0 2164 53 2110 80 c 0
 2066 102 2016 116 1956 174 c 0
 1933 196 1902 238 1880 316 c 0
 1877 328 1852 434 1852 434 c 2
 1856 160 l 1
 1691 160 l 1xddfe
 1691 80 l 1
 1944 80 l 1
 1969 0 l 1
 1101 0 l 1
200 450 m 5
 200 1150 l 29
 1100 1150 l 29
 1100 450 l 29
 625 450 l 29
 625 900 l 29
 675 900 l 29
 675 500 l 29
 1050 500 l 29
 1050 1100 l 5
 250 1100 l 5
 250 450 l 5
 200 450 l 5
EndSplineSet
Validated: 33
EndChar

StartChar: uni3078
Encoding: 12408 12408 30
Width: 1698
VWidth: 0
Flags: HW
LayerCount: 2
Fore
SplineSet
1448 457 m 5
 1448 1514 l 5
 1398 1534 l 5
 1380 1452 1367 1370 1358 1287 c 4
 1350 1215 1344 1143 1338 1071 c 4
 1332 999 1325 927 1321 855 c 4
 1319 819 1317 783 1316 747 c 4
 1315 711 1313 674 1312 638 c 4
 1311 603 1309 567 1307 532 c 5
 1448 457 l 5
1498 0 m 5
 1448 0 l 5
 1448 400 l 5
 1250 500 l 5
 1251 544 1252 588 1254 632 c 4
 1257 703 1260 775 1265 846 c 4
 1271 933 1280 1019 1289 1106 c 4
 1297 1178 1305 1250 1315 1321 c 4
 1328 1415 1346 1508 1368 1600 c 5
 1498 1550 l 5
 1498 0 l 5
200 450 m 5
 200 1150 l 29
 1100 1150 l 29
 1100 450 l 29
 625 450 l 29
 625 900 l 29
 675 900 l 29
 675 500 l 29
 1050 500 l 29
 1050 1100 l 5
 250 1100 l 5
 250 450 l 5
 200 450 l 5
EndSplineSet
Validated: 1
EndChar

StartChar: uni307B
Encoding: 12411 12411 31
Width: 2445
VWidth: 0
Flags: HW
HStem: 236 44<436.715 570.905> 650 50<428.992 476.813 526.813 574.376> 695 50<601.871 804.017> 800 50<199.813 476.813> 905 50<602.981 804.016> 1550.06 50.1658<660.51 863.364>
VStem: 309.813 50<357.306 570.624> 476.813 50<700 800 850 1441.32> 643.813 50<360.401 572.227> 839.813 50<774.992 876.449> 995.813 50<176.898 1437.07>
LayerCount: 2
Fore
SplineSet
1622 825 m 4
 1622 792 1657 769 1682 758 c 4
 1709 746 1729 743 1759 743 c 4
 1788 743 1809 747 1835 759 c 4
 1856 769 1890 797 1890 825 c 4
 1890 856 1853 883 1835 891 c 4
 1809 902 1788 907 1759 907 c 4
 1729 907 1709 904 1682 892 c 4
 1657 881 1622 859 1622 825 c 4
1552 650 m 4
 1531 650 1509 644 1491 633 c 4
 1473 622 1457 608 1445 590 c 4
 1421 555 1411 511 1410 468 c 4
 1409 424 1411 380 1435 343 c 4
 1456 312 1491 280 1552 280 c 4
 1619 280 1655 311 1673 343 c 4
 1691 374 1695 424 1694 468 c 4
 1693 511 1683 555 1659 590 c 4
 1647 608 1631 622 1613 633 c 4
 1595 644 1573 650 1552 650 c 4
2096 1380 m 6
 2096 270 l 6
 2096 267 2096 265 2096 262 c 4
 2096 259 2097 257 2098 255 c 4
 2099 250 2100 246 2101 241 c 4
 2102 236 2103 231 2104 226 c 4
 2105 221 2107 217 2108 212 c 4
 2109 208 2111 203 2112 199 c 4
 2113 195 2115 190 2117 186 c 4
 2119 181 2121 177 2123 172 c 4
 2125 167 2128 163 2130 158 c 4
 2133 153 2135 149 2138 144 c 4
 2141 139 2145 134 2148 129 c 4
 2151 124 2155 119 2158 114 c 4
 2161 109 2165 105 2168 100 c 4
 2171 96 2175 91 2178 87 c 4
 2181 83 2185 79 2189 75 c 4
 2193 71 2197 68 2202 65 c 4
 2205 63 2207 62 2210 60 c 4
 2213 58 2215 57 2218 55 c 4
 2221 53 2224 52 2226 50 c 4
 2227 49 2229 48 2230 47 c 4
 2231 47 2231 46 2232 46 c 4
 2233 46 2233 45 2234 44 c 4
 2235 43 2235 43 2235 42 c 4
 2235 41 2236 41 2237 40 c 4
 2238 39 2239 38 2240 37 c 4
 2241 36 2241 36 2241 35 c 4
 2241 34 2242 33 2242 32 c 4
 2243 31 2243 29 2244 28 c 4
 2245 27 2245 25 2245 24 c 4
 2245 22 2245 21 2245 19 c 4
 2245 18 2244 16 2244 15 c 4
 2244 14 2243 13 2243 12 c 4
 2242 11 2242 10 2241 9 c 4
 2241 8 2240 8 2240 7 c 4
 2240 6 2239 6 2239 6 c 4
 2239 6 2238 5 2237 5 c 4
 2236 5 2237 4 2236 4 c 4
 2235 3 2234 3 2233 2 c 4
 2232 1 2231 1 2230 1 c 4
 2228 1 2227 0 2225 0 c 4
 2223 0 2221 -1 2219 -1 c 4
 2217 -1 2216 -1 2214 0 c 4
 2211 1 2207 2 2204 3 c 4
 2201 4 2198 6 2195 8 c 4
 2192 10 2190 12 2187 14 c 4
 2185 16 2182 19 2180 21 c 4
 2177 24 2175 26 2172 29 c 4
 2170 31 2167 34 2165 36 c 4
 2161 40 2156 45 2152 49 c 4
 2148 53 2143 57 2139 61 c 4
 2135 65 2130 69 2126 74 c 4
 2121 79 2117 84 2113 90 c 4
 2109 96 2106 101 2102 107 c 4
 2098 113 2095 118 2091 124 c 4
 2088 129 2085 135 2082 140 c 4
 2079 145 2077 151 2074 156 c 4
 2071 161 2069 167 2067 172 c 4
 2065 177 2064 182 2062 187 c 4
 2060 192 2058 197 2057 202 c 4
 2056 207 2055 213 2054 218 c 4
 2053 224 2052 229 2051 235 c 4
 2050 241 2049 247 2048 253 c 4
 2047 256 2046 258 2046 261 c 4
 2046 264 2046 267 2046 270 c 6
 2046 1380 l 6
 2043 1390 2040 1400 2036 1410 c 4
 2032 1420 2027 1430 2021 1439 c 4
 2015 1448 2008 1456 2001 1464 c 4
 1993 1473 1984 1481 1974 1489 c 4
 1965 1496 1954 1503 1944 1509 c 4
 1934 1515 1923 1521 1912 1526 c 4
 1902 1531 1891 1536 1880 1539 c 4
 1869 1542 1857 1545 1846 1547 c 4
 1835 1549 1823 1550 1812 1550 c 4
 1811 1550 1811 1550 1810 1550 c 4
 1809 1550 l 4
 1808 1550 1808 1550 1807 1550 c 4
 1795 1550 1783 1549 1771 1546 c 4
 1759 1543 1747 1540 1736 1536 c 4
 1725 1532 1714 1527 1703 1522 c 4
 1692 1517 1681 1511 1671 1505 c 4
 1661 1499 1650 1492 1641 1484 c 4
 1632 1476 1623 1468 1615 1459 c 4
 1609 1452 1603 1443 1598 1435 c 4
 1593 1426 1589 1417 1585 1408 c 4
 1582 1399 1579 1390 1577 1380 c 6
 1577 850 l 6
 1578 852 1578 853 1579 855 c 4
 1582 860 1585 865 1589 870 c 4
 1596 878 1603 887 1610 895 c 4
 1619 905 1628 914 1639 921 c 4
 1653 931 1669 939 1686 945 c 4
 1709 953 1734 956 1759 955 c 4
 1791 954 1824 947 1852 932 c 4
 1876 919 1898 901 1916 880 c 4
 1923 872 1929 864 1933 855 c 4
 1937 846 1940 835 1940 825 c 4
 1940 815 1937 804 1933 795 c 4
 1929 786 1923 777 1916 769 c 4
 1898 748 1876 730 1852 717 c 4
 1824 702 1791 695 1759 695 c 4
 1735 695 1711 697 1688 704 c 4
 1672 709 1656 716 1642 726 c 4
 1630 734 1620 744 1610 755 c 4
 1603 763 1596 771 1590 779 c 4
 1586 784 1583 789 1580 794 c 4
 1579 796 1578 798 1577 800 c 6
 1577 700 l 6
 1581 700 1584 700 1588 699 c 4
 1597 698 1606 695 1615 691 c 4
 1627 686 1638 678 1649 670 c 4
 1664 659 1677 646 1689 632 c 4
 1705 614 1718 593 1727 570 c 4
 1740 538 1744 503 1744 468 c 4
 1744 433 1742 398 1733 364 c 4
 1724 329 1705 296 1677 274 c 4
 1660 260 1639 250 1618 244 c 4
 1597 238 1574 236 1552 236 c 4
 1509 236 1466 247 1432 273 c 4
 1404 295 1385 327 1374 361 c 4
 1363 395 1359 432 1360 468 c 4
 1361 502 1365 536 1376 568 c 4
 1384 591 1395 612 1411 631 c 4
 1424 646 1439 659 1455 670 c 4
 1467 678 1479 685 1492 691 c 4
 1500 695 1508 698 1517 699 c 4
 1520 700 1524 700 1527 700 c 6
 1527 800 l 5
 1250 800 l 5
 1250 850 l 5
 1527 850 l 5
 1527 1380 l 6
 1529 1392 1531 1404 1535 1415 c 4
 1539 1426 1544 1437 1549 1448 c 4
 1555 1459 1561 1469 1568 1479 c 4
 1577 1491 1588 1503 1599 1513 c 4
 1610 1523 1622 1533 1635 1541 c 4
 1648 1549 1661 1557 1675 1564 c 4
 1689 1571 1703 1577 1717 1582 c 4
 1732 1587 1747 1590 1762 1594 c 4
 1777 1598 1792 1600 1807 1600 c 4
 1808 1600 1810 1600 1811 1600 c 4
 1812 1600 1813 1600 1814 1600 c 4
 1815 1600 1817 1600 1818 1600 c 4
 1832 1600 1845 1599 1859 1597 c 4
 1873 1595 1886 1592 1899 1588 c 4
 1912 1584 1925 1579 1937 1574 c 4
 1950 1568 1963 1562 1975 1554 c 4
 1987 1546 1999 1537 2010 1528 c 4
 2021 1519 2031 1509 2040 1498 c 4
 2049 1487 2058 1475 2065 1462 c 4
 2072 1449 2079 1436 2084 1422 c 4
 2089 1408 2093 1394 2096 1380 c 6
200 450 m 5
 200 1150 l 29
 1100 1150 l 29
 1100 450 l 29
 625 450 l 29
 625 900 l 29
 675 900 l 29
 675 500 l 29
 1050 500 l 29
 1050 1100 l 5
 250 1100 l 5
 250 450 l 5
 200 450 l 5
EndSplineSet
Validated: 33
EndChar

StartChar: uni3072
Encoding: 12402 12402 32
Width: 1300
VWidth: 0
Flags: HW
LayerCount: 2
Fore
SplineSet
580 700 m 29
 650 700 l 29
 1050 0 l 29
 980 0 l 29
 580 700 l 29
320 700 m 29
 390 700 l 29
 790 0 l 29
 720 0 l 29
 320 700 l 29
200 900 m 1
 200 1600 l 25
 1100 1600 l 25
 1100 900 l 25
 625 900 l 25
 625 1350 l 25
 675 1350 l 25
 675 950 l 25
 1050 950 l 25
 1050 1550 l 1
 250 1550 l 1
 250 900 l 1
 200 900 l 1
EndSplineSet
Validated: 1
EndChar

StartChar: uni3075
Encoding: 12405 12405 33
Width: 1600
VWidth: 0
Flags: HW
LayerCount: 2
Fore
SplineSet
960 685 m 13
 899 714 849 765 782 776 c 28
 690 791 635 736 542 752 c 4
 440 770 437 822 362 848 c 4
 327 860 319 866 291 841 c 4
 266 819 246 802 255 769 c 4
 263 741 342 750 390 740 c 4
 464 724 470 674 524 660 c 4
 565 649 634 694 730 705 c 4
 824 716 920 670 960 685 c 13
1400 635 m 29
 900 635 l 5
 841 640 856 656 762 655 c 4
 612 653 632 578 496 612 c 4
 431 628 489 632 366 688 c 4
 313 712 201 691 200 749 c 4
 199 796 206 835 238 865 c 4
 258 884 265 892 307 912 c 5
 284 945 297 948 264 949 c 4
 238 950 243 951 233 955 c 4
 201 968 208 1012 244 1011 c 4
 276 1010 292 1009 299 1000 c 4
 314 980 304 989 327 957 c 5
 364 991 356 990 374 1000 c 4
 399 1014 408 1010 434 1011 c 4
 461 1012 462 959 434 955 c 4
 371 946 387 952 347 913 c 5
 410 885 359 920 433 875 c 4
 490 840 481 807 563 801 c 4
 660 794 650 836 780 826 c 4
 872 819 999 699 1100 685 c 5
 1400 685 l 29
 1400 635 l 29
EndSplineSet
Validated: 33
EndChar

StartChar: uni308B
Encoding: 12427 12427 34
Width: 2638
VWidth: 0
Flags: HW
LayerCount: 2
Fore
SplineSet
1440 1377 m 1
 1440 1377 1417 1309 1434 1146 c 0
 1449 1005 1462 954 1533 784 c 0
 1575 684 1661 585 1672 569 c 0
 1721 498 1776 468 1810 451 c 0
 1855 428 2036 408 2128 408 c 0
 2203 408 2282 428 2332 446 c 1
 2197 545 2197 547 2079 665 c 0
 1992 752 1900 861 1832 964 c 1
 1793 954 1763 940 1741 917 c 0
 1727 902 1723 888 1727 868 c 0
 1733 838 1743 821 1769 802 c 0
 1792 785 1802 773 1823 754 c 1
 1763 730 1693 708 1634 742 c 0
 1588 769 1564 811 1548 862 c 0
 1531 917 1517 967 1534 1020 c 0
 1539 1036 1579 1043 1579 1027 c 0
 1579 930 1591 896 1613 845 c 0
 1648 764 1693 769 1735 771 c 1
 1711 795 1698 811 1686 844 c 0
 1663 907 1694 939 1711 960 c 0
 1735 990 1772 992 1805 1012 c 1
 1748 1117 1748 1131 1701 1267 c 0
 1667 1365 1708 1412 1667 1496 c 0
 1646 1539 1611 1551 1547 1550 c 0
 1463 1549 1452 1516 1418 1457 c 0
 1399 1424 1430 1414 1440 1377 c 1
1711 452 m 9
 1665 80 l 25
 1800 80 l 25
 1888 265 l 25
 1848 386 l 25
 1822 391 1806 398 1781 409 c 0
 1756 420 1733 437 1711 452 c 9
1472 1434 m 0x8fc0
 1472 1457 1491 1474 1514 1474 c 0
 1537 1474 1556 1457 1556 1434 c 0
 1556 1411 1537 1394 1514 1394 c 0
 1491 1394 1472 1411 1472 1434 c 0x8fc0
1250 0 m 25
 1275 80 l 25
 1605 80 l 1
 1658 500 l 1
 1591 594 1529 681 1478 785 c 0
 1432 878 1422 928 1394 1041 c 0
 1377 1111 1370 1308 1390 1377 c 1
 1260 1397 l 1
 1260 1447 l 1
 1365 1462 l 1
 1407 1597 1490 1610 1574 1609 c 0
 1645 1608 1680 1585 1718 1525 c 0
 1753 1470 1731 1386 1748 1313 c 0
 1791 1134 1821 1071 1954 901 c 0
 2050 779 2176 640 2294 540 c 0
 2378 469 2419 443 2438 437 c 1
 2410 416 2280 374 2190 362 c 0
 2092 349 1938 373 1918 373 c 1
 1958 265 l 1
 1870 80 l 1
 1975 80 l 25
 2010 0 l 25
 1250 0 l 25
1120 800 m 5
 1008 866 868 900 700 900 c 28
 532 900 364 854 280 800 c 5
 376 750 532 700 700 700 c 28
 868 700 1014 744 1120 800 c 5
200 800 m 5
 316 894 521 950 700 950 c 4
 871 950 1086 900 1200 800 c 5
 1078 712 875 650 700 650 c 4
 541 650 300 720 200 800 c 5
EndSplineSet
Validated: 33
EndChar

StartChar: uni308C
Encoding: 12428 12428 35
Width: 1798
VWidth: 0
Flags: W
HStem: 0 21G<1548 1598> 650 50<505.783 901.233> 900 50<485.861 919.131>
VStem: 1354 58<533.641 1028.73> 1548 50<0 400 457 1514>
LayerCount: 2
Fore
SplineSet
1548 457 m 5
 1548 1514 l 5
 1498 1534 l 5
 1480 1452 1467 1370 1458 1287 c 4
 1450 1215 1444 1143 1438 1071 c 4
 1432 999 1425 927 1421 855 c 4
 1419 819 1417 783 1416 747 c 4
 1415 711 1413 674 1412 638 c 4
 1411 603 1409 567 1407 532 c 5
 1548 457 l 5
1598 0 m 5
 1548 0 l 5
 1548 400 l 5
 1350 500 l 5
 1351 544 1352 588 1354 632 c 4
 1357 703 1360 775 1365 846 c 4
 1371 933 1380 1019 1389 1106 c 4
 1397 1178 1405 1250 1415 1321 c 4
 1428 1415 1446 1508 1468 1600 c 5
 1598 1550 l 5
 1598 0 l 5
1120 800 m 5
 1008 866 868 900 700 900 c 28
 532 900 364 854 280 800 c 5
 376 750 532 700 700 700 c 28
 868 700 1014 744 1120 800 c 5
200 800 m 5
 316 894 521 950 700 950 c 4
 871 950 1086 900 1200 800 c 5
 1078 712 875 650 700 650 c 4
 541 650 300 720 200 800 c 5
EndSplineSet
Validated: 1
EndChar

StartChar: uni308D
Encoding: 12429 12429 36
Width: 2545
VWidth: 0
Flags: HW
HStem: 236 44<436.715 570.905> 650 50<428.992 476.813 526.813 574.376> 695 50<601.871 804.017> 800 50<199.813 476.813> 905 50<602.981 804.016> 1550.06 50.1658<660.51 863.364>
VStem: 309.813 50<357.306 570.624> 476.813 50<700 800 850 1441.32> 643.813 50<360.401 572.227> 839.813 50<774.992 876.449> 995.813 50<176.898 1437.07>
LayerCount: 2
Fore
SplineSet
1722 825 m 4
 1722 792 1757 769 1782 758 c 4
 1809 746 1829 743 1859 743 c 4
 1888 743 1909 747 1935 759 c 4
 1956 769 1990 797 1990 825 c 4
 1990 856 1953 883 1935 891 c 4
 1909 902 1888 907 1859 907 c 4
 1829 907 1809 904 1782 892 c 4
 1757 881 1722 859 1722 825 c 4
1652 650 m 4
 1631 650 1609 644 1591 633 c 4
 1573 622 1557 608 1545 590 c 4
 1521 555 1511 511 1510 468 c 4
 1509 424 1511 380 1535 343 c 4
 1556 312 1591 280 1652 280 c 4
 1719 280 1755 311 1773 343 c 4
 1791 374 1795 424 1794 468 c 4
 1793 511 1783 555 1759 590 c 4
 1747 608 1731 622 1713 633 c 4
 1695 644 1673 650 1652 650 c 4
2196 1380 m 6
 2196 270 l 6
 2196 267 2196 265 2196 262 c 4
 2196 259 2197 257 2198 255 c 4
 2199 250 2200 246 2201 241 c 4
 2202 236 2203 231 2204 226 c 4
 2205 221 2207 217 2208 212 c 4
 2209 208 2211 203 2212 199 c 4
 2213 195 2215 190 2217 186 c 4
 2219 181 2221 177 2223 172 c 4
 2225 167 2228 163 2230 158 c 4
 2233 153 2235 149 2238 144 c 4
 2241 139 2245 134 2248 129 c 4
 2251 124 2255 119 2258 114 c 4
 2261 109 2265 105 2268 100 c 4
 2271 96 2275 91 2278 87 c 4
 2281 83 2285 79 2289 75 c 4
 2293 71 2297 68 2302 65 c 4
 2305 63 2307 62 2310 60 c 4
 2313 58 2315 57 2318 55 c 4
 2321 53 2324 52 2326 50 c 4
 2327 49 2329 48 2330 47 c 4
 2331 47 2331 46 2332 46 c 4
 2333 46 2333 45 2334 44 c 4
 2335 43 2335 43 2335 42 c 4
 2335 41 2336 41 2337 40 c 4
 2338 39 2339 38 2340 37 c 4
 2341 36 2341 36 2341 35 c 4
 2341 34 2342 33 2342 32 c 4
 2343 31 2343 29 2344 28 c 4
 2345 27 2345 25 2345 24 c 4
 2345 22 2345 21 2345 19 c 4
 2345 18 2344 16 2344 15 c 4
 2344 14 2343 13 2343 12 c 4
 2342 11 2342 10 2341 9 c 4
 2341 8 2340 8 2340 7 c 4
 2340 6 2339 6 2339 6 c 4
 2339 6 2338 5 2337 5 c 4
 2336 5 2337 4 2336 4 c 4
 2335 3 2334 3 2333 2 c 4
 2332 1 2331 1 2330 1 c 4
 2328 1 2327 0 2325 0 c 4
 2323 0 2321 -1 2319 -1 c 4
 2317 -1 2316 -1 2314 0 c 4
 2311 1 2307 2 2304 3 c 4
 2301 4 2298 6 2295 8 c 4
 2292 10 2290 12 2287 14 c 4
 2285 16 2282 19 2280 21 c 4
 2277 24 2275 26 2272 29 c 4
 2270 31 2267 34 2265 36 c 4
 2261 40 2256 45 2252 49 c 4
 2248 53 2243 57 2239 61 c 4
 2235 65 2230 69 2226 74 c 4
 2221 79 2217 84 2213 90 c 4
 2209 96 2206 101 2202 107 c 4
 2198 113 2195 118 2191 124 c 4
 2188 129 2185 135 2182 140 c 4
 2179 145 2177 151 2174 156 c 4
 2171 161 2169 167 2167 172 c 4
 2165 177 2164 182 2162 187 c 4
 2160 192 2158 197 2157 202 c 4
 2156 207 2155 213 2154 218 c 4
 2153 224 2152 229 2151 235 c 4
 2150 241 2149 247 2148 253 c 4
 2147 256 2146 258 2146 261 c 4
 2146 264 2146 267 2146 270 c 6
 2146 1380 l 6
 2143 1390 2140 1400 2136 1410 c 4
 2132 1420 2127 1430 2121 1439 c 4
 2115 1448 2108 1456 2101 1464 c 4
 2093 1473 2084 1481 2074 1489 c 4
 2065 1496 2054 1503 2044 1509 c 4
 2034 1515 2023 1521 2012 1526 c 4
 2002 1531 1991 1536 1980 1539 c 4
 1969 1542 1957 1545 1946 1547 c 4
 1935 1549 1923 1550 1912 1550 c 4
 1911 1550 1911 1550 1910 1550 c 4
 1909 1550 l 4
 1908 1550 1908 1550 1907 1550 c 4
 1895 1550 1883 1549 1871 1546 c 4
 1859 1543 1847 1540 1836 1536 c 4
 1825 1532 1814 1527 1803 1522 c 4
 1792 1517 1781 1511 1771 1505 c 4
 1761 1499 1750 1492 1741 1484 c 4
 1732 1476 1723 1468 1715 1459 c 4
 1709 1452 1703 1443 1698 1435 c 4
 1693 1426 1689 1417 1685 1408 c 4
 1682 1399 1679 1390 1677 1380 c 6
 1677 850 l 6
 1678 852 1678 853 1679 855 c 4
 1682 860 1685 865 1689 870 c 4
 1696 878 1703 887 1710 895 c 4
 1719 905 1728 914 1739 921 c 4
 1753 931 1769 939 1786 945 c 4
 1809 953 1834 956 1859 955 c 4
 1891 954 1924 947 1952 932 c 4
 1976 919 1998 901 2016 880 c 4
 2023 872 2029 864 2033 855 c 4
 2037 846 2040 835 2040 825 c 4
 2040 815 2037 804 2033 795 c 4
 2029 786 2023 777 2016 769 c 4
 1998 748 1976 730 1952 717 c 4
 1924 702 1891 695 1859 695 c 4
 1835 695 1811 697 1788 704 c 4
 1772 709 1756 716 1742 726 c 4
 1730 734 1720 744 1710 755 c 4
 1703 763 1696 771 1690 779 c 4
 1686 784 1683 789 1680 794 c 4
 1679 796 1678 798 1677 800 c 6
 1677 700 l 6
 1681 700 1684 700 1688 699 c 4
 1697 698 1706 695 1715 691 c 4
 1727 686 1738 678 1749 670 c 4
 1764 659 1777 646 1789 632 c 4
 1805 614 1818 593 1827 570 c 4
 1840 538 1844 503 1844 468 c 4
 1844 433 1842 398 1833 364 c 4
 1824 329 1805 296 1777 274 c 4
 1760 260 1739 250 1718 244 c 4
 1697 238 1674 236 1652 236 c 4
 1609 236 1566 247 1532 273 c 4
 1504 295 1485 327 1474 361 c 4
 1463 395 1459 432 1460 468 c 4
 1461 502 1465 536 1476 568 c 4
 1484 591 1495 612 1511 631 c 4
 1524 646 1539 659 1555 670 c 4
 1567 678 1579 685 1592 691 c 4
 1600 695 1608 698 1617 699 c 4
 1620 700 1624 700 1627 700 c 6
 1627 800 l 5
 1350 800 l 5
 1350 850 l 5
 1627 850 l 5
 1627 1380 l 6
 1629 1392 1631 1404 1635 1415 c 4
 1639 1426 1644 1437 1649 1448 c 4
 1655 1459 1661 1469 1668 1479 c 4
 1677 1491 1688 1503 1699 1513 c 4
 1710 1523 1722 1533 1735 1541 c 4
 1748 1549 1761 1557 1775 1564 c 4
 1789 1571 1803 1577 1817 1582 c 4
 1832 1587 1847 1590 1862 1594 c 4
 1877 1598 1892 1600 1907 1600 c 4
 1908 1600 1910 1600 1911 1600 c 4
 1912 1600 1913 1600 1914 1600 c 4
 1915 1600 1917 1600 1918 1600 c 4
 1932 1600 1945 1599 1959 1597 c 4
 1973 1595 1986 1592 1999 1588 c 4
 2012 1584 2025 1579 2037 1574 c 4
 2050 1568 2063 1562 2075 1554 c 4
 2087 1546 2099 1537 2110 1528 c 4
 2121 1519 2131 1509 2140 1498 c 4
 2149 1487 2158 1475 2165 1462 c 4
 2172 1449 2179 1436 2184 1422 c 4
 2189 1408 2193 1394 2196 1380 c 6
1120 800 m 5
 1008 866 868 900 700 900 c 28
 532 900 364 854 280 800 c 5
 376 750 532 700 700 700 c 28
 868 700 1014 744 1120 800 c 5
200 800 m 5
 316 894 521 950 700 950 c 4
 871 950 1086 900 1200 800 c 5
 1078 712 875 650 700 650 c 4
 541 650 300 720 200 800 c 5
EndSplineSet
Validated: 33
EndChar

StartChar: uni308A
Encoding: 12426 12426 37
Width: 1400
VWidth: 0
Flags: HW
LayerCount: 2
Fore
SplineSet
635 700 m 29
 705 700 l 29
 1105 0 l 29
 1035 0 l 29
 635 700 l 29
375 700 m 29
 445 700 l 29
 845 0 l 29
 775 0 l 29
 375 700 l 29
1120 1450 m 5
 1008 1516 868 1550 700 1550 c 28
 532 1550 364 1504 280 1450 c 5
 376 1400 532 1350 700 1350 c 28
 868 1350 1014 1394 1120 1450 c 5
200 1450 m 5
 316 1544 521 1600 700 1600 c 4
 871 1600 1086 1550 1200 1450 c 5
 1078 1362 875 1300 700 1300 c 4
 541 1300 300 1370 200 1450 c 5
EndSplineSet
Validated: 1
EndChar

StartChar: uni3089
Encoding: 12425 12425 38
Width: 1600
VWidth: 0
Flags: HW
LayerCount: 2
Fore
SplineSet
1220 1450 m 1
 1108 1516 968 1550 800 1550 c 24
 632 1550 464 1504 380 1450 c 1
 476 1400 632 1350 800 1350 c 24
 968 1350 1114 1394 1220 1450 c 1
300 1450 m 1
 416 1544 621 1600 800 1600 c 0
 971 1600 1186 1550 1300 1450 c 1
 1178 1362 975 1300 800 1300 c 0
 641 1300 400 1370 300 1450 c 1
1350 50 m 29
 1350 350 l 29
 1250 350 l 29
 1250 50 l 29
 1350 50 l 29
1400 400 m 5
 1400 0 l 5
 200 0 l 29
 200 50 l 29
 450 50 l 29
 450 100 l 29
 250 100 l 29
 250 140 l 5
 332 162 396 159 438 150 c 4
 492 138 500 136 520 80 c 5
 1200 80 l 5
 1200 400 l 5
 1400 400 l 5
EndSplineSet
Validated: 33
EndChar

StartChar: uni307E
Encoding: 12414 12414 39
Width: 2650
VWidth: 0
Flags: HW
LayerCount: 2
Fore
SplineSet
2400 650 m 29
 2400 950 l 29
 2300 950 l 29
 2300 650 l 29
 2400 650 l 29
2450 1000 m 5
 2450 600 l 5
 1250 600 l 29
 1250 650 l 29
 1500 650 l 29
 1500 700 l 29
 1300 700 l 29
 1300 740 l 5
 1382 762 1446 759 1488 750 c 4
 1542 738 1550 736 1570 680 c 5
 2250 680 l 5
 2250 1000 l 5
 2450 1000 l 5
420 1440 m 25
 500 1440 l 25
 500 1390 l 25
 540 1390 l 25
 540 1440 l 25
 620 1440 l 25
 620 1350 l 25
 560 1350 l 25
 550 1270 l 25
 490 1269 l 25
 480 1350 l 25
 420 1350 l 25
 420 1440 l 25
1248 346 m 1
 1186 458 1183 456 1140 580 c 0
 1095 711 1081 758 1009 884 c 0
 911 1056 869 1094 812 1176 c 0
 786 1213 688 1306 670 1419 c 1
 670 1550 l 25
 370 1550 l 25
 370 1360 l 17
 371 1230 369 1117 407 999 c 0
 441 893 463 850 523 756 c 0
 597 640 621 608 694 506 c 0
 727 460 814 351 840 300 c 1
 969 300 l 1
 980 336 970 335 980 368 c 0
 988 394 1000 419 1025 410 c 0
 1064 396 1112 356 1153 255 c 0
 1172 208 1177 174 1207 130 c 9
 1322 130 l 25
 1314 164 1293 211 1274 240 c 24
 1232 304 1206 331 1151 384 c 0
 1017 513 975 548 839 667 c 24
 749 746 626 789 563 891 c 0
 520 960 486 1033 536 1098 c 0
 582 1158 699 1134 771 1114 c 0
 796 1107 785 1077 760 1073 c 0
 746 1071 638 1122 579 1071 c 0
 541 1038 569 953 599 913 c 0
 687 797 750 795 861 701 c 0
 994 588 1113 490 1248 346 c 1
500 300 m 25
 780 300 l 1
 751 347 681 429 632 497 c 0
 585 562 546 624 500 692 c 1
 500 300 l 25
800 80 m 25
 800 250 l 25
 500 250 l 25
 500 80 l 25
 800 80 l 25
850 0 m 25
 200 0 l 25
 225 80 l 25
 450 80 l 25
 450 750 l 1
 409 852 388 881 353 985 c 0
 325 1069 314 1228 317 1330 c 0
 319 1396 321 1534 320 1600 c 1
 720 1600 l 25
 720 1440 l 1
 728 1366 751 1356 803 1282 c 0
 908 1132 896 1149 989 1015 c 0
 1052 924 1124 792 1224 496 c 0
 1253 410 1394 171 1400 160 c 1
 1343 210 l 1
 1343 192 1353 174 1358 157 c 0
 1365 134 1375 103 1380 80 c 1
 1181 80 l 1
 1140 138 1150 136 1120 211 c 0
 1097 270 1080 321 1030 360 c 1
 1021 344 1022 338 1019 322 c 0
 1015 301 1013 268 1000 250 c 1
 850 250 l 25
 850 0 l 25
EndSplineSet
Validated: 33
EndChar

StartChar: uni307F
Encoding: 12415 12415 40
Width: 2180
VWidth: 0
Flags: HW
LayerCount: 2
Fore
SplineSet
1510 1150 m 29
 1580 1150 l 29
 1980 450 l 29
 1910 450 l 29
 1510 1150 l 29
1250 1150 m 29
 1320 1150 l 29
 1720 450 l 29
 1650 450 l 29
 1250 1150 l 29
420 1440 m 29
 500 1440 l 29
 500 1390 l 29
 540 1390 l 29
 540 1440 l 29
 620 1440 l 29
 620 1350 l 29
 560 1350 l 29
 550 1270 l 29
 490 1269 l 29
 480 1350 l 29
 420 1350 l 29
 420 1440 l 29
1248 346 m 5
 1186 458 1183 456 1140 580 c 4
 1095 711 1081 758 1009 884 c 4
 911 1056 869 1094 812 1176 c 4
 786 1213 688 1306 670 1419 c 5
 670 1550 l 29
 370 1550 l 29
 370 1360 l 21
 371 1230 369 1117 407 999 c 4
 441 893 463 850 523 756 c 4
 597 640 621 608 694 506 c 4
 727 460 814 351 840 300 c 5
 969 300 l 5
 980 336 970 335 980 368 c 4
 988 394 1000 419 1025 410 c 4
 1064 396 1112 356 1153 255 c 4
 1172 208 1177 174 1207 130 c 13
 1322 130 l 29
 1314 164 1293 211 1274 240 c 28
 1232 304 1206 331 1151 384 c 4
 1017 513 975 548 839 667 c 28
 749 746 626 789 563 891 c 4
 520 960 486 1033 536 1098 c 4
 582 1158 699 1134 771 1114 c 4
 796 1107 785 1077 760 1073 c 4
 746 1071 638 1122 579 1071 c 4
 541 1038 569 953 599 913 c 4
 687 797 750 795 861 701 c 4
 994 588 1113 490 1248 346 c 5
500 300 m 29
 780 300 l 5
 751 347 681 429 632 497 c 4
 585 562 546 624 500 692 c 5
 500 300 l 29
800 80 m 29
 800 250 l 29
 500 250 l 29
 500 80 l 29
 800 80 l 29
850 0 m 29
 200 0 l 29
 225 80 l 29
 450 80 l 29
 450 750 l 5
 409 852 388 881 353 985 c 4
 325 1069 314 1228 317 1330 c 4
 319 1396 321 1534 320 1600 c 5
 720 1600 l 29
 720 1440 l 5
 728 1366 751 1356 803 1282 c 4
 908 1132 896 1149 989 1015 c 4
 1052 924 1124 792 1224 496 c 4
 1253 410 1394 171 1400 160 c 5
 1343 210 l 5
 1343 192 1353 174 1358 157 c 4
 1365 134 1375 103 1380 80 c 5
 1181 80 l 5
 1140 138 1150 136 1120 211 c 4
 1097 270 1080 321 1030 360 c 5
 1021 344 1022 338 1019 322 c 4
 1015 301 1013 268 1000 250 c 5
 850 250 l 29
 850 0 l 29
EndSplineSet
Validated: 33
EndChar

StartChar: uni3080
Encoding: 12416 12416 41
Width: 2838
VWidth: 0
Flags: HW
LayerCount: 2
Fore
SplineSet
1640 1377 m 5
 1640 1377 1617 1309 1634 1146 c 4
 1649 1005 1662 954 1733 784 c 4
 1775 684 1861 585 1872 569 c 4
 1921 498 1976 468 2010 451 c 4
 2055 428 2236 408 2328 408 c 4
 2403 408 2482 428 2532 446 c 5
 2397 545 2397 547 2279 665 c 4
 2192 752 2100 861 2032 964 c 5
 1993 954 1963 940 1941 917 c 4
 1927 902 1923 888 1927 868 c 4
 1933 838 1943 821 1969 802 c 4
 1992 785 2002 773 2023 754 c 5
 1963 730 1893 708 1834 742 c 4
 1788 769 1764 811 1748 862 c 4
 1731 917 1717 967 1734 1020 c 4
 1739 1036 1779 1043 1779 1027 c 4
 1779 930 1791 896 1813 845 c 4
 1848 764 1893 769 1935 771 c 5
 1911 795 1898 811 1886 844 c 4
 1863 907 1894 939 1911 960 c 4
 1935 990 1972 992 2005 1012 c 5
 1948 1117 1948 1131 1901 1267 c 4
 1867 1365 1908 1412 1867 1496 c 4
 1846 1539 1811 1551 1747 1550 c 4
 1663 1549 1652 1516 1618 1457 c 4
 1599 1424 1630 1414 1640 1377 c 5
1911 452 m 13
 1865 80 l 29
 2000 80 l 29
 2088 265 l 29
 2048 386 l 29
 2022 391 2006 398 1981 409 c 4
 1956 420 1933 437 1911 452 c 13
1672 1434 m 4x8fc0
 1672 1457 1691 1474 1714 1474 c 4
 1737 1474 1756 1457 1756 1434 c 4
 1756 1411 1737 1394 1714 1394 c 4
 1691 1394 1672 1411 1672 1434 c 4x8fc0
1450 0 m 29
 1475 80 l 29
 1805 80 l 5
 1858 500 l 5
 1791 594 1729 681 1678 785 c 4
 1632 878 1622 928 1594 1041 c 4
 1577 1111 1570 1308 1590 1377 c 5
 1460 1397 l 5
 1460 1447 l 5
 1565 1462 l 5
 1607 1597 1690 1610 1774 1609 c 4
 1845 1608 1880 1585 1918 1525 c 4
 1953 1470 1931 1386 1948 1313 c 4
 1991 1134 2021 1071 2154 901 c 4
 2250 779 2376 640 2494 540 c 4
 2578 469 2619 443 2638 437 c 5
 2610 416 2480 374 2390 362 c 4
 2292 349 2138 373 2118 373 c 5
 2158 265 l 5
 2070 80 l 5
 2175 80 l 29
 2210 0 l 29
 1450 0 l 29
420 1440 m 29
 500 1440 l 29
 500 1390 l 29
 540 1390 l 29
 540 1440 l 29
 620 1440 l 29
 620 1350 l 29
 560 1350 l 29
 550 1270 l 29
 490 1269 l 29
 480 1350 l 29
 420 1350 l 29
 420 1440 l 29
1248 346 m 5
 1186 458 1183 456 1140 580 c 4
 1095 711 1081 758 1009 884 c 4
 911 1056 869 1094 812 1176 c 4
 786 1213 688 1306 670 1419 c 5
 670 1550 l 29
 370 1550 l 29
 370 1360 l 21
 371 1230 369 1117 407 999 c 4
 441 893 463 850 523 756 c 4
 597 640 621 608 694 506 c 4
 727 460 814 351 840 300 c 5
 969 300 l 5
 980 336 970 335 980 368 c 4
 988 394 1000 419 1025 410 c 4
 1064 396 1112 356 1153 255 c 4
 1172 208 1177 174 1207 130 c 13
 1322 130 l 29
 1314 164 1293 211 1274 240 c 28
 1232 304 1206 331 1151 384 c 4
 1017 513 975 548 839 667 c 28
 749 746 626 789 563 891 c 4
 520 960 486 1033 536 1098 c 4
 582 1158 699 1134 771 1114 c 4
 796 1107 785 1077 760 1073 c 4
 746 1071 638 1122 579 1071 c 4
 541 1038 569 953 599 913 c 4
 687 797 750 795 861 701 c 4
 994 588 1113 490 1248 346 c 5
500 300 m 29
 780 300 l 5
 751 347 681 429 632 497 c 4
 585 562 546 624 500 692 c 5
 500 300 l 29
800 80 m 29
 800 250 l 29
 500 250 l 29
 500 80 l 29
 800 80 l 29
850 0 m 29
 200 0 l 29
 225 80 l 29
 450 80 l 29
 450 750 l 5
 409 852 388 881 353 985 c 4
 325 1069 314 1228 317 1330 c 4
 319 1396 321 1534 320 1600 c 5
 720 1600 l 29
 720 1440 l 5
 728 1366 751 1356 803 1282 c 4
 908 1132 896 1149 989 1015 c 4
 1052 924 1124 792 1224 496 c 4
 1253 410 1394 171 1400 160 c 5
 1343 210 l 5
 1343 192 1353 174 1358 157 c 4
 1365 134 1375 103 1380 80 c 5
 1181 80 l 5
 1140 138 1150 136 1120 211 c 4
 1097 270 1080 321 1030 360 c 5
 1021 344 1022 338 1019 322 c 4
 1015 301 1013 268 1000 250 c 5
 850 250 l 29
 850 0 l 29
EndSplineSet
Validated: 33
EndChar

StartChar: uni3081
Encoding: 12417 12417 42
Width: 1748
VWidth: 0
Flags: HW
HStem: 0 21G<398 448>
VStem: 204 58<533.641 1028.73> 398 50<0 400 457 1514>
LayerCount: 2
Fore
SplineSet
1498 457 m 5
 1498 1514 l 5
 1448 1534 l 5
 1430 1452 1417 1370 1408 1287 c 4
 1400 1215 1394 1143 1388 1071 c 4
 1382 999 1375 927 1371 855 c 4
 1369 819 1367 783 1366 747 c 4
 1365 711 1363 674 1362 638 c 4
 1361 603 1359 567 1357 532 c 5
 1498 457 l 5
1548 0 m 5
 1498 0 l 5
 1498 400 l 5
 1300 500 l 5
 1301 544 1302 588 1304 632 c 4
 1307 703 1310 775 1315 846 c 4
 1321 933 1330 1019 1339 1106 c 4
 1347 1178 1355 1250 1365 1321 c 4
 1378 1415 1396 1508 1418 1600 c 5
 1548 1550 l 5
 1548 0 l 5
420 1440 m 29
 500 1440 l 29
 500 1390 l 29
 540 1390 l 29
 540 1440 l 29
 620 1440 l 29
 620 1350 l 29
 560 1350 l 29
 550 1270 l 29
 490 1269 l 29
 480 1350 l 29
 420 1350 l 29
 420 1440 l 29
1248 346 m 5
 1186 458 1183 456 1140 580 c 4
 1095 711 1081 758 1009 884 c 4
 911 1056 869 1094 812 1176 c 4
 786 1213 688 1306 670 1419 c 5
 670 1550 l 29
 370 1550 l 29
 370 1360 l 21
 371 1230 369 1117 407 999 c 4
 441 893 463 850 523 756 c 4
 597 640 621 608 694 506 c 4
 727 460 814 351 840 300 c 5
 969 300 l 5
 980 336 970 335 980 368 c 4
 988 394 1000 419 1025 410 c 4
 1064 396 1112 356 1153 255 c 4
 1172 208 1177 174 1207 130 c 13
 1322 130 l 29
 1314 164 1293 211 1274 240 c 28
 1232 304 1206 331 1151 384 c 4
 1017 513 975 548 839 667 c 28
 749 746 626 789 563 891 c 4
 520 960 486 1033 536 1098 c 4
 582 1158 699 1134 771 1114 c 4
 796 1107 785 1077 760 1073 c 4
 746 1071 638 1122 579 1071 c 4
 541 1038 569 953 599 913 c 4
 687 797 750 795 861 701 c 4
 994 588 1113 490 1248 346 c 5
500 300 m 29
 780 300 l 5
 751 347 681 429 632 497 c 4
 585 562 546 624 500 692 c 5
 500 300 l 29
800 80 m 29
 800 250 l 29
 500 250 l 29
 500 80 l 29
 800 80 l 29
850 0 m 29
 200 0 l 29
 225 80 l 29
 450 80 l 29
 450 750 l 5
 409 852 388 881 353 985 c 4
 325 1069 314 1228 317 1330 c 4
 319 1396 321 1534 320 1600 c 5
 720 1600 l 29
 720 1440 l 5
 728 1366 751 1356 803 1282 c 4
 908 1132 896 1149 989 1015 c 4
 1052 924 1124 792 1224 496 c 4
 1253 410 1394 171 1400 160 c 5
 1343 210 l 5
 1343 192 1353 174 1358 157 c 4
 1365 134 1375 103 1380 80 c 5
 1181 80 l 5
 1140 138 1150 136 1120 211 c 4
 1097 270 1080 321 1030 360 c 5
 1021 344 1022 338 1019 322 c 4
 1015 301 1013 268 1000 250 c 5
 850 250 l 29
 850 0 l 29
EndSplineSet
Validated: 33
EndChar

StartChar: uni3082
Encoding: 12418 12418 43
Width: 2495
VWidth: 0
Flags: HW
HStem: 236 44<436.715 570.905> 650 50<428.992 476.813 526.813 574.376> 695 50<601.871 804.017> 800 50<199.813 476.813> 905 50<602.981 804.016> 1550.06 50.1658<660.51 863.364>
VStem: 309.813 50<357.306 570.624> 476.813 50<700 800 850 1441.32> 643.813 50<360.401 572.227> 839.813 50<774.992 876.449> 995.813 50<176.898 1437.07>
LayerCount: 2
Fore
SplineSet
1672 825 m 4
 1672 792 1707 769 1732 758 c 4
 1759 746 1779 743 1809 743 c 4
 1838 743 1859 747 1885 759 c 4
 1906 769 1940 797 1940 825 c 4
 1940 856 1903 883 1885 891 c 4
 1859 902 1838 907 1809 907 c 4
 1779 907 1759 904 1732 892 c 4
 1707 881 1672 859 1672 825 c 4
1602 650 m 4
 1581 650 1559 644 1541 633 c 4
 1523 622 1507 608 1495 590 c 4
 1471 555 1461 511 1460 468 c 4
 1459 424 1461 380 1485 343 c 4
 1506 312 1541 280 1602 280 c 4
 1669 280 1705 311 1723 343 c 4
 1741 374 1745 424 1744 468 c 4
 1743 511 1733 555 1709 590 c 4
 1697 608 1681 622 1663 633 c 4
 1645 644 1623 650 1602 650 c 4
2146 1380 m 6
 2146 270 l 6
 2146 267 2146 265 2146 262 c 4
 2146 259 2147 257 2148 255 c 4
 2149 250 2150 246 2151 241 c 4
 2152 236 2153 231 2154 226 c 4
 2155 221 2157 217 2158 212 c 4
 2159 208 2161 203 2162 199 c 4
 2163 195 2165 190 2167 186 c 4
 2169 181 2171 177 2173 172 c 4
 2175 167 2178 163 2180 158 c 4
 2183 153 2185 149 2188 144 c 4
 2191 139 2195 134 2198 129 c 4
 2201 124 2205 119 2208 114 c 4
 2211 109 2215 105 2218 100 c 4
 2221 96 2225 91 2228 87 c 4
 2231 83 2235 79 2239 75 c 4
 2243 71 2247 68 2252 65 c 4
 2255 63 2257 62 2260 60 c 4
 2263 58 2265 57 2268 55 c 4
 2271 53 2274 52 2276 50 c 4
 2277 49 2279 48 2280 47 c 4
 2281 47 2281 46 2282 46 c 4
 2283 46 2283 45 2284 44 c 4
 2285 43 2285 43 2285 42 c 4
 2285 41 2286 41 2287 40 c 4
 2288 39 2289 38 2290 37 c 4
 2291 36 2291 36 2291 35 c 4
 2291 34 2292 33 2292 32 c 4
 2293 31 2293 29 2294 28 c 4
 2295 27 2295 25 2295 24 c 4
 2295 22 2295 21 2295 19 c 4
 2295 18 2294 16 2294 15 c 4
 2294 14 2293 13 2293 12 c 4
 2292 11 2292 10 2291 9 c 4
 2291 8 2290 8 2290 7 c 4
 2290 6 2289 6 2289 6 c 4
 2289 6 2288 5 2287 5 c 4
 2286 5 2287 4 2286 4 c 4
 2285 3 2284 3 2283 2 c 4
 2282 1 2281 1 2280 1 c 4
 2278 1 2277 0 2275 0 c 4
 2273 0 2271 -1 2269 -1 c 4
 2267 -1 2266 -1 2264 0 c 4
 2261 1 2257 2 2254 3 c 4
 2251 4 2248 6 2245 8 c 4
 2242 10 2240 12 2237 14 c 4
 2235 16 2232 19 2230 21 c 4
 2227 24 2225 26 2222 29 c 4
 2220 31 2217 34 2215 36 c 4
 2211 40 2206 45 2202 49 c 4
 2198 53 2193 57 2189 61 c 4
 2185 65 2180 69 2176 74 c 4
 2171 79 2167 84 2163 90 c 4
 2159 96 2156 101 2152 107 c 4
 2148 113 2145 118 2141 124 c 4
 2138 129 2135 135 2132 140 c 4
 2129 145 2127 151 2124 156 c 4
 2121 161 2119 167 2117 172 c 4
 2115 177 2114 182 2112 187 c 4
 2110 192 2108 197 2107 202 c 4
 2106 207 2105 213 2104 218 c 4
 2103 224 2102 229 2101 235 c 4
 2100 241 2099 247 2098 253 c 4
 2097 256 2096 258 2096 261 c 4
 2096 264 2096 267 2096 270 c 6
 2096 1380 l 6
 2093 1390 2090 1400 2086 1410 c 4
 2082 1420 2077 1430 2071 1439 c 4
 2065 1448 2058 1456 2051 1464 c 4
 2043 1473 2034 1481 2024 1489 c 4
 2015 1496 2004 1503 1994 1509 c 4
 1984 1515 1973 1521 1962 1526 c 4
 1952 1531 1941 1536 1930 1539 c 4
 1919 1542 1907 1545 1896 1547 c 4
 1885 1549 1873 1550 1862 1550 c 4
 1861 1550 1861 1550 1860 1550 c 4
 1859 1550 l 4
 1858 1550 1858 1550 1857 1550 c 4
 1845 1550 1833 1549 1821 1546 c 4
 1809 1543 1797 1540 1786 1536 c 4
 1775 1532 1764 1527 1753 1522 c 4
 1742 1517 1731 1511 1721 1505 c 4
 1711 1499 1700 1492 1691 1484 c 4
 1682 1476 1673 1468 1665 1459 c 4
 1659 1452 1653 1443 1648 1435 c 4
 1643 1426 1639 1417 1635 1408 c 4
 1632 1399 1629 1390 1627 1380 c 6
 1627 850 l 6
 1628 852 1628 853 1629 855 c 4
 1632 860 1635 865 1639 870 c 4
 1646 878 1653 887 1660 895 c 4
 1669 905 1678 914 1689 921 c 4
 1703 931 1719 939 1736 945 c 4
 1759 953 1784 956 1809 955 c 4
 1841 954 1874 947 1902 932 c 4
 1926 919 1948 901 1966 880 c 4
 1973 872 1979 864 1983 855 c 4
 1987 846 1990 835 1990 825 c 4
 1990 815 1987 804 1983 795 c 4
 1979 786 1973 777 1966 769 c 4
 1948 748 1926 730 1902 717 c 4
 1874 702 1841 695 1809 695 c 4
 1785 695 1761 697 1738 704 c 4
 1722 709 1706 716 1692 726 c 4
 1680 734 1670 744 1660 755 c 4
 1653 763 1646 771 1640 779 c 4
 1636 784 1633 789 1630 794 c 4
 1629 796 1628 798 1627 800 c 6
 1627 700 l 6
 1631 700 1634 700 1638 699 c 4
 1647 698 1656 695 1665 691 c 4
 1677 686 1688 678 1699 670 c 4
 1714 659 1727 646 1739 632 c 4
 1755 614 1768 593 1777 570 c 4
 1790 538 1794 503 1794 468 c 4
 1794 433 1792 398 1783 364 c 4
 1774 329 1755 296 1727 274 c 4
 1710 260 1689 250 1668 244 c 4
 1647 238 1624 236 1602 236 c 4
 1559 236 1516 247 1482 273 c 4
 1454 295 1435 327 1424 361 c 4
 1413 395 1409 432 1410 468 c 4
 1411 502 1415 536 1426 568 c 4
 1434 591 1445 612 1461 631 c 4
 1474 646 1489 659 1505 670 c 4
 1517 678 1529 685 1542 691 c 4
 1550 695 1558 698 1567 699 c 4
 1570 700 1574 700 1577 700 c 6
 1577 800 l 5
 1300 800 l 5
 1300 850 l 5
 1577 850 l 5
 1577 1380 l 6
 1579 1392 1581 1404 1585 1415 c 4
 1589 1426 1594 1437 1599 1448 c 4
 1605 1459 1611 1469 1618 1479 c 4
 1627 1491 1638 1503 1649 1513 c 4
 1660 1523 1672 1533 1685 1541 c 4
 1698 1549 1711 1557 1725 1564 c 4
 1739 1571 1753 1577 1767 1582 c 4
 1782 1587 1797 1590 1812 1594 c 4
 1827 1598 1842 1600 1857 1600 c 4
 1858 1600 1860 1600 1861 1600 c 4
 1862 1600 1863 1600 1864 1600 c 4
 1865 1600 1867 1600 1868 1600 c 4
 1882 1600 1895 1599 1909 1597 c 4
 1923 1595 1936 1592 1949 1588 c 4
 1962 1584 1975 1579 1987 1574 c 4
 2000 1568 2013 1562 2025 1554 c 4
 2037 1546 2049 1537 2060 1528 c 4
 2071 1519 2081 1509 2090 1498 c 4
 2099 1487 2108 1475 2115 1462 c 4
 2122 1449 2129 1436 2134 1422 c 4
 2139 1408 2143 1394 2146 1380 c 6
420 1440 m 29
 500 1440 l 29
 500 1390 l 29
 540 1390 l 29
 540 1440 l 29
 620 1440 l 29
 620 1350 l 29
 560 1350 l 29
 550 1270 l 29
 490 1269 l 29
 480 1350 l 29
 420 1350 l 29
 420 1440 l 29
1248 346 m 5
 1186 458 1183 456 1140 580 c 4
 1095 711 1081 758 1009 884 c 4
 911 1056 869 1094 812 1176 c 4
 786 1213 688 1306 670 1419 c 5
 670 1550 l 29
 370 1550 l 29
 370 1360 l 21
 371 1230 369 1117 407 999 c 4
 441 893 463 850 523 756 c 4
 597 640 621 608 694 506 c 4
 727 460 814 351 840 300 c 5
 969 300 l 5
 980 336 970 335 980 368 c 4
 988 394 1000 419 1025 410 c 4
 1064 396 1112 356 1153 255 c 4
 1172 208 1177 174 1207 130 c 13
 1322 130 l 29
 1314 164 1293 211 1274 240 c 28
 1232 304 1206 331 1151 384 c 4
 1017 513 975 548 839 667 c 28
 749 746 626 789 563 891 c 4
 520 960 486 1033 536 1098 c 4
 582 1158 699 1134 771 1114 c 4
 796 1107 785 1077 760 1073 c 4
 746 1071 638 1122 579 1071 c 4
 541 1038 569 953 599 913 c 4
 687 797 750 795 861 701 c 4
 994 588 1113 490 1248 346 c 5
500 300 m 29
 780 300 l 5
 751 347 681 429 632 497 c 4
 585 562 546 624 500 692 c 5
 500 300 l 29
800 80 m 29
 800 250 l 29
 500 250 l 29
 500 80 l 29
 800 80 l 29
850 0 m 29
 200 0 l 29
 225 80 l 29
 450 80 l 29
 450 750 l 5
 409 852 388 881 353 985 c 4
 325 1069 314 1228 317 1330 c 4
 319 1396 321 1534 320 1600 c 5
 720 1600 l 29
 720 1440 l 5
 728 1366 751 1356 803 1282 c 4
 908 1132 896 1149 989 1015 c 4
 1052 924 1124 792 1224 496 c 4
 1253 410 1394 171 1400 160 c 5
 1343 210 l 5
 1343 192 1353 174 1358 157 c 4
 1365 134 1375 103 1380 80 c 5
 1181 80 l 5
 1140 138 1150 136 1120 211 c 4
 1097 270 1080 321 1030 360 c 5
 1021 344 1022 338 1019 322 c 4
 1015 301 1013 268 1000 250 c 5
 850 250 l 29
 850 0 l 29
EndSplineSet
Validated: 33
EndChar

StartChar: uni308F
Encoding: 12431 12431 44
Width: 2700
VWidth: 0
Flags: HW
LayerCount: 2
Fore
SplineSet
2450 650 m 29
 2450 950 l 29
 2350 950 l 29
 2350 650 l 29
 2450 650 l 29
2500 1000 m 5
 2500 600 l 5
 1300 600 l 29
 1300 650 l 29
 1550 650 l 29
 1550 700 l 29
 1350 700 l 29
 1350 740 l 5
 1432 762 1496 759 1538 750 c 4
 1592 738 1600 736 1620 680 c 5
 2300 680 l 5
 2300 1000 l 5
 2500 1000 l 5
390 1377 m 5
 390 1377 367 1309 384 1146 c 4
 399 1005 412 954 483 784 c 4
 525 684 611 585 622 569 c 4
 671 498 726 468 760 451 c 4
 805 428 986 408 1078 408 c 4
 1153 408 1232 428 1282 446 c 5
 1147 545 1147 547 1029 665 c 4
 942 752 850 861 782 964 c 5
 743 954 713 940 691 917 c 4
 677 902 673 888 677 868 c 4
 683 838 693 821 719 802 c 4
 742 785 752 773 773 754 c 5
 713 730 643 708 584 742 c 4
 538 769 514 811 498 862 c 4
 481 917 467 967 484 1020 c 4
 489 1036 529 1043 529 1027 c 4
 529 930 541 896 563 845 c 4
 598 764 643 769 685 771 c 5
 661 795 648 811 636 844 c 4
 613 907 644 939 661 960 c 4
 685 990 722 992 755 1012 c 5
 698 1117 698 1131 651 1267 c 4
 617 1365 658 1412 617 1496 c 4
 596 1539 561 1551 497 1550 c 4
 413 1549 402 1516 368 1457 c 4
 349 1424 380 1414 390 1377 c 5
661 452 m 13
 615 80 l 29
 750 80 l 29
 838 265 l 29
 798 386 l 29
 772 391 756 398 731 409 c 4
 706 420 683 437 661 452 c 13
422 1434 m 4x8fc0
 422 1457 441 1474 464 1474 c 4
 487 1474 506 1457 506 1434 c 4
 506 1411 487 1394 464 1394 c 4
 441 1394 422 1411 422 1434 c 4x8fc0
200 0 m 29
 225 80 l 29
 555 80 l 5
 608 500 l 5
 541 594 479 681 428 785 c 4
 382 878 372 928 344 1041 c 4
 327 1111 320 1308 340 1377 c 5
 210 1397 l 5
 210 1447 l 5
 315 1462 l 5
 357 1597 440 1610 524 1609 c 4
 595 1608 630 1585 668 1525 c 4
 703 1470 681 1386 698 1313 c 4
 741 1134 771 1071 904 901 c 4
 1000 779 1126 640 1244 540 c 4
 1328 469 1369 443 1388 437 c 5
 1360 416 1230 374 1140 362 c 4
 1042 349 888 373 868 373 c 5
 908 265 l 5
 820 80 l 5
 925 80 l 29
 960 0 l 29
 200 0 l 29
EndSplineSet
Validated: 33
EndChar

StartChar: uni304C
Encoding: 12364 12364 45
Width: 2400
VWidth: 0
Flags: HW
LayerCount: 2
Fore
SplineSet
1143 1488 m 0x8fc0
 1143 1507 1159 1521 1178 1521 c 0
 1197 1521 1213 1507 1213 1488 c 0
 1213 1469 1197 1455 1178 1455 c 0
 1159 1455 1143 1469 1143 1488 c 0x8fc0
1481 230 m 1xa7c0
 1606 230 l 1xc7c0
 1606 475 l 1
 1558 541 1450 644 1358 758 c 0
 1325 799 1221 948 1215 1058 c 0
 1212 1110 1242 1163 1276 1176 c 0
 1329 1196 1402 1195 1420 1197 c 1
 1353 1244 l 1
 1313 1292 1329 1265 1297 1318 c 0
 1272 1360 1277 1415 1282 1457 c 0
 1290 1519 1275 1544 1252 1547 c 0
 1223 1551 1142 1522 1115 1511 c 0
 1055 1486 1099 1505 1120 1460 c 1
 1120 1181 l 1
 1113 1147 1121 1125 1119 1092 c 0
 1116 1047 1128 968 1141 928 c 0
 1163 862 1209 840 1258 782 c 0
 1305 726 1315 733 1360 679 c 0
 1409 621 1429 581 1458 521 c 0
 1473 490 1480 433 1481 395 c 1
 1481 230 l 1xa7c0
2066 250 m 1
 2075 320 l 1
 2075 406 1900 744 1812 858 c 0
 1752 936 1596 1089 1520 1140 c 0
 1477 1169 1353 1152 1306 1133 c 0
 1266 1117 1264 1087 1262 1043 c 0
 1260 988 1364 842 1391 803 c 0
 1418 764 1644 502 1775 407 c 0
 1826 370 1934 321 1960 310 c 0
 2046 273 2039 258 2066 250 c 1
2134 58 m 1
 2114 109 l 1
 2100 121 2058 210 1890 287 c 0
 1835 312 1721 383 1706 392 c 1
 1715 358 1753 244 1788 216 c 0
 1858 160 1892 146 1940 126 c 0
 2002 100 2113 65 2134 58 c 1
1274 230 m 1xa7c0
 1431 230 l 1
 1432 418 l 1
 1436 451 1399 522 1386 548 c 0
 1366 588 1310 665 1282 683 c 0
 1270 691 1275 566 1274 437 c 1
 1274 230 l 1xa7c0
1441 80 m 1
 1441 180 l 25
 1274 180 l 1
 1274 80 l 25
 1441 80 l 1
901 0 m 1
 926 80 l 1
 1224 80 l 1
 1224 730 l 1
 1207 788 1170 786 1127 845 c 0
 1094 890 1063 988 1066 1080 c 2
 1066 1080 1067 1160 1070 1187 c 1
 1070 1443 l 1
 900 1443 l 1
 900 1505 l 1
 1116 1560 l 1
 1141 1576 1161 1580 1188 1588 c 0
 1207 1593 1243 1601 1262 1600 c 0
 1281 1599 1292 1593 1306 1580 c 0
 1352 1540 1342 1502 1329 1470 c 0
 1322 1453 1325 1373 1338 1347 c 0
 1350 1324 1424 1251 1445 1241 c 0
 1720 1110 1960 785 2073 484 c 0
 2119 361 2140 320 2108 224 c 1
 2117 200 2158 156 2176 114 c 0
 2190 81 2193 9 2200 0 c 1
 2174 0 l 2
 2154 0 1964 53 1910 80 c 0
 1866 102 1816 116 1756 174 c 0
 1733 196 1702 238 1680 316 c 0
 1677 328 1652 434 1652 434 c 2
 1656 160 l 1
 1491 160 l 1xd7c0
 1491 80 l 1
 1744 80 l 1
 1769 0 l 1
 901 0 l 1
504 600 m 5
 696 600 l 5
 600 788 l 5
 504 600 l 5
420 550 m 29
 600 900 l 29
 780 550 l 29
 420 550 l 29
830 1100 m 13
 370 1100 l 21
 370 984 352 850 330 740 c 4
 307 623 297 589 260 477 c 5
 380 422 463 380 600 380 c 4
 730 380 830 433 940 477 c 5
 903 588 893 620 870 740 c 4
 849 848 830 984 830 1100 c 13
250 1150 m 5
 950 1150 l 5
 950 1028 880 1132 880 1050 c 4
 880 959 889 891 920 740 c 4
 946 614 964 568 1000 450 c 5
 864 380 750 330 600 330 c 4
 449 330 336 380 200 450 c 5
 236 558 262 627 280 740 c 4
 306 900 320 958 320 1050 c 4
 320 1134 250 1032 250 1150 c 5
EndSplineSet
Validated: 33
EndChar

StartChar: uni304E
Encoding: 12366 12366 46
Width: 1200
VWidth: 0
Flags: HW
LayerCount: 2
Fore
SplineSet
525 700 m 29
 595 700 l 29
 995 0 l 29
 925 0 l 29
 525 700 l 29
265 700 m 29
 335 700 l 29
 735 0 l 29
 665 0 l 29
 265 700 l 29
504 1050 m 5
 696 1050 l 5
 600 1238 l 5
 504 1050 l 5
420 1000 m 29
 600 1350 l 29
 780 1000 l 29
 420 1000 l 29
830 1550 m 13
 370 1550 l 21
 370 1434 352 1300 330 1190 c 4
 307 1073 297 1039 260 927 c 5
 380 872 463 830 600 830 c 4
 730 830 830 883 940 927 c 5
 903 1038 893 1070 870 1190 c 4
 849 1298 830 1434 830 1550 c 13
250 1600 m 5
 950 1600 l 5
 950 1478 880 1582 880 1500 c 4
 880 1409 889 1341 920 1190 c 4
 946 1064 964 1018 1000 900 c 5
 864 830 750 780 600 780 c 4
 449 780 336 830 200 900 c 5
 236 1008 262 1077 280 1190 c 4
 306 1350 320 1408 320 1500 c 4
 320 1584 250 1482 250 1600 c 5
EndSplineSet
Validated: 33
EndChar

StartChar: uni3050
Encoding: 12368 12368 47
Width: 2338
VWidth: 0
Flags: HW
LayerCount: 2
Fore
SplineSet
1140 1377 m 5
 1140 1377 1117 1309 1134 1146 c 4
 1149 1005 1162 954 1233 784 c 4
 1275 684 1361 585 1372 569 c 4
 1421 498 1476 468 1510 451 c 4
 1555 428 1736 408 1828 408 c 4
 1903 408 1982 428 2032 446 c 5
 1897 545 1897 547 1779 665 c 4
 1692 752 1600 861 1532 964 c 5
 1493 954 1463 940 1441 917 c 4
 1427 902 1423 888 1427 868 c 4
 1433 838 1443 821 1469 802 c 4
 1492 785 1502 773 1523 754 c 5
 1463 730 1393 708 1334 742 c 4
 1288 769 1264 811 1248 862 c 4
 1231 917 1217 967 1234 1020 c 4
 1239 1036 1279 1043 1279 1027 c 4
 1279 930 1291 896 1313 845 c 4
 1348 764 1393 769 1435 771 c 5
 1411 795 1398 811 1386 844 c 4
 1363 907 1394 939 1411 960 c 4
 1435 990 1472 992 1505 1012 c 5
 1448 1117 1448 1131 1401 1267 c 4
 1367 1365 1408 1412 1367 1496 c 4
 1346 1539 1311 1551 1247 1550 c 4
 1163 1549 1152 1516 1118 1457 c 4
 1099 1424 1130 1414 1140 1377 c 5
1411 452 m 13
 1365 80 l 29
 1500 80 l 29
 1588 265 l 29
 1548 386 l 29
 1522 391 1506 398 1481 409 c 4
 1456 420 1433 437 1411 452 c 13
1172 1434 m 4x8fc0
 1172 1457 1191 1474 1214 1474 c 4
 1237 1474 1256 1457 1256 1434 c 4
 1256 1411 1237 1394 1214 1394 c 4
 1191 1394 1172 1411 1172 1434 c 4x8fc0
950 0 m 29
 975 80 l 29
 1305 80 l 5
 1358 500 l 5
 1291 594 1229 681 1178 785 c 4
 1132 878 1122 928 1094 1041 c 4
 1077 1111 1070 1308 1090 1377 c 5
 960 1397 l 5
 960 1447 l 5
 1065 1462 l 5
 1107 1597 1190 1610 1274 1609 c 4
 1345 1608 1380 1585 1418 1525 c 4
 1453 1470 1431 1386 1448 1313 c 4
 1491 1134 1521 1071 1654 901 c 4
 1750 779 1876 640 1994 540 c 4
 2078 469 2119 443 2138 437 c 5
 2110 416 1980 374 1890 362 c 4
 1792 349 1638 373 1618 373 c 5
 1658 265 l 5
 1570 80 l 5
 1675 80 l 29
 1710 0 l 29
 950 0 l 29
504 600 m 5
 696 600 l 5
 600 788 l 5
 504 600 l 5
420 550 m 29
 600 900 l 29
 780 550 l 29
 420 550 l 29
830 1100 m 13
 370 1100 l 21
 370 984 352 850 330 740 c 4
 307 623 297 589 260 477 c 5
 380 422 463 380 600 380 c 4
 730 380 830 433 940 477 c 5
 903 588 893 620 870 740 c 4
 849 848 830 984 830 1100 c 13
250 1150 m 5
 950 1150 l 5
 950 1028 880 1132 880 1050 c 4
 880 959 889 891 920 740 c 4
 946 614 964 568 1000 450 c 5
 864 380 750 330 600 330 c 4
 449 330 336 380 200 450 c 5
 236 558 262 627 280 740 c 4
 306 900 320 958 320 1050 c 4
 320 1134 250 1032 250 1150 c 5
EndSplineSet
Validated: 33
EndChar

StartChar: uni3052
Encoding: 12370 12370 48
Width: 1598
VWidth: 0
Flags: HW
HStem: 0 21G<398 448>
VStem: 204 58<533.641 1028.73> 398 50<0 400 457 1514>
LayerCount: 2
Fore
SplineSet
1348 457 m 5
 1348 1514 l 5
 1298 1534 l 5
 1280 1452 1267 1370 1258 1287 c 4
 1250 1215 1244 1143 1238 1071 c 4
 1232 999 1225 927 1221 855 c 4
 1219 819 1217 783 1216 747 c 4
 1215 711 1213 674 1212 638 c 4
 1211 603 1209 567 1207 532 c 5
 1348 457 l 5
1398 0 m 5
 1348 0 l 5
 1348 400 l 5
 1150 500 l 5
 1151 544 1152 588 1154 632 c 4
 1157 703 1160 775 1165 846 c 4
 1171 933 1180 1019 1189 1106 c 4
 1197 1178 1205 1250 1215 1321 c 4
 1228 1415 1246 1508 1268 1600 c 5
 1398 1550 l 5
 1398 0 l 5
504 600 m 5
 696 600 l 5
 600 788 l 5
 504 600 l 5
420 550 m 29
 600 900 l 29
 780 550 l 29
 420 550 l 29
830 1100 m 13
 370 1100 l 21
 370 984 352 850 330 740 c 4
 307 623 297 589 260 477 c 5
 380 422 463 380 600 380 c 4
 730 380 830 433 940 477 c 5
 903 588 893 620 870 740 c 4
 849 848 830 984 830 1100 c 13
250 1150 m 5
 950 1150 l 5
 950 1028 880 1132 880 1050 c 4
 880 959 889 891 920 740 c 4
 946 614 964 568 1000 450 c 5
 864 380 750 330 600 330 c 4
 449 330 336 380 200 450 c 5
 236 558 262 627 280 740 c 4
 306 900 320 958 320 1050 c 4
 320 1134 250 1032 250 1150 c 5
EndSplineSet
Validated: 33
EndChar

StartChar: uni3054
Encoding: 12372 12372 49
Width: 2295
VWidth: 0
Flags: HW
HStem: 236 44<436.715 570.905> 650 50<428.992 476.813 526.813 574.376> 695 50<601.871 804.017> 800 50<199.813 476.813> 905 50<602.981 804.016> 1550.06 50.1658<660.51 863.364>
VStem: 309.813 50<357.306 570.624> 476.813 50<700 800 850 1441.32> 643.813 50<360.401 572.227> 839.813 50<774.992 876.449> 995.813 50<176.898 1437.07>
LayerCount: 2
Fore
SplineSet
1472 825 m 4
 1472 792 1507 769 1532 758 c 4
 1559 746 1579 743 1609 743 c 4
 1638 743 1659 747 1685 759 c 4
 1706 769 1740 797 1740 825 c 4
 1740 856 1703 883 1685 891 c 4
 1659 902 1638 907 1609 907 c 4
 1579 907 1559 904 1532 892 c 4
 1507 881 1472 859 1472 825 c 4
1402 650 m 4
 1381 650 1359 644 1341 633 c 4
 1323 622 1307 608 1295 590 c 4
 1271 555 1261 511 1260 468 c 4
 1259 424 1261 380 1285 343 c 4
 1306 312 1341 280 1402 280 c 4
 1469 280 1505 311 1523 343 c 4
 1541 374 1545 424 1544 468 c 4
 1543 511 1533 555 1509 590 c 4
 1497 608 1481 622 1463 633 c 4
 1445 644 1423 650 1402 650 c 4
1946 1380 m 6
 1946 270 l 6
 1946 267 1946 265 1946 262 c 4
 1946 259 1947 257 1948 255 c 4
 1949 250 1950 246 1951 241 c 4
 1952 236 1953 231 1954 226 c 4
 1955 221 1957 217 1958 212 c 4
 1959 208 1961 203 1962 199 c 4
 1963 195 1965 190 1967 186 c 4
 1969 181 1971 177 1973 172 c 4
 1975 167 1978 163 1980 158 c 4
 1983 153 1985 149 1988 144 c 4
 1991 139 1995 134 1998 129 c 4
 2001 124 2005 119 2008 114 c 4
 2011 109 2015 105 2018 100 c 4
 2021 96 2025 91 2028 87 c 4
 2031 83 2035 79 2039 75 c 4
 2043 71 2047 68 2052 65 c 4
 2055 63 2057 62 2060 60 c 4
 2063 58 2065 57 2068 55 c 4
 2071 53 2074 52 2076 50 c 4
 2077 49 2079 48 2080 47 c 4
 2081 47 2081 46 2082 46 c 4
 2083 46 2083 45 2084 44 c 4
 2085 43 2085 43 2085 42 c 4
 2085 41 2086 41 2087 40 c 4
 2088 39 2089 38 2090 37 c 4
 2091 36 2091 36 2091 35 c 4
 2091 34 2092 33 2092 32 c 4
 2093 31 2093 29 2094 28 c 4
 2095 27 2095 25 2095 24 c 4
 2095 22 2095 21 2095 19 c 4
 2095 18 2094 16 2094 15 c 4
 2094 14 2093 13 2093 12 c 4
 2092 11 2092 10 2091 9 c 4
 2091 8 2090 8 2090 7 c 4
 2090 6 2089 6 2089 6 c 4
 2089 6 2088 5 2087 5 c 4
 2086 5 2087 4 2086 4 c 4
 2085 3 2084 3 2083 2 c 4
 2082 1 2081 1 2080 1 c 4
 2078 1 2077 0 2075 0 c 4
 2073 0 2071 -1 2069 -1 c 4
 2067 -1 2066 -1 2064 0 c 4
 2061 1 2057 2 2054 3 c 4
 2051 4 2048 6 2045 8 c 4
 2042 10 2040 12 2037 14 c 4
 2035 16 2032 19 2030 21 c 4
 2027 24 2025 26 2022 29 c 4
 2020 31 2017 34 2015 36 c 4
 2011 40 2006 45 2002 49 c 4
 1998 53 1993 57 1989 61 c 4
 1985 65 1980 69 1976 74 c 4
 1971 79 1967 84 1963 90 c 4
 1959 96 1956 101 1952 107 c 4
 1948 113 1945 118 1941 124 c 4
 1938 129 1935 135 1932 140 c 4
 1929 145 1927 151 1924 156 c 4
 1921 161 1919 167 1917 172 c 4
 1915 177 1914 182 1912 187 c 4
 1910 192 1908 197 1907 202 c 4
 1906 207 1905 213 1904 218 c 4
 1903 224 1902 229 1901 235 c 4
 1900 241 1899 247 1898 253 c 4
 1897 256 1896 258 1896 261 c 4
 1896 264 1896 267 1896 270 c 6
 1896 1380 l 6
 1893 1390 1890 1400 1886 1410 c 4
 1882 1420 1877 1430 1871 1439 c 4
 1865 1448 1858 1456 1851 1464 c 4
 1843 1473 1834 1481 1824 1489 c 4
 1815 1496 1804 1503 1794 1509 c 4
 1784 1515 1773 1521 1762 1526 c 4
 1752 1531 1741 1536 1730 1539 c 4
 1719 1542 1707 1545 1696 1547 c 4
 1685 1549 1673 1550 1662 1550 c 4
 1661 1550 1661 1550 1660 1550 c 4
 1659 1550 l 4
 1658 1550 1658 1550 1657 1550 c 4
 1645 1550 1633 1549 1621 1546 c 4
 1609 1543 1597 1540 1586 1536 c 4
 1575 1532 1564 1527 1553 1522 c 4
 1542 1517 1531 1511 1521 1505 c 4
 1511 1499 1500 1492 1491 1484 c 4
 1482 1476 1473 1468 1465 1459 c 4
 1459 1452 1453 1443 1448 1435 c 4
 1443 1426 1439 1417 1435 1408 c 4
 1432 1399 1429 1390 1427 1380 c 6
 1427 850 l 6
 1428 852 1428 853 1429 855 c 4
 1432 860 1435 865 1439 870 c 4
 1446 878 1453 887 1460 895 c 4
 1469 905 1478 914 1489 921 c 4
 1503 931 1519 939 1536 945 c 4
 1559 953 1584 956 1609 955 c 4
 1641 954 1674 947 1702 932 c 4
 1726 919 1748 901 1766 880 c 4
 1773 872 1779 864 1783 855 c 4
 1787 846 1790 835 1790 825 c 4
 1790 815 1787 804 1783 795 c 4
 1779 786 1773 777 1766 769 c 4
 1748 748 1726 730 1702 717 c 4
 1674 702 1641 695 1609 695 c 4
 1585 695 1561 697 1538 704 c 4
 1522 709 1506 716 1492 726 c 4
 1480 734 1470 744 1460 755 c 4
 1453 763 1446 771 1440 779 c 4
 1436 784 1433 789 1430 794 c 4
 1429 796 1428 798 1427 800 c 6
 1427 700 l 6
 1431 700 1434 700 1438 699 c 4
 1447 698 1456 695 1465 691 c 4
 1477 686 1488 678 1499 670 c 4
 1514 659 1527 646 1539 632 c 4
 1555 614 1568 593 1577 570 c 4
 1590 538 1594 503 1594 468 c 4
 1594 433 1592 398 1583 364 c 4
 1574 329 1555 296 1527 274 c 4
 1510 260 1489 250 1468 244 c 4
 1447 238 1424 236 1402 236 c 4
 1359 236 1316 247 1282 273 c 4
 1254 295 1235 327 1224 361 c 4
 1213 395 1209 432 1210 468 c 4
 1211 502 1215 536 1226 568 c 4
 1234 591 1245 612 1261 631 c 4
 1274 646 1289 659 1305 670 c 4
 1317 678 1329 685 1342 691 c 4
 1350 695 1358 698 1367 699 c 4
 1370 700 1374 700 1377 700 c 6
 1377 800 l 5
 1100 800 l 5
 1100 850 l 5
 1377 850 l 5
 1377 1380 l 6
 1379 1392 1381 1404 1385 1415 c 4
 1389 1426 1394 1437 1399 1448 c 4
 1405 1459 1411 1469 1418 1479 c 4
 1427 1491 1438 1503 1449 1513 c 4
 1460 1523 1472 1533 1485 1541 c 4
 1498 1549 1511 1557 1525 1564 c 4
 1539 1571 1553 1577 1567 1582 c 4
 1582 1587 1597 1590 1612 1594 c 4
 1627 1598 1642 1600 1657 1600 c 4
 1658 1600 1660 1600 1661 1600 c 4
 1662 1600 1663 1600 1664 1600 c 4
 1665 1600 1667 1600 1668 1600 c 4
 1682 1600 1695 1599 1709 1597 c 4
 1723 1595 1736 1592 1749 1588 c 4
 1762 1584 1775 1579 1787 1574 c 4
 1800 1568 1813 1562 1825 1554 c 4
 1837 1546 1849 1537 1860 1528 c 4
 1871 1519 1881 1509 1890 1498 c 4
 1899 1487 1908 1475 1915 1462 c 4
 1922 1449 1929 1436 1934 1422 c 4
 1939 1408 1943 1394 1946 1380 c 6
504 600 m 5
 696 600 l 5
 600 788 l 5
 504 600 l 5
420 550 m 29
 600 900 l 29
 780 550 l 29
 420 550 l 29
830 1100 m 13
 370 1100 l 21
 370 984 352 850 330 740 c 4
 307 623 297 589 260 477 c 5
 380 422 463 380 600 380 c 4
 730 380 830 433 940 477 c 5
 903 588 893 620 870 740 c 4
 849 848 830 984 830 1100 c 13
250 1150 m 5
 950 1150 l 5
 950 1028 880 1132 880 1050 c 4
 880 959 889 891 920 740 c 4
 946 614 964 568 1000 450 c 5
 864 380 750 330 600 330 c 4
 449 330 336 380 200 450 c 5
 236 558 262 627 280 740 c 4
 306 900 320 958 320 1050 c 4
 320 1134 250 1032 250 1150 c 5
EndSplineSet
Validated: 33
EndChar

StartChar: uni3056
Encoding: 12374 12374 50
Width: 1600
VWidth: 0
Flags: HW
LayerCount: 2
Fore
SplineSet
952 800 m 4
 952 829 931 850 900 850 c 4
 870 850 848 831 848 800 c 4
 848 771 871 750 900 750 c 4
 930 750 952 764 952 800 c 4
752 800 m 4
 752 825 725 850 700 850 c 4
 671 850 648 829 648 800 c 4
 648 772 672 750 700 750 c 4
 728 750 752 772 752 800 c 4
200 825 m 5
 600 825 l 5
 616 864 634 900 700 900 c 4
 751 900 790 860 800 825 c 5
 815 861 840 900 900 900 c 4
 964 900 985 868 1000 825 c 5
 1400 825 l 5
 1400 774 l 5
 1000 775 l 5
 987 728 958 700 900 700 c 4
 838 700 813 739 800 775 c 5
 790 741 753 700 700 700 c 4
 638 700 610 736 600 775 c 5
 200 775 l 5
 200 825 l 5
EndSplineSet
Validated: 1
EndChar

StartChar: uni305A
Encoding: 12378 12378 51
Width: 1600
VWidth: 0
Flags: HW
LayerCount: 2
Fore
SplineSet
952 1538 m 4
 952 1567 931 1588 900 1588 c 4
 870 1588 848 1569 848 1538 c 4
 848 1509 871 1488 900 1488 c 4
 930 1488 952 1502 952 1538 c 4
752 1538 m 4
 752 1563 725 1588 700 1588 c 4
 671 1588 648 1567 648 1538 c 4
 648 1510 672 1488 700 1488 c 4
 728 1488 752 1510 752 1538 c 4
200 1563 m 5
 600 1563 l 5
 616 1602 634 1638 700 1638 c 4
 751 1638 790 1598 800 1563 c 5
 815 1599 840 1638 900 1638 c 4
 964 1638 985 1606 1000 1563 c 5
 1400 1563 l 5
 1400 1512 l 5
 1000 1513 l 5
 987 1466 958 1438 900 1438 c 4
 838 1438 813 1477 800 1513 c 5
 790 1479 753 1438 700 1438 c 4
 638 1438 610 1474 600 1513 c 5
 200 1513 l 5
 200 1563 l 5
444 1240 m 5
 444 1240 424 1179 439 1032 c 4
 453 905 464 859 528 706 c 4
 566 616 643 527 653 513 c 4
 697 449 746 421 777 406 c 4
 817 385 981 368 1064 368 c 4
 1132 368 1202 386 1247 402 c 5
 1125 491 1126 493 1020 599 c 4
 942 677 858 775 797 868 c 5
 762 859 735 847 715 826 c 4
 702 812 699 800 703 782 c 4
 708 755 717 739 740 722 c 4
 761 707 770 696 789 679 c 5
 735 657 672 637 619 668 c 4
 578 692 556 730 542 776 c 4
 527 826 514 870 529 918 c 4
 533 932 570 939 570 925 c 4
 570 838 580 807 600 761 c 4
 632 688 672 692 710 694 c 5
 688 716 677 730 666 760 c 4
 645 817 673 845 688 864 c 4
 710 891 743 893 773 911 c 5
 722 1005 721 1019 679 1141 c 4
 648 1229 686 1271 649 1347 c 4
 630 1386 599 1396 541 1395 c 4
 465 1394 456 1365 425 1312 c 4
 408 1282 435 1273 444 1240 c 5
688 407 m 13
 647 72 l 29
 768 72 l 29
 848 239 l 29
 812 348 l 29
 789 352 773 359 751 369 c 4
 729 379 708 393 688 407 c 13
473 1291 m 4x8fc0
 473 1312 490 1327 511 1327 c 4
 532 1327 549 1312 549 1291 c 4
 549 1270 532 1255 511 1255 c 4
 490 1255 473 1270 473 1291 c 4x8fc0
273 0 m 29
 296 72 l 29
 593 72 l 5
 641 450 l 5
 581 535 525 613 479 707 c 4
 438 791 428 835 403 937 c 4
 388 1000 381 1178 399 1240 c 5
 282 1258 l 5
 282 1303 l 5
 377 1316 l 5
 415 1438 489 1450 565 1449 c 4
 629 1448 661 1427 695 1373 c 4
 727 1323 707 1248 722 1182 c 4
 761 1021 787 964 907 811 c 4
 993 701 1107 576 1213 486 c 4
 1289 422 1326 399 1343 394 c 5
 1318 375 1200 337 1119 326 c 4
 1031 314 893 336 875 336 c 5
 911 239 l 5
 831 72 l 5
 926 72 l 29
 957 0 l 29
 273 0 l 29
EndSplineSet
Validated: 33
EndChar

StartChar: uni305C
Encoding: 12380 12380 52
Width: 1600
VWidth: 0
Flags: HW
LayerCount: 2
Fore
SplineSet
829 411 m 5
 829 1363 l 5
 784 1381 l 5
 768 1307 756 1233 748 1158 c 4
 741 1093 735 1029 730 964 c 4
 725 899 718 835 714 770 c 4
 712 738 711 704 710 672 c 4
 709 640 707 606 706 574 c 4
 705 542 704 511 702 479 c 5
 829 411 l 5
874 0 m 5
 829 0 l 5
 829 360 l 5
 650 450 l 5
 651 490 652 529 654 569 c 4
 657 633 660 697 664 761 c 4
 669 839 678 917 686 995 c 4
 693 1060 700 1125 709 1189 c 4
 721 1274 737 1357 757 1440 c 5
 874 1395 l 5
 874 0 l 5
952 1538 m 0
 952 1567 931 1588 900 1588 c 0
 870 1588 848 1569 848 1538 c 0
 848 1509 871 1488 900 1488 c 0
 930 1488 952 1502 952 1538 c 0
752 1538 m 0
 752 1563 725 1588 700 1588 c 0
 671 1588 648 1567 648 1538 c 0
 648 1510 672 1488 700 1488 c 0
 728 1488 752 1510 752 1538 c 0
200 1563 m 1
 600 1563 l 1
 616 1602 634 1638 700 1638 c 0
 751 1638 790 1598 800 1563 c 1
 815 1599 840 1638 900 1638 c 0
 964 1638 985 1606 1000 1563 c 1
 1400 1563 l 1
 1400 1512 l 1
 1000 1513 l 1
 987 1466 958 1438 900 1438 c 0
 838 1438 813 1477 800 1513 c 1
 790 1479 753 1438 700 1438 c 0
 638 1438 610 1474 600 1513 c 1
 200 1513 l 1
 200 1563 l 1
EndSplineSet
Validated: 1
EndChar

StartChar: uni305E
Encoding: 12382 12382 53
Width: 1600
VWidth: 0
Flags: HW
LayerCount: 2
Fore
SplineSet
634 742 m 0
 634 712 666 692 688 682 c 0
 712 671 730 669 757 669 c 0
 783 669 802 672 825 683 c 0
 844 692 875 717 875 742 c 0
 875 770 841 795 825 802 c 0
 802 812 783 816 757 816 c 0
 730 816 712 814 688 803 c 0
 666 793 634 773 634 742 c 0
571 585 m 0
 552 585 532 580 516 570 c 0
 500 560 485 547 474 531 c 0
 452 499 444 460 443 421 c 0
 442 381 443 342 465 309 c 0
 484 281 516 252 571 252 c 0
 631 252 663 280 679 309 c 0
 695 337 699 381 698 421 c 0
 697 460 689 499 667 531 c 0
 656 547 641 560 625 570 c 0
 609 580 590 585 571 585 c 0
1060 1242 m 2
 1060 243 l 2
 1060 240 1060 239 1060 236 c 0
 1060 233 1061 231 1062 229 c 0
 1063 225 1064 221 1065 217 c 0
 1066 213 1066 207 1067 203 c 0
 1068 199 1070 195 1071 191 c 0
 1072 187 1074 183 1075 179 c 0
 1076 175 1077 171 1079 167 c 0
 1081 163 1082 159 1084 155 c 0
 1086 151 1089 146 1091 142 c 0
 1094 138 1095 134 1098 130 c 0
 1101 126 1104 120 1107 116 c 0
 1110 112 1113 107 1116 103 c 0
 1119 99 1122 94 1125 90 c 0
 1128 86 1131 82 1134 78 c 0
 1137 74 1140 71 1144 67 c 0
 1148 63 1152 61 1156 58 c 0
 1159 56 1160 56 1163 54 c 0
 1166 52 1167 51 1170 49 c 0
 1173 47 1175 47 1177 45 c 0
 1178 44 1180 43 1181 42 c 0
 1182 42 1182 41 1183 41 c 0
 1184 41 1183 41 1184 40 c 0
 1185 39 1185 39 1185 38 c 0
 1185 37 1186 37 1187 36 c 0
 1188 35 1189 34 1190 33 c 0
 1191 32 1191 32 1191 31 c 0
 1191 30 1192 30 1192 29 c 0
 1193 28 1192 26 1193 25 c 0
 1194 24 1194 23 1194 22 c 0
 1194 20 1194 19 1194 17 c 0
 1194 16 1193 14 1193 13 c 0
 1193 12 1192 12 1192 11 c 0
 1191 10 1192 9 1191 8 c 0
 1191 7 1190 7 1190 6 c 0
 1190 5 1189 5 1189 5 c 0
 1189 5 1188 4 1187 4 c 0
 1186 4 1187 4 1186 4 c 0
 1185 3 1184 3 1183 2 c 0
 1182 1 1182 1 1181 1 c 0
 1179 1 1178 0 1176 0 c 0
 1174 0 1173 0 1171 0 c 0
 1169 0 1168 -1 1166 0 c 0
 1163 1 1160 2 1157 3 c 0
 1154 4 1152 5 1149 7 c 0
 1146 9 1145 11 1142 13 c 0
 1140 15 1138 17 1136 19 c 0
 1133 22 1132 23 1129 26 c 0
 1127 28 1124 30 1122 32 c 0
 1118 36 1115 40 1111 44 c 0
 1107 48 1103 51 1099 55 c 0
 1095 59 1091 63 1087 67 c 0
 1083 71 1079 76 1075 81 c 0
 1071 86 1070 91 1066 96 c 0
 1062 101 1060 107 1056 112 c 0
 1053 116 1051 122 1048 126 c 0
 1045 130 1043 136 1040 140 c 0
 1037 144 1036 151 1034 155 c 0
 1032 159 1032 164 1030 168 c 0
 1028 172 1026 178 1025 182 c 0
 1024 186 1023 192 1022 196 c 0
 1021 201 1021 206 1020 211 c 0
 1019 216 1018 223 1017 228 c 0
 1016 231 1015 232 1015 235 c 0
 1015 238 1015 240 1015 243 c 2
 1015 1242 l 2
 1012 1251 1010 1260 1006 1269 c 0
 1002 1278 998 1287 993 1295 c 0
 988 1303 981 1311 975 1318 c 0
 968 1326 959 1333 950 1340 c 0
 942 1346 932 1353 923 1358 c 0
 914 1363 905 1369 895 1373 c 0
 886 1377 876 1382 866 1385 c 0
 856 1388 845 1390 835 1392 c 0
 825 1394 815 1395 805 1395 c 0
 804 1395 804 1395 803 1395 c 0
 802 1395 l 0
 801 1395 801 1395 800 1395 c 0
 789 1395 779 1394 768 1391 c 0
 757 1388 746 1386 736 1382 c 0
 726 1378 716 1374 706 1370 c 0
 696 1366 687 1359 678 1354 c 0
 669 1349 659 1343 651 1336 c 0
 643 1329 634 1321 627 1313 c 0
 622 1307 616 1298 612 1291 c 0
 608 1283 604 1275 600 1267 c 0
 597 1259 595 1251 593 1242 c 2
 593 765 l 2
 594 767 594 767 595 769 c 0
 598 773 600 779 604 783 c 0
 610 790 617 798 623 805 c 0
 631 814 639 823 649 829 c 0
 662 838 676 845 691 850 c 0
 712 857 735 860 757 859 c 0
 786 858 816 853 841 839 c 0
 863 827 882 811 898 792 c 0
 904 785 909 777 913 769 c 0
 917 761 920 751 920 742 c 0
 920 733 917 723 913 715 c 0
 909 707 904 699 898 692 c 0
 882 673 863 657 841 645 c 0
 816 631 786 625 757 625 c 0
 735 625 714 628 693 634 c 0
 679 638 665 644 652 653 c 0
 641 660 632 669 623 679 c 0
 617 686 610 694 605 701 c 0
 601 705 599 711 596 715 c 0
 595 717 594 718 593 720 c 2
 593 630 l 2
 597 630 599 630 603 629 c 0
 611 628 619 626 627 622 c 0
 638 618 648 610 658 603 c 0
 672 593 683 582 694 569 c 0
 708 553 720 534 728 513 c 0
 740 484 743 453 743 421 c 0
 743 389 741 359 733 328 c 0
 725 296 708 267 683 247 c 0
 668 234 649 225 630 220 c 0
 611 215 591 212 571 212 c 0
 532 212 494 223 463 246 c 0
 438 266 420 294 410 325 c 0
 400 356 397 389 398 421 c 0
 399 452 402 482 412 511 c 0
 419 532 430 551 444 568 c 0
 456 582 469 593 483 603 c 0
 494 610 505 617 517 622 c 0
 524 626 531 628 539 629 c 0
 542 630 545 630 548 630 c 2
 548 720 l 1
 299 720 l 1
 299 765 l 1
 548 765 l 1
 548 1242 l 2
 550 1253 551 1263 555 1273 c 0
 559 1283 564 1293 568 1303 c 0
 573 1313 579 1322 585 1331 c 0
 593 1342 603 1353 613 1362 c 0
 623 1371 633 1380 645 1387 c 0
 657 1394 668 1402 681 1408 c 0
 694 1414 706 1420 719 1424 c 0
 733 1428 746 1431 760 1435 c 0
 774 1439 786 1440 800 1440 c 0
 801 1440 803 1440 804 1440 c 0
 805 1440 805 1440 806 1440 c 0
 807 1440 809 1440 810 1440 c 0
 823 1440 834 1439 847 1437 c 0
 860 1435 871 1433 883 1429 c 0
 895 1425 906 1421 917 1417 c 0
 929 1412 940 1406 951 1399 c 0
 962 1392 973 1383 983 1375 c 0
 993 1367 1002 1358 1010 1348 c 0
 1018 1338 1026 1328 1032 1316 c 0
 1038 1304 1045 1293 1049 1280 c 0
 1053 1267 1057 1255 1060 1242 c 2
952 1538 m 0
 952 1567 931 1588 900 1588 c 0
 870 1588 848 1569 848 1538 c 0
 848 1509 871 1488 900 1488 c 0
 930 1488 952 1502 952 1538 c 0
752 1538 m 0
 752 1563 725 1588 700 1588 c 0
 671 1588 648 1567 648 1538 c 0
 648 1510 672 1488 700 1488 c 0
 728 1488 752 1510 752 1538 c 0
200 1563 m 1
 600 1563 l 1
 616 1602 634 1638 700 1638 c 0
 751 1638 790 1598 800 1563 c 1
 815 1599 840 1638 900 1638 c 0
 964 1638 985 1606 1000 1563 c 1
 1400 1563 l 1
 1400 1512 l 1
 1000 1513 l 1
 987 1466 958 1438 900 1438 c 0
 838 1438 813 1477 800 1513 c 1
 790 1479 753 1438 700 1438 c 0
 638 1438 610 1474 600 1513 c 1
 200 1513 l 1
 200 1563 l 1
EndSplineSet
Validated: 33
EndChar

StartChar: uni3058
Encoding: 12376 12376 54
Width: 1723
VWidth: 0
Flags: HW
HStem: 1068 42<700.196 1225.49>
VStem: 352.659 70<1010 1140> 1406.66 19<664 846>
LayerCount: 2
Fore
SplineSet
1429 664 m 13
 1445 720 1506 858 1484 912 c 4
 1453 988 1405 1035 1325 1052 c 4
 1210 1076 956 1071 842 1068 c 4
 742 1065 496 1036 497 1003 c 5
 648 1014 773 1026 953 1019 c 4
 1083 1014 1194 1002 1337 980 c 4
 1394 971 1412 940 1425 888 c 4
 1436 842 1433 707 1429 664 c 13
364 1224 m 4
 361 1245 355 1249 326 1248 c 4
 296 1247 253 1223 253 1195 c 4
 253 1168 284 1177 308 1183 c 4
 331 1189 367 1202 364 1224 c 4
352 1140 m 5
 327 1133 231 1117 212 1136 c 4
 190 1158 199 1223 220 1245 c 4
 250 1276 309 1304 352 1300 c 4
 374 1298 397 1271 407 1250 c 28
 420 1221 418 1172 422 1140 c 5
 422 1010 l 21
 475 1030 490 1063 547 1072 c 4
 744 1103 869 1116 1075 1110 c 4
 1235 1105 1395 1125 1486 988 c 28
 1587 837 1447 705 1450 523 c 28
 1451 446 1540 300 1498 300 c 5
 1473 277 1422 434 1406 514 c 4
 1378 655 1403 652 1393 800 c 4
 1390 846 1379 933 1333 939 c 4
 1011 980 839 993 545 968 c 4
 474 962 423 934 352 930 c 5
 352 1140 l 5
EndSplineSet
Validated: 33
EndChar

StartChar: uni3067
Encoding: 12391 12391 55
Width: 1798
VWidth: 0
Flags: HW
LayerCount: 2
Fore
SplineSet
1548 457 m 1
 1548 1514 l 1
 1498 1534 l 1
 1480 1452 1467 1370 1458 1287 c 0
 1450 1215 1444 1143 1438 1071 c 0
 1432 999 1425 927 1421 855 c 0
 1419 819 1417 783 1416 747 c 0
 1415 711 1413 674 1412 638 c 0
 1411 603 1409 567 1407 532 c 1
 1548 457 l 1
  Spiro
    1548 457 v
    1548 1514 v
    1498 1534 v
    1481.64 1452.05 o
    1468.36 1369.62 o
    1458 1287 o
    1450.6 1215.07 o
    1444.07 1142.93 o
    1438 1071 o
    1431.82 999.072 o
    1425.85 926.928 o
    1421 855 o
    1419.04 819.036 o
    1417.29 782.964 o
    1416 747 o
    1414.74 710.777 o
    1413.26 674.223 o
    1412 638 o
    1410.7 602.776 o
    1408.96 567.224 o
    1407 532 v
    0 0 z
  EndSpiro
1598 0 m 1
 1548 0 l 1
 1548 400 l 1
 1350 500 l 1
 1351 544 1352 588 1354 632 c 0
 1357 703 1360 775 1365 846 c 0
 1371 933 1380 1019 1389 1106 c 0
 1397 1178 1405 1250 1415 1321 c 0
 1428 1415 1446 1508 1468 1600 c 1
 1598 1550 l 1
 1598 0 l 1
  Spiro
    1598 0 v
    1548 0 v
    1548 400 v
    1350 500 v
    1351.04 543.956 o
    1352.3 588.044 o
    1354 632 o
    1357.07 703.188 o
    1360.6 774.812 o
    1365 846 o
    1371.88 932.654 o
    1380.12 1019.35 o
    1389 1106 o
    1397.07 1177.89 o
    1405.6 1249.78 o
    1415 1321 o
    1429.61 1414.57 o
    1447.39 1507.76 o
    1468 1600 v
    1598 1550 v
    0 0 z
  EndSpiro
1150 750 m 29
 1150 850 l 29
 899 850 l 21
 884 849 758 925 716 932 c 4
 617 948 492 919 470 914 c 13
 470 870 l 29
 618 870 l 29
 618 810 l 29
 262 810 l 21
 249 810 250 792 250 760 c 4
 250 734 250 710 264 710 c 13
 726 710 l 5
 734 712 749 716 763 731 c 4
 777 746 799 751 808 750 c 5
 1150 750 l 29
1200 900 m 29
 1200 700 l 5
 815 700 l 5
 809 700 796 688 778 674 c 4
 764 663 740 662 731 660 c 5
 250 660 l 5
 204 667 200 726 200 760 c 4
 200 788 196 854 251 860 c 5
 420 860 l 5
 420 947 l 5
 480 973 588 979 692 980 c 4
 749 981 872 901 900 900 c 5
 1200 900 l 29
EndSplineSet
Validated: 33
EndChar

StartChar: uni3069
Encoding: 12393 12393 56
Width: 2495
VWidth: 0
Flags: HW
HStem: 236 44<436.715 570.905> 650 50<428.992 476.813 526.813 574.376> 695 50<601.871 804.017> 800 50<199.813 476.813> 905 50<602.981 804.016> 1550.06 50.1658<660.51 863.364>
VStem: 309.813 50<357.306 570.624> 476.813 50<700 800 850 1441.32> 643.813 50<360.401 572.227> 839.813 50<774.992 876.449> 995.813 50<176.898 1437.07>
LayerCount: 2
Fore
SplineSet
1672 825 m 0
 1672 792 1707 769 1732 758 c 0
 1759 746 1779 743 1809 743 c 0
 1838 743 1859 747 1885 759 c 0
 1906 769 1940 797 1940 825 c 0
 1940 856 1903 883 1885 891 c 0
 1859 902 1838 907 1809 907 c 0
 1779 907 1759 904 1732 892 c 0
 1707 881 1672 859 1672 825 c 0
1602 650 m 0
 1581 650 1559 644 1541 633 c 0
 1523 622 1507 608 1495 590 c 0
 1471 555 1461 511 1460 468 c 0
 1459 424 1461 380 1485 343 c 0
 1506 312 1541 280 1602 280 c 0
 1669 280 1705 311 1723 343 c 0
 1741 374 1745 424 1744 468 c 0
 1743 511 1733 555 1709 590 c 0
 1697 608 1681 622 1663 633 c 0
 1645 644 1623 650 1602 650 c 0
2146 1380 m 2
 2146 270 l 2
 2146 267 2146 265 2146 262 c 0
 2146 259 2147 257 2148 255 c 0
 2149 250 2150 246 2151 241 c 0
 2152 236 2153 231 2154 226 c 0
 2155 221 2157 217 2158 212 c 0
 2159 208 2161 203 2162 199 c 0
 2163 195 2165 190 2167 186 c 0
 2169 181 2171 177 2173 172 c 0
 2175 167 2178 163 2180 158 c 0
 2183 153 2185 149 2188 144 c 0
 2191 139 2195 134 2198 129 c 0
 2201 124 2205 119 2208 114 c 0
 2211 109 2215 105 2218 100 c 0
 2221 96 2225 91 2228 87 c 0
 2231 83 2235 79 2239 75 c 0
 2243 71 2247 68 2252 65 c 0
 2255 63 2257 62 2260 60 c 0
 2263 58 2265 57 2268 55 c 0
 2271 53 2274 52 2276 50 c 0
 2277 49 2279 48 2280 47 c 0
 2281 47 2281 46 2282 46 c 0
 2283 46 2283 45 2284 44 c 0
 2285 43 2285 43 2285 42 c 0
 2285 41 2286 41 2287 40 c 0
 2288 39 2289 38 2290 37 c 0
 2291 36 2291 36 2291 35 c 0
 2291 34 2292 33 2292 32 c 0
 2293 31 2293 29 2294 28 c 0
 2295 27 2295 25 2295 24 c 0
 2295 22 2295 21 2295 19 c 0
 2295 18 2294 16 2294 15 c 0
 2294 14 2293 13 2293 12 c 0
 2292 11 2292 10 2291 9 c 0
 2291 8 2290 8 2290 7 c 0
 2290 6 2289 6 2289 6 c 0
 2289 6 2288 5 2287 5 c 0
 2286 5 2287 4 2286 4 c 0
 2285 3 2284 3 2283 2 c 0
 2282 1 2281 1 2280 1 c 0
 2278 1 2277 0 2275 0 c 0
 2273 0 2271 -1 2269 -1 c 0
 2267 -1 2266 -1 2264 0 c 0
 2261 1 2257 2 2254 3 c 0
 2251 4 2248 6 2245 8 c 0
 2242 10 2240 12 2237 14 c 0
 2235 16 2232 19 2230 21 c 0
 2227 24 2225 26 2222 29 c 0
 2220 31 2217 34 2215 36 c 0
 2211 40 2206 45 2202 49 c 0
 2198 53 2193 57 2189 61 c 0
 2185 65 2180 69 2176 74 c 0
 2171 79 2167 84 2163 90 c 0
 2159 96 2156 101 2152 107 c 0
 2148 113 2145 118 2141 124 c 0
 2138 129 2135 135 2132 140 c 0
 2129 145 2127 151 2124 156 c 0
 2121 161 2119 167 2117 172 c 0
 2115 177 2114 182 2112 187 c 0
 2110 192 2108 197 2107 202 c 0
 2106 207 2105 213 2104 218 c 0
 2103 224 2102 229 2101 235 c 0
 2100 241 2099 247 2098 253 c 0
 2097 256 2096 258 2096 261 c 0
 2096 264 2096 267 2096 270 c 2
 2096 1380 l 2
 2093 1390 2090 1400 2086 1410 c 0
 2082 1420 2077 1430 2071 1439 c 0
 2065 1448 2058 1456 2051 1464 c 0
 2043 1473 2034 1481 2024 1489 c 0
 2015 1496 2004 1503 1994 1509 c 0
 1984 1515 1973 1521 1962 1526 c 0
 1952 1531 1941 1536 1930 1539 c 0
 1919 1542 1907 1545 1896 1547 c 0
 1885 1549 1873 1550 1862 1550 c 0
 1861 1550 1861 1550 1860 1550 c 0
 1859 1550 l 0
 1858 1550 1858 1550 1857 1550 c 0
 1845 1550 1833 1549 1821 1546 c 0
 1809 1543 1797 1540 1786 1536 c 0
 1775 1532 1764 1527 1753 1522 c 0
 1742 1517 1731 1511 1721 1505 c 0
 1711 1499 1700 1492 1691 1484 c 0
 1682 1476 1673 1468 1665 1459 c 0
 1659 1452 1653 1443 1648 1435 c 0
 1643 1426 1639 1417 1635 1408 c 0
 1632 1399 1629 1390 1627 1380 c 2
 1627 850 l 2
 1628 852 1628 853 1629 855 c 0
 1632 860 1635 865 1639 870 c 0
 1646 878 1653 887 1660 895 c 0
 1669 905 1678 914 1689 921 c 0
 1703 931 1719 939 1736 945 c 0
 1759 953 1784 956 1809 955 c 0
 1841 954 1874 947 1902 932 c 0
 1926 919 1948 901 1966 880 c 0
 1973 872 1979 864 1983 855 c 0
 1987 846 1990 835 1990 825 c 0
 1990 815 1987 804 1983 795 c 0
 1979 786 1973 777 1966 769 c 0
 1948 748 1926 730 1902 717 c 0
 1874 702 1841 695 1809 695 c 0
 1785 695 1761 697 1738 704 c 0
 1722 709 1706 716 1692 726 c 0
 1680 734 1670 744 1660 755 c 0
 1653 763 1646 771 1640 779 c 0
 1636 784 1633 789 1630 794 c 0
 1629 796 1628 798 1627 800 c 2
 1627 700 l 2
 1631 700 1634 700 1638 699 c 0
 1647 698 1656 695 1665 691 c 0
 1677 686 1688 678 1699 670 c 0
 1714 659 1727 646 1739 632 c 0
 1755 614 1768 593 1777 570 c 0
 1790 538 1794 503 1794 468 c 0
 1794 433 1792 398 1783 364 c 0
 1774 329 1755 296 1727 274 c 0
 1710 260 1689 250 1668 244 c 0
 1647 238 1624 236 1602 236 c 0
 1559 236 1516 247 1482 273 c 0
 1454 295 1435 327 1424 361 c 0
 1413 395 1409 432 1410 468 c 0
 1411 502 1415 536 1426 568 c 0
 1434 591 1445 612 1461 631 c 0
 1474 646 1489 659 1505 670 c 0
 1517 678 1529 685 1542 691 c 0
 1550 695 1558 698 1567 699 c 0
 1570 700 1574 700 1577 700 c 2
 1577 800 l 1
 1300 800 l 1
 1300 850 l 1
 1577 850 l 1
 1577 1380 l 2
 1579 1392 1581 1404 1585 1415 c 0
 1589 1426 1594 1437 1599 1448 c 0
 1605 1459 1611 1469 1618 1479 c 0
 1627 1491 1638 1503 1649 1513 c 0
 1660 1523 1672 1533 1685 1541 c 0
 1698 1549 1711 1557 1725 1564 c 0
 1739 1571 1753 1577 1767 1582 c 0
 1782 1587 1797 1590 1812 1594 c 0
 1827 1598 1842 1600 1857 1600 c 0
 1858 1600 1860 1600 1861 1600 c 0
 1862 1600 1863 1600 1864 1600 c 0
 1865 1600 1867 1600 1868 1600 c 0
 1882 1600 1895 1599 1909 1597 c 0
 1923 1595 1936 1592 1949 1588 c 0
 1962 1584 1975 1579 1987 1574 c 0
 2000 1568 2013 1562 2025 1554 c 0
 2037 1546 2049 1537 2060 1528 c 0
 2071 1519 2081 1509 2090 1498 c 0
 2099 1487 2108 1475 2115 1462 c 0
 2122 1449 2129 1436 2134 1422 c 0
 2139 1408 2143 1394 2146 1380 c 2
1150 750 m 29
 1150 850 l 29
 899 850 l 21
 884 849 758 925 716 932 c 4
 617 948 492 919 470 914 c 13
 470 870 l 29
 618 870 l 29
 618 810 l 29
 262 810 l 21
 249 810 250 792 250 760 c 4
 250 734 250 710 264 710 c 13
 726 710 l 5
 734 712 749 716 763 731 c 4
 777 746 799 751 808 750 c 5
 1150 750 l 29
1200 900 m 29
 1200 700 l 5
 815 700 l 5
 809 700 796 688 778 674 c 4
 764 663 740 662 731 660 c 5
 250 660 l 5
 204 667 200 726 200 760 c 4
 200 788 196 854 251 860 c 5
 420 860 l 5
 420 947 l 5
 480 973 588 979 692 980 c 4
 749 981 872 901 900 900 c 5
 1200 900 l 29
EndSplineSet
Validated: 33
EndChar

StartChar: uni3060
Encoding: 12384 12384 57
Width: 1600
VWidth: 0
Flags: HW
LayerCount: 2
Fore
SplineSet
1250 1370 m 29
 1250 1470 l 29
 999 1470 l 21
 984 1469 858 1545 816 1552 c 4
 717 1568 592 1539 570 1534 c 13
 570 1490 l 29
 718 1490 l 29
 718 1430 l 29
 362 1430 l 21
 349 1430 350 1412 350 1380 c 4
 350 1354 350 1330 364 1330 c 13
 826 1330 l 5
 834 1332 849 1336 863 1351 c 4
 877 1366 899 1371 908 1370 c 5
 1250 1370 l 29
1300 1520 m 29
 1300 1320 l 5
 915 1320 l 5
 909 1320 896 1308 878 1294 c 4
 864 1283 840 1282 831 1280 c 5
 350 1280 l 5
 304 1287 300 1346 300 1380 c 4
 300 1408 296 1474 351 1480 c 5
 520 1480 l 5
 520 1567 l 5
 580 1593 688 1599 792 1600 c 4
 849 1601 972 1521 1000 1520 c 5
 1300 1520 l 29
1350 50 m 29
 1350 350 l 29
 1250 350 l 29
 1250 50 l 29
 1350 50 l 29
1400 400 m 5
 1400 0 l 5
 200 0 l 29
 200 50 l 29
 450 50 l 29
 450 100 l 29
 250 100 l 29
 250 140 l 5
 332 162 396 159 438 150 c 4
 492 138 500 136 520 80 c 5
 1200 80 l 5
 1200 400 l 5
 1400 400 l 5
EndSplineSet
Validated: 33
EndChar

StartChar: uni3070
Encoding: 12400 12400 58
Width: 2500
VWidth: 0
Flags: HW
HStem: 0 80<226 524 574 741 791 1044> 160 70<791 906> 180 50<574 731> 1443 62<200 256.301> 1455 66<443.012 512.988>
VStem: 370 50<919.032 1443> 443 70<1455.01 1520.99> 524 50<80 180 230 654.064> 741 50<80 160 230 481.607> 906 50<230 434>
LayerCount: 2
Fore
SplineSet
1243 1488 m 4x8fc0
 1243 1507 1259 1521 1278 1521 c 4
 1297 1521 1313 1507 1313 1488 c 4
 1313 1469 1297 1455 1278 1455 c 4
 1259 1455 1243 1469 1243 1488 c 4x8fc0
1581 230 m 5xa7c0
 1706 230 l 5xc7c0
 1706 475 l 5
 1658 541 1550 644 1458 758 c 4
 1425 799 1321 948 1315 1058 c 4
 1312 1110 1342 1163 1376 1176 c 4
 1429 1196 1502 1195 1520 1197 c 5
 1453 1244 l 5
 1413 1292 1429 1265 1397 1318 c 4
 1372 1360 1377 1415 1382 1457 c 4
 1390 1519 1375 1544 1352 1547 c 4
 1323 1551 1242 1522 1215 1511 c 4
 1155 1486 1199 1505 1220 1460 c 5
 1220 1181 l 5
 1213 1147 1221 1125 1219 1092 c 4
 1216 1047 1228 968 1241 928 c 4
 1263 862 1309 840 1358 782 c 4
 1405 726 1415 733 1460 679 c 4
 1509 621 1529 581 1558 521 c 4
 1573 490 1580 433 1581 395 c 5
 1581 230 l 5xa7c0
2166 250 m 5
 2175 320 l 5
 2175 406 2000 744 1912 858 c 4
 1852 936 1696 1089 1620 1140 c 4
 1577 1169 1453 1152 1406 1133 c 4
 1366 1117 1364 1087 1362 1043 c 4
 1360 988 1464 842 1491 803 c 4
 1518 764 1744 502 1875 407 c 4
 1926 370 2034 321 2060 310 c 4
 2146 273 2139 258 2166 250 c 5
2234 58 m 5
 2214 109 l 5
 2200 121 2158 210 1990 287 c 4
 1935 312 1821 383 1806 392 c 5
 1815 358 1853 244 1888 216 c 4
 1958 160 1992 146 2040 126 c 4
 2102 100 2213 65 2234 58 c 5
1374 230 m 5xa7c0
 1531 230 l 5
 1532 418 l 5
 1536 451 1499 522 1486 548 c 4
 1466 588 1410 665 1382 683 c 4
 1370 691 1375 566 1374 437 c 5
 1374 230 l 5xa7c0
1541 80 m 5
 1541 180 l 29
 1374 180 l 5
 1374 80 l 29
 1541 80 l 5
1001 0 m 5
 1026 80 l 5
 1324 80 l 5
 1324 730 l 5
 1307 788 1270 786 1227 845 c 4
 1194 890 1163 988 1166 1080 c 6
 1166 1080 1167 1160 1170 1187 c 5
 1170 1443 l 5
 1000 1443 l 5
 1000 1505 l 5
 1216 1560 l 5
 1241 1576 1261 1580 1288 1588 c 4
 1307 1593 1343 1601 1362 1600 c 4
 1381 1599 1392 1593 1406 1580 c 4
 1452 1540 1442 1502 1429 1470 c 4
 1422 1453 1425 1373 1438 1347 c 4
 1450 1324 1524 1251 1545 1241 c 4
 1820 1110 2060 785 2173 484 c 4
 2219 361 2240 320 2208 224 c 5
 2217 200 2258 156 2276 114 c 4
 2290 81 2293 9 2300 0 c 5
 2274 0 l 6
 2254 0 2064 53 2010 80 c 4
 1966 102 1916 116 1856 174 c 4
 1833 196 1802 238 1780 316 c 4
 1777 328 1752 434 1752 434 c 6
 1756 160 l 5
 1591 160 l 5xd7c0
 1591 80 l 5
 1844 80 l 5
 1869 0 l 5
 1001 0 l 5
800 1550 m 29
 750 1550 l 29
 742 272 l 21
 739 242 664 185 595 159 c 28
 463 109 388 114 250 86 c 29
 250 50 l 29
 769 50 l 5
 796 50 810 56 818 83 c 4
 826 111 805 135 805 166 c 5
 800 1550 l 29
850 1600 m 29
 850 166 l 5
 849 139 874 93 862 65 c 28
 853 42 828 5 800 0 c 5
 200 0 l 29
 200 120 l 5
 297 154 475 157 568 200 c 4
 605 217 697 259 700 300 c 5
 700 1600 l 5
 850 1600 l 29
EndSplineSet
Validated: 33
EndChar

StartChar: uni3073
Encoding: 12403 12403 59
Width: 2048
VWidth: 0
Flags: HW
LayerCount: 2
Fore
SplineSet
1260 1150 m 25
 1330 1150 l 25
 1730 450 l 25
 1660 450 l 25
 1260 1150 l 25
1000 1150 m 25
 1070 1150 l 25
 1470 450 l 25
 1400 450 l 25
 1000 1150 l 25
800 1550 m 25
 750 1550 l 25
 742 272 l 17
 739 242 664 185 595 159 c 24
 463 109 388 114 250 86 c 25
 250 50 l 25
 769 50 l 1
 796 50 810 56 818 83 c 0
 826 111 805 135 805 166 c 1
 800 1550 l 25
850 1600 m 25
 850 166 l 1
 849 139 874 93 862 65 c 24
 853 42 828 5 800 0 c 1
 200 0 l 25
 200 120 l 1
 297 154 475 157 568 200 c 0
 605 217 697 259 700 300 c 1
 700 1600 l 1
 850 1600 l 25
EndSplineSet
Validated: 33
EndChar

StartChar: uni3076
Encoding: 12406 12406 60
Width: 2388
VWidth: 0
Flags: HW
LayerCount: 2
Fore
SplineSet
1190 1377 m 5
 1190 1377 1167 1309 1184 1146 c 4
 1199 1005 1212 954 1283 784 c 4
 1325 684 1411 585 1422 569 c 4
 1471 498 1526 468 1560 451 c 4
 1605 428 1786 408 1878 408 c 4
 1953 408 2032 428 2082 446 c 5
 1947 545 1947 547 1829 665 c 4
 1742 752 1650 861 1582 964 c 5
 1543 954 1513 940 1491 917 c 4
 1477 902 1473 888 1477 868 c 4
 1483 838 1493 821 1519 802 c 4
 1542 785 1552 773 1573 754 c 5
 1513 730 1443 708 1384 742 c 4
 1338 769 1314 811 1298 862 c 4
 1281 917 1267 967 1284 1020 c 4
 1289 1036 1329 1043 1329 1027 c 4
 1329 930 1341 896 1363 845 c 4
 1398 764 1443 769 1485 771 c 5
 1461 795 1448 811 1436 844 c 4
 1413 907 1444 939 1461 960 c 4
 1485 990 1522 992 1555 1012 c 5
 1498 1117 1498 1131 1451 1267 c 4
 1417 1365 1458 1412 1417 1496 c 4
 1396 1539 1361 1551 1297 1550 c 4
 1213 1549 1202 1516 1168 1457 c 4
 1149 1424 1180 1414 1190 1377 c 5
1461 452 m 13
 1415 80 l 29
 1550 80 l 29
 1638 265 l 29
 1598 386 l 29
 1572 391 1556 398 1531 409 c 4
 1506 420 1483 437 1461 452 c 13
1222 1434 m 4x8fc0
 1222 1457 1241 1474 1264 1474 c 4
 1287 1474 1306 1457 1306 1434 c 4
 1306 1411 1287 1394 1264 1394 c 4
 1241 1394 1222 1411 1222 1434 c 4x8fc0
1000 0 m 29
 1025 80 l 29
 1355 80 l 5
 1408 500 l 5
 1341 594 1279 681 1228 785 c 4
 1182 878 1172 928 1144 1041 c 4
 1127 1111 1120 1308 1140 1377 c 5
 1010 1397 l 5
 1010 1447 l 5
 1115 1462 l 5
 1157 1597 1240 1610 1324 1609 c 4
 1395 1608 1430 1585 1468 1525 c 4
 1503 1470 1481 1386 1498 1313 c 4
 1541 1134 1571 1071 1704 901 c 4
 1800 779 1926 640 2044 540 c 4
 2128 469 2169 443 2188 437 c 5
 2160 416 2030 374 1940 362 c 4
 1842 349 1688 373 1668 373 c 5
 1708 265 l 5
 1620 80 l 5
 1725 80 l 29
 1760 0 l 29
 1000 0 l 29
800 1550 m 29
 750 1550 l 29
 742 272 l 21
 739 242 664 185 595 159 c 28
 463 109 388 114 250 86 c 29
 250 50 l 29
 769 50 l 5
 796 50 810 56 818 83 c 4
 826 111 805 135 805 166 c 5
 800 1550 l 29
850 1600 m 29
 850 166 l 5
 849 139 874 93 862 65 c 28
 853 42 828 5 800 0 c 5
 200 0 l 29
 200 120 l 5
 297 154 475 157 568 200 c 4
 605 217 697 259 700 300 c 5
 700 1600 l 5
 850 1600 l 29
EndSplineSet
Validated: 33
EndChar

StartChar: uni3079
Encoding: 12409 12409 61
Width: 1448
VWidth: 0
Flags: HW
LayerCount: 2
Fore
SplineSet
1198 457 m 5
 1198 1514 l 5
 1148 1534 l 5
 1130 1452 1117 1370 1108 1287 c 4
 1100 1215 1094 1143 1088 1071 c 4
 1082 999 1075 927 1071 855 c 4
 1069 819 1067 783 1066 747 c 4
 1065 711 1063 674 1062 638 c 4
 1061 603 1059 567 1057 532 c 5
 1198 457 l 5
  Spiro
    1198 457 v
    1198 1514 v
    1148 1534 v
    1131.64 1452.05 o
    1118.36 1369.62 o
    1108 1287 o
    1100.6 1215.07 o
    1094.07 1142.93 o
    1088 1071 o
    1081.82 999.072 o
    1075.85 926.928 o
    1071 855 o
    1069.04 819.036 o
    1067.3 782.964 o
    1066 747 o
    1064.74 710.777 o
    1063.26 674.223 o
    1062 638 o
    1060.7 602.776 o
    1058.96 567.224 o
    1057 532 v
    0 0 z
  EndSpiro
1248 0 m 5
 1198 0 l 5
 1198 400 l 5
 1000 500 l 5
 1001 544 1002 588 1004 632 c 4
 1007 703 1010 775 1015 846 c 4
 1021 933 1030 1019 1039 1106 c 4
 1047 1178 1055 1250 1065 1321 c 4
 1078 1415 1096 1508 1118 1600 c 5
 1248 1550 l 5
 1248 0 l 5
  Spiro
    1248 0 v
    1198 0 v
    1198 400 v
    1000 500 v
    1001.04 543.956 o
    1002.3 588.044 o
    1004 632 o
    1007.07 703.188 o
    1010.6 774.812 o
    1015 846 o
    1021.88 932.654 o
    1030.12 1019.35 o
    1039 1106 o
    1047.07 1177.89 o
    1055.6 1249.78 o
    1065 1321 o
    1079.61 1414.57 o
    1097.39 1507.76 o
    1118 1600 v
    1248 1550 v
    0 0 z
  EndSpiro
800 1550 m 29
 750 1550 l 29
 742 272 l 21
 739 242 664 185 595 159 c 28
 463 109 388 114 250 86 c 29
 250 50 l 29
 769 50 l 5
 796 50 810 56 818 83 c 4
 826 111 805 135 805 166 c 5
 800 1550 l 29
850 1600 m 29
 850 166 l 5
 849 139 874 93 862 65 c 28
 853 42 828 5 800 0 c 5
 200 0 l 29
 200 120 l 5
 297 154 475 157 568 200 c 4
 605 217 697 259 700 300 c 5
 700 1600 l 5
 850 1600 l 29
EndSplineSet
Validated: 33
EndChar

StartChar: uni307C
Encoding: 12412 12412 62
Width: 2195
VWidth: 0
Flags: HW
LayerCount: 2
Fore
SplineSet
1372 825 m 4
 1372 792 1407 769 1432 758 c 4
 1459 746 1479 743 1509 743 c 4
 1538 743 1559 747 1585 759 c 4
 1606 769 1640 797 1640 825 c 4
 1640 856 1603 883 1585 891 c 4
 1559 902 1538 907 1509 907 c 4
 1479 907 1459 904 1432 892 c 4
 1407 881 1372 859 1372 825 c 4
1302 650 m 4
 1281 650 1259 644 1241 633 c 4
 1223 622 1207 608 1195 590 c 4
 1171 555 1161 511 1160 468 c 4
 1159 424 1161 380 1185 343 c 4
 1206 312 1241 280 1302 280 c 4
 1369 280 1405 311 1423 343 c 4
 1441 374 1445 424 1444 468 c 4
 1443 511 1433 555 1409 590 c 4
 1397 608 1381 622 1363 633 c 4
 1345 644 1323 650 1302 650 c 4
1846 1380 m 6
 1846 270 l 6
 1846 267 1846 265 1846 262 c 4
 1846 259 1847 257 1848 255 c 4
 1849 250 1850 246 1851 241 c 4
 1852 236 1853 231 1854 226 c 4
 1855 221 1857 217 1858 212 c 4
 1859 208 1861 203 1862 199 c 4
 1863 195 1865 190 1867 186 c 4
 1869 181 1871 177 1873 172 c 4
 1875 167 1878 163 1880 158 c 4
 1883 153 1885 149 1888 144 c 4
 1891 139 1895 134 1898 129 c 4
 1901 124 1905 119 1908 114 c 4
 1911 109 1915 105 1918 100 c 4
 1921 96 1925 91 1928 87 c 4
 1931 83 1935 79 1939 75 c 4
 1943 71 1947 68 1952 65 c 4
 1955 63 1957 62 1960 60 c 4
 1963 58 1965 57 1968 55 c 4
 1971 53 1974 52 1976 50 c 4
 1977 49 1979 48 1980 47 c 4
 1981 47 1981 46 1982 46 c 4
 1983 46 1983 45 1984 44 c 4
 1985 43 1985 43 1985 42 c 4
 1985 41 1986 41 1987 40 c 4
 1988 39 1989 38 1990 37 c 4
 1991 36 1991 36 1991 35 c 4
 1991 34 1992 33 1992 32 c 4
 1993 31 1993 29 1994 28 c 4
 1995 27 1995 25 1995 24 c 4
 1995 22 1995 21 1995 19 c 4
 1995 18 1994 16 1994 15 c 4
 1994 14 1993 13 1993 12 c 4
 1992 11 1992 10 1991 9 c 4
 1991 8 1990 8 1990 7 c 4
 1990 6 1989 6 1989 6 c 4
 1989 6 1988 5 1987 5 c 4
 1986 5 1987 4 1986 4 c 4
 1985 3 1984 3 1983 2 c 4
 1982 1 1981 1 1980 1 c 4
 1978 1 1977 0 1975 0 c 4
 1973 0 1971 -1 1969 -1 c 4
 1967 -1 1966 -1 1964 0 c 4
 1961 1 1957 2 1954 3 c 4
 1951 4 1948 6 1945 8 c 4
 1942 10 1940 12 1937 14 c 4
 1935 16 1932 19 1930 21 c 4
 1927 24 1925 26 1922 29 c 4
 1920 31 1917 34 1915 36 c 4
 1911 40 1906 45 1902 49 c 4
 1898 53 1893 57 1889 61 c 4
 1885 65 1880 69 1876 74 c 4
 1871 79 1867 84 1863 90 c 4
 1859 96 1856 101 1852 107 c 4
 1848 113 1845 118 1841 124 c 4
 1838 129 1835 135 1832 140 c 4
 1829 145 1827 151 1824 156 c 4
 1821 161 1819 167 1817 172 c 4
 1815 177 1814 182 1812 187 c 4
 1810 192 1808 197 1807 202 c 4
 1806 207 1805 213 1804 218 c 4
 1803 224 1802 229 1801 235 c 4
 1800 241 1799 247 1798 253 c 4
 1797 256 1796 258 1796 261 c 4
 1796 264 1796 267 1796 270 c 6
 1796 1380 l 6
 1793 1390 1790 1400 1786 1410 c 4
 1782 1420 1777 1430 1771 1439 c 4
 1765 1448 1758 1456 1751 1464 c 4
 1743 1473 1734 1481 1724 1489 c 4
 1715 1496 1704 1503 1694 1509 c 4
 1684 1515 1673 1521 1662 1526 c 4
 1652 1531 1641 1536 1630 1539 c 4
 1619 1542 1607 1545 1596 1547 c 4
 1585 1549 1573 1550 1562 1550 c 4
 1561 1550 1561 1550 1560 1550 c 4
 1559 1550 l 4
 1558 1550 1558 1550 1557 1550 c 4
 1545 1550 1533 1549 1521 1546 c 4
 1509 1543 1497 1540 1486 1536 c 4
 1475 1532 1464 1527 1453 1522 c 4
 1442 1517 1431 1511 1421 1505 c 4
 1411 1499 1400 1492 1391 1484 c 4
 1382 1476 1373 1468 1365 1459 c 4
 1359 1452 1353 1443 1348 1435 c 4
 1343 1426 1339 1417 1335 1408 c 4
 1332 1399 1329 1390 1327 1380 c 6
 1327 850 l 6
 1328 852 1328 853 1329 855 c 4
 1332 860 1335 865 1339 870 c 4
 1346 878 1353 887 1360 895 c 4
 1369 905 1378 914 1389 921 c 4
 1403 931 1419 939 1436 945 c 4
 1459 953 1484 956 1509 955 c 4
 1541 954 1574 947 1602 932 c 4
 1626 919 1648 901 1666 880 c 4
 1673 872 1679 864 1683 855 c 4
 1687 846 1690 835 1690 825 c 4
 1690 815 1687 804 1683 795 c 4
 1679 786 1673 777 1666 769 c 4
 1648 748 1626 730 1602 717 c 4
 1574 702 1541 695 1509 695 c 4
 1485 695 1461 697 1438 704 c 4
 1422 709 1406 716 1392 726 c 4
 1380 734 1370 744 1360 755 c 4
 1353 763 1346 771 1340 779 c 4
 1336 784 1333 789 1330 794 c 4
 1329 796 1328 798 1327 800 c 6
 1327 700 l 6
 1331 700 1334 700 1338 699 c 4
 1347 698 1356 695 1365 691 c 4
 1377 686 1388 678 1399 670 c 4
 1414 659 1427 646 1439 632 c 4
 1455 614 1468 593 1477 570 c 4
 1490 538 1494 503 1494 468 c 4
 1494 433 1492 398 1483 364 c 4
 1474 329 1455 296 1427 274 c 4
 1410 260 1389 250 1368 244 c 4
 1347 238 1324 236 1302 236 c 4
 1259 236 1216 247 1182 273 c 4
 1154 295 1135 327 1124 361 c 4
 1113 395 1109 432 1110 468 c 4
 1111 502 1115 536 1126 568 c 4
 1134 591 1145 612 1161 631 c 4
 1174 646 1189 659 1205 670 c 4
 1217 678 1229 685 1242 691 c 4
 1250 695 1258 698 1267 699 c 4
 1270 700 1274 700 1277 700 c 6
 1277 800 l 5
 1000 800 l 5
 1000 850 l 5
 1277 850 l 5
 1277 1380 l 6
 1279 1392 1281 1404 1285 1415 c 4
 1289 1426 1294 1437 1299 1448 c 4
 1305 1459 1311 1469 1318 1479 c 4
 1327 1491 1338 1503 1349 1513 c 4
 1360 1523 1372 1533 1385 1541 c 4
 1398 1549 1411 1557 1425 1564 c 4
 1439 1571 1453 1577 1467 1582 c 4
 1482 1587 1497 1590 1512 1594 c 4
 1527 1598 1542 1600 1557 1600 c 4
 1558 1600 1560 1600 1561 1600 c 4
 1562 1600 1563 1600 1564 1600 c 4
 1565 1600 1567 1600 1568 1600 c 4
 1582 1600 1595 1599 1609 1597 c 4
 1623 1595 1636 1592 1649 1588 c 4
 1662 1584 1675 1579 1687 1574 c 4
 1700 1568 1713 1562 1725 1554 c 4
 1737 1546 1749 1537 1760 1528 c 4
 1771 1519 1781 1509 1790 1498 c 4
 1799 1487 1808 1475 1815 1462 c 4
 1822 1449 1829 1436 1834 1422 c 4
 1839 1408 1843 1394 1846 1380 c 6
800 1550 m 29
 750 1550 l 29
 742 272 l 21
 739 242 664 185 595 159 c 28
 463 109 388 114 250 86 c 29
 250 50 l 29
 769 50 l 5
 796 50 810 56 818 83 c 4
 826 111 805 135 805 166 c 5
 800 1550 l 29
850 1600 m 29
 850 166 l 5
 849 139 874 93 862 65 c 28
 853 42 828 5 800 0 c 5
 200 0 l 29
 200 120 l 5
 297 154 475 157 568 200 c 4
 605 217 697 259 700 300 c 5
 700 1600 l 5
 850 1600 l 29
EndSplineSet
Validated: 33
EndChar

StartChar: uni3071
Encoding: 12401 12401 63
Width: 2250
VWidth: 0
Flags: HW
HStem: 0 80<226 524 574 741 791 1044> 160 70<791 906> 180 50<574 731> 1443 62<200 256.301> 1455 66<443.012 512.988>
VStem: 370 50<919.032 1443> 443 70<1455.01 1520.99> 524 50<80 180 230 654.064> 741 50<80 160 230 481.607> 906 50<230 434>
LayerCount: 2
Fore
SplineSet
993 1488 m 4x8fc0
 993 1507 1009 1521 1028 1521 c 4
 1047 1521 1063 1507 1063 1488 c 4
 1063 1469 1047 1455 1028 1455 c 4
 1009 1455 993 1469 993 1488 c 4x8fc0
1331 230 m 5xa7c0
 1456 230 l 5xc7c0
 1456 475 l 5
 1408 541 1300 644 1208 758 c 4
 1175 799 1071 948 1065 1058 c 4
 1062 1110 1092 1163 1126 1176 c 4
 1179 1196 1252 1195 1270 1197 c 5
 1203 1244 l 5
 1163 1292 1179 1265 1147 1318 c 4
 1122 1360 1127 1415 1132 1457 c 4
 1140 1519 1125 1544 1102 1547 c 4
 1073 1551 992 1522 965 1511 c 4
 905 1486 949 1505 970 1460 c 5
 970 1181 l 5
 963 1147 971 1125 969 1092 c 4
 966 1047 978 968 991 928 c 4
 1013 862 1059 840 1108 782 c 4
 1155 726 1165 733 1210 679 c 4
 1259 621 1279 581 1308 521 c 4
 1323 490 1330 433 1331 395 c 5
 1331 230 l 5xa7c0
1916 250 m 5
 1925 320 l 5
 1925 406 1750 744 1662 858 c 4
 1602 936 1446 1089 1370 1140 c 4
 1327 1169 1203 1152 1156 1133 c 4
 1116 1117 1114 1087 1112 1043 c 4
 1110 988 1214 842 1241 803 c 4
 1268 764 1494 502 1625 407 c 4
 1676 370 1784 321 1810 310 c 4
 1896 273 1889 258 1916 250 c 5
1984 58 m 5
 1964 109 l 5
 1950 121 1908 210 1740 287 c 4
 1685 312 1571 383 1556 392 c 5
 1565 358 1603 244 1638 216 c 4
 1708 160 1742 146 1790 126 c 4
 1852 100 1963 65 1984 58 c 5
1124 230 m 5xa7c0
 1281 230 l 5
 1282 418 l 5
 1286 451 1249 522 1236 548 c 4
 1216 588 1160 665 1132 683 c 4
 1120 691 1125 566 1124 437 c 5
 1124 230 l 5xa7c0
1291 80 m 5
 1291 180 l 29
 1124 180 l 5
 1124 80 l 29
 1291 80 l 5
751 0 m 5
 776 80 l 5
 1074 80 l 5
 1074 730 l 5
 1057 788 1020 786 977 845 c 4
 944 890 913 988 916 1080 c 6
 916 1080 917 1160 920 1187 c 5
 920 1443 l 5
 750 1443 l 5
 750 1505 l 5
 966 1560 l 5
 991 1576 1011 1580 1038 1588 c 4
 1057 1593 1093 1601 1112 1600 c 4
 1131 1599 1142 1593 1156 1580 c 4
 1202 1540 1192 1502 1179 1470 c 4
 1172 1453 1175 1373 1188 1347 c 4
 1200 1324 1274 1251 1295 1241 c 4
 1570 1110 1810 785 1923 484 c 4
 1969 361 1990 320 1958 224 c 5
 1967 200 2008 156 2026 114 c 4
 2040 81 2043 9 2050 0 c 5
 2024 0 l 6
 2004 0 1814 53 1760 80 c 4
 1716 102 1666 116 1606 174 c 4
 1583 196 1552 238 1530 316 c 4
 1527 328 1502 434 1502 434 c 6
 1506 160 l 5
 1341 160 l 5xd7c0
 1341 80 l 5
 1594 80 l 5
 1619 0 l 5
 751 0 l 5
650 1100 m 29
 250 1100 l 29
 250 500 l 29
 650 500 l 29
 650 1100 l 29
700 1150 m 29
 700 450 l 29
 200 450 l 29
 200 1150 l 29
 700 1150 l 29
EndSplineSet
Validated: 33
EndChar

StartChar: uni3074
Encoding: 12404 12404 64
Width: 1130
VWidth: 0
Flags: HW
LayerCount: 2
Fore
SplineSet
460 700 m 29
 530 700 l 29
 930 0 l 29
 860 0 l 29
 460 700 l 29
200 700 m 29
 270 700 l 29
 670 0 l 29
 600 0 l 29
 200 700 l 29
765 1550 m 29
 365 1550 l 29
 365 950 l 29
 765 950 l 29
 765 1550 l 29
815 1600 m 29
 815 900 l 29
 315 900 l 29
 315 1600 l 29
 815 1600 l 29
EndSplineSet
Validated: 1
EndChar

StartChar: uni3077
Encoding: 12407 12407 65
Width: 2138
VWidth: 0
Flags: HW
LayerCount: 2
Fore
SplineSet
940 1377 m 5
 940 1377 917 1309 934 1146 c 4
 949 1005 962 954 1033 784 c 4
 1075 684 1161 585 1172 569 c 4
 1221 498 1276 468 1310 451 c 4
 1355 428 1536 408 1628 408 c 4
 1703 408 1782 428 1832 446 c 5
 1697 545 1697 547 1579 665 c 4
 1492 752 1400 861 1332 964 c 5
 1293 954 1263 940 1241 917 c 4
 1227 902 1223 888 1227 868 c 4
 1233 838 1243 821 1269 802 c 4
 1292 785 1302 773 1323 754 c 5
 1263 730 1193 708 1134 742 c 4
 1088 769 1064 811 1048 862 c 4
 1031 917 1017 967 1034 1020 c 4
 1039 1036 1079 1043 1079 1027 c 4
 1079 930 1091 896 1113 845 c 4
 1148 764 1193 769 1235 771 c 5
 1211 795 1198 811 1186 844 c 4
 1163 907 1194 939 1211 960 c 4
 1235 990 1272 992 1305 1012 c 5
 1248 1117 1248 1131 1201 1267 c 4
 1167 1365 1208 1412 1167 1496 c 4
 1146 1539 1111 1551 1047 1550 c 4
 963 1549 952 1516 918 1457 c 4
 899 1424 930 1414 940 1377 c 5
1211 452 m 13
 1165 80 l 29
 1300 80 l 29
 1388 265 l 29
 1348 386 l 29
 1322 391 1306 398 1281 409 c 4
 1256 420 1233 437 1211 452 c 13
972 1434 m 4x8fc0
 972 1457 991 1474 1014 1474 c 4
 1037 1474 1056 1457 1056 1434 c 4
 1056 1411 1037 1394 1014 1394 c 4
 991 1394 972 1411 972 1434 c 4x8fc0
750 0 m 29
 775 80 l 29
 1105 80 l 5
 1158 500 l 5
 1091 594 1029 681 978 785 c 4
 932 878 922 928 894 1041 c 4
 877 1111 870 1308 890 1377 c 5
 760 1397 l 5
 760 1447 l 5
 865 1462 l 5
 907 1597 990 1610 1074 1609 c 4
 1145 1608 1180 1585 1218 1525 c 4
 1253 1470 1231 1386 1248 1313 c 4
 1291 1134 1321 1071 1454 901 c 4
 1550 779 1676 640 1794 540 c 4
 1878 469 1919 443 1938 437 c 5
 1910 416 1780 374 1690 362 c 4
 1592 349 1438 373 1418 373 c 5
 1458 265 l 5
 1370 80 l 5
 1475 80 l 29
 1510 0 l 29
 750 0 l 29
650 1100 m 29
 250 1100 l 29
 250 500 l 29
 650 500 l 29
 650 1100 l 29
700 1150 m 29
 700 450 l 29
 200 450 l 29
 200 1150 l 29
 700 1150 l 29
EndSplineSet
Validated: 33
EndChar

StartChar: uni307A
Encoding: 12410 12410 66
Width: 1298
VWidth: 0
Flags: HW
LayerCount: 2
Fore
SplineSet
1048 457 m 5
 1048 1514 l 5
 998 1534 l 5
 980 1452 967 1370 958 1287 c 4
 950 1215 944 1143 938 1071 c 4
 932 999 925 927 921 855 c 4
 919 819 917 783 916 747 c 4
 915 711 913 674 912 638 c 4
 911 603 909 567 907 532 c 5
 1048 457 l 5
1098 0 m 5
 1048 0 l 5
 1048 400 l 5
 850 500 l 5
 851 544 852 588 854 632 c 4
 857 703 860 775 865 846 c 4
 871 933 880 1019 889 1106 c 4
 897 1178 905 1250 915 1321 c 4
 928 1415 946 1508 968 1600 c 5
 1098 1550 l 5
 1098 0 l 5
650 1100 m 29
 250 1100 l 29
 250 500 l 29
 650 500 l 29
 650 1100 l 29
700 1150 m 29
 700 450 l 29
 200 450 l 29
 200 1150 l 29
 700 1150 l 29
EndSplineSet
Validated: 1
EndChar

StartChar: uni307D
Encoding: 12413 12413 67
Width: 2045
VWidth: 0
Flags: HW
LayerCount: 2
Fore
SplineSet
1222 825 m 4
 1222 792 1257 769 1282 758 c 4
 1309 746 1329 743 1359 743 c 4
 1388 743 1409 747 1435 759 c 4
 1456 769 1490 797 1490 825 c 4
 1490 856 1453 883 1435 891 c 4
 1409 902 1388 907 1359 907 c 4
 1329 907 1309 904 1282 892 c 4
 1257 881 1222 859 1222 825 c 4
1152 650 m 4
 1131 650 1109 644 1091 633 c 4
 1073 622 1057 608 1045 590 c 4
 1021 555 1011 511 1010 468 c 4
 1009 424 1011 380 1035 343 c 4
 1056 312 1091 280 1152 280 c 4
 1219 280 1255 311 1273 343 c 4
 1291 374 1295 424 1294 468 c 4
 1293 511 1283 555 1259 590 c 4
 1247 608 1231 622 1213 633 c 4
 1195 644 1173 650 1152 650 c 4
1696 1380 m 6
 1696 270 l 6
 1696 267 1696 265 1696 262 c 4
 1696 259 1697 257 1698 255 c 4
 1699 250 1700 246 1701 241 c 4
 1702 236 1703 231 1704 226 c 4
 1705 221 1707 217 1708 212 c 4
 1709 208 1711 203 1712 199 c 4
 1713 195 1715 190 1717 186 c 4
 1719 181 1721 177 1723 172 c 4
 1725 167 1728 163 1730 158 c 4
 1733 153 1735 149 1738 144 c 4
 1741 139 1745 134 1748 129 c 4
 1751 124 1755 119 1758 114 c 4
 1761 109 1765 105 1768 100 c 4
 1771 96 1775 91 1778 87 c 4
 1781 83 1785 79 1789 75 c 4
 1793 71 1797 68 1802 65 c 4
 1805 63 1807 62 1810 60 c 4
 1813 58 1815 57 1818 55 c 4
 1821 53 1824 52 1826 50 c 4
 1827 49 1829 48 1830 47 c 4
 1831 47 1831 46 1832 46 c 4
 1833 46 1833 45 1834 44 c 4
 1835 43 1835 43 1835 42 c 4
 1835 41 1836 41 1837 40 c 4
 1838 39 1839 38 1840 37 c 4
 1841 36 1841 36 1841 35 c 4
 1841 34 1842 33 1842 32 c 4
 1843 31 1843 29 1844 28 c 4
 1845 27 1845 25 1845 24 c 4
 1845 22 1845 21 1845 19 c 4
 1845 18 1844 16 1844 15 c 4
 1844 14 1843 13 1843 12 c 4
 1842 11 1842 10 1841 9 c 4
 1841 8 1840 8 1840 7 c 4
 1840 6 1839 6 1839 6 c 4
 1839 6 1838 5 1837 5 c 4
 1836 5 1837 4 1836 4 c 4
 1835 3 1834 3 1833 2 c 4
 1832 1 1831 1 1830 1 c 4
 1828 1 1827 0 1825 0 c 4
 1823 0 1821 -1 1819 -1 c 4
 1817 -1 1816 -1 1814 0 c 4
 1811 1 1807 2 1804 3 c 4
 1801 4 1798 6 1795 8 c 4
 1792 10 1790 12 1787 14 c 4
 1785 16 1782 19 1780 21 c 4
 1777 24 1775 26 1772 29 c 4
 1770 31 1767 34 1765 36 c 4
 1761 40 1756 45 1752 49 c 4
 1748 53 1743 57 1739 61 c 4
 1735 65 1730 69 1726 74 c 4
 1721 79 1717 84 1713 90 c 4
 1709 96 1706 101 1702 107 c 4
 1698 113 1695 118 1691 124 c 4
 1688 129 1685 135 1682 140 c 4
 1679 145 1677 151 1674 156 c 4
 1671 161 1669 167 1667 172 c 4
 1665 177 1664 182 1662 187 c 4
 1660 192 1658 197 1657 202 c 4
 1656 207 1655 213 1654 218 c 4
 1653 224 1652 229 1651 235 c 4
 1650 241 1649 247 1648 253 c 4
 1647 256 1646 258 1646 261 c 4
 1646 264 1646 267 1646 270 c 6
 1646 1380 l 6
 1643 1390 1640 1400 1636 1410 c 4
 1632 1420 1627 1430 1621 1439 c 4
 1615 1448 1608 1456 1601 1464 c 4
 1593 1473 1584 1481 1574 1489 c 4
 1565 1496 1554 1503 1544 1509 c 4
 1534 1515 1523 1521 1512 1526 c 4
 1502 1531 1491 1536 1480 1539 c 4
 1469 1542 1457 1545 1446 1547 c 4
 1435 1549 1423 1550 1412 1550 c 4
 1411 1550 1411 1550 1410 1550 c 4
 1409 1550 l 4
 1408 1550 1408 1550 1407 1550 c 4
 1395 1550 1383 1549 1371 1546 c 4
 1359 1543 1347 1540 1336 1536 c 4
 1325 1532 1314 1527 1303 1522 c 4
 1292 1517 1281 1511 1271 1505 c 4
 1261 1499 1250 1492 1241 1484 c 4
 1232 1476 1223 1468 1215 1459 c 4
 1209 1452 1203 1443 1198 1435 c 4
 1193 1426 1189 1417 1185 1408 c 4
 1182 1399 1179 1390 1177 1380 c 6
 1177 850 l 6
 1178 852 1178 853 1179 855 c 4
 1182 860 1185 865 1189 870 c 4
 1196 878 1203 887 1210 895 c 4
 1219 905 1228 914 1239 921 c 4
 1253 931 1269 939 1286 945 c 4
 1309 953 1334 956 1359 955 c 4
 1391 954 1424 947 1452 932 c 4
 1476 919 1498 901 1516 880 c 4
 1523 872 1529 864 1533 855 c 4
 1537 846 1540 835 1540 825 c 4
 1540 815 1537 804 1533 795 c 4
 1529 786 1523 777 1516 769 c 4
 1498 748 1476 730 1452 717 c 4
 1424 702 1391 695 1359 695 c 4
 1335 695 1311 697 1288 704 c 4
 1272 709 1256 716 1242 726 c 4
 1230 734 1220 744 1210 755 c 4
 1203 763 1196 771 1190 779 c 4
 1186 784 1183 789 1180 794 c 4
 1179 796 1178 798 1177 800 c 6
 1177 700 l 6
 1181 700 1184 700 1188 699 c 4
 1197 698 1206 695 1215 691 c 4
 1227 686 1238 678 1249 670 c 4
 1264 659 1277 646 1289 632 c 4
 1305 614 1318 593 1327 570 c 4
 1340 538 1344 503 1344 468 c 4
 1344 433 1342 398 1333 364 c 4
 1324 329 1305 296 1277 274 c 4
 1260 260 1239 250 1218 244 c 4
 1197 238 1174 236 1152 236 c 4
 1109 236 1066 247 1032 273 c 4
 1004 295 985 327 974 361 c 4
 963 395 959 432 960 468 c 4
 961 502 965 536 976 568 c 4
 984 591 995 612 1011 631 c 4
 1024 646 1039 659 1055 670 c 4
 1067 678 1079 685 1092 691 c 4
 1100 695 1108 698 1117 699 c 4
 1120 700 1124 700 1127 700 c 6
 1127 800 l 5
 850 800 l 5
 850 850 l 5
 1127 850 l 5
 1127 1380 l 6
 1129 1392 1131 1404 1135 1415 c 4
 1139 1426 1144 1437 1149 1448 c 4
 1155 1459 1161 1469 1168 1479 c 4
 1177 1491 1188 1503 1199 1513 c 4
 1210 1523 1222 1533 1235 1541 c 4
 1248 1549 1261 1557 1275 1564 c 4
 1289 1571 1303 1577 1317 1582 c 4
 1332 1587 1347 1590 1362 1594 c 4
 1377 1598 1392 1600 1407 1600 c 4
 1408 1600 1410 1600 1411 1600 c 4
 1412 1600 1413 1600 1414 1600 c 4
 1415 1600 1417 1600 1418 1600 c 4
 1432 1600 1445 1599 1459 1597 c 4
 1473 1595 1486 1592 1499 1588 c 4
 1512 1584 1525 1579 1537 1574 c 4
 1550 1568 1563 1562 1575 1554 c 4
 1587 1546 1599 1537 1610 1528 c 4
 1621 1519 1631 1509 1640 1498 c 4
 1649 1487 1658 1475 1665 1462 c 4
 1672 1449 1679 1436 1684 1422 c 4
 1689 1408 1693 1394 1696 1380 c 6
650 1100 m 29
 250 1100 l 29
 250 500 l 29
 650 500 l 29
 650 1100 l 29
700 1150 m 29
 700 450 l 29
 200 450 l 29
 200 1150 l 29
 700 1150 l 29
EndSplineSet
Validated: 33
EndChar
